<svg xmlns="http://www.w3.org/2000/svg" xmlns:xlink="http://www.w3.org/1999/xlink" width="1002.839" height="430.473" viewBox="0 0 1002.839 430.473">
  <defs>
    <clipPath id="clip-path">
      <path id="Trazado_874381" data-name="Trazado 874381" d="M14.435,0H988.4c7.972,0,14.435,6.812,14.435,15.215v375.57c0,8.4-6.463,15.215-14.435,15.215H14.435C6.463,406,0,399.188,0,390.785V15.215C0,6.812,6.463,0,14.435,0Z" transform="translate(0 0)" fill="#f6f6f6"/>
    </clipPath>
    <clipPath id="clip-path-2">
      <path id="Trazado_874362" data-name="Trazado 874362" d="M.3.313,936.511,27.626l24.751,797.133L25.054,797.445Z" fill="#fff"/>
    </clipPath>
    <clipPath id="clip-path-3">
      <path id="Trazado_874367" data-name="Trazado 874367" d="M538.374,25.664C361.994,53.093,197.641,134.8,84.511,260.555c-28.805,32.035-54.721,67.626-66,108.823s-6.078,88.975,22.465,124.481c36.846,45.84,101.322,61.087,168.561,76.7-20.349,8.2-28.69,32.975-21.628,53.562,15.09,44,69.829,54.716,115.17,54.75,151.112.1,289.374-66.587,407.7-148.328,62.162-42.945,121.3-91.168,163.991-151.621,28.047-39.717,50.183-98.436,7.423-137.713-19.725-18.12-53.336-23.206-74.078-4.838,33.04-33.782,32.237-90.372,5.278-131.828S737.983,36.175,688.3,25.32a305.929,305.929,0,0,0-56.4-6.68c-31.391-.928-62.833,2.25-93.529,7.024" fill="#fff"/>
    </clipPath>
    <clipPath id="clip-path-4">
      <path id="Trazado_874369" data-name="Trazado 874369" d="M0,0,941.975-19.659,924.16,772.247-17.815,791.907Z" fill="#fff"/>
    </clipPath>
    <clipPath id="clip-path-5">
      <path id="Trazado_874374" data-name="Trazado 874374" d="M540.9-1.743C361.686,34.373,191.681,123.89,70.932,254.678,40.186,287.995,12.16,324.7-1.416,366.259s-10.9,88.834,15.961,122.734c34.672,43.768,98.828,55.713,165.749,67.882-20.946,9.18-30.68,34.245-24.668,54.376,12.846,43.027,67.433,50.949,113.123,48.714,152.274-7.458,295.181-80.73,418.8-167.982,64.945-45.84,127.13-96.78,173.391-159.066C891.338,292,916.8,232.463,875.811,195.523c-18.905-17.043-52.5-20.422-74.391-1.108,35.107-35.266,37.334-91.533,12.39-131.433S741.487-1.27,692.006-9.586a302.921,302.921,0,0,0-56.478-3.825c-31.584.647-63.439,5.382-94.628,11.668" fill="#fff"/>
    </clipPath>
    <clipPath id="clip-path-6">
      <rect id="Rectángulo_401216" data-name="Rectángulo 401216" width="21.329" height="18.792" fill="none" stroke="#ffd75e" stroke-width="1"/>
    </clipPath>
    <clipPath id="clip-path-7">
      <rect id="Rectángulo_401216-2" data-name="Rectángulo 401216" width="21.329" height="18.792" fill="none" stroke="#adecd1" stroke-width="1"/>
    </clipPath>
    <clipPath id="clip-path-8">
      <rect id="Rectángulo_401216-3" data-name="Rectángulo 401216" width="21.329" height="18.792" fill="none" stroke="#a0c9f6" stroke-width="1"/>
    </clipPath>
    <clipPath id="clip-path-9">
      <rect id="Rectángulo_401459" data-name="Rectángulo 401459" width="392.106" height="313.951" fill="none"/>
    </clipPath>
  </defs>
  <g id="Grupo_1100787" data-name="Grupo 1100787" transform="translate(-297.5 -1317.527)">
    <g id="Enmascarar_grupo_1098725" data-name="Enmascarar grupo 1098725" transform="translate(297.5 1342)" clip-path="url(#clip-path)">
      <path id="Trazado_874360" data-name="Trazado 874360" d="M14.435,0H988.4c7.972,0,14.435,8.438,14.435,18.846v465.2c0,10.408-6.463,18.846-14.435,18.846H14.435C6.463,502.89,0,494.452,0,484.044V18.846C0,8.438,6.463,0,14.435,0Z" transform="translate(-6.753 -17.58)" fill="#f6f6f6"/>
      <g id="Grupo_1099742" data-name="Grupo 1099742" transform="matrix(-0.927, 0.375, -0.375, -0.927, 1509.886, 478.279)" opacity="0.49" style="isolation: isolate">
        <g id="Grupo_1099739" data-name="Grupo 1099739" transform="translate(0 0)">
          <g id="Grupo_1099738" data-name="Grupo 1099738" clip-path="url(#clip-path-2)">
            <path id="Trazado_874361" data-name="Trazado 874361" d="M808.113,236.372c33.04-33.782,32.229-90.372,5.278-131.828S737.974,36.177,688.3,25.322s-100.772-7.306-149.929.336C361.994,53.1,197.632,134.8,84.511,260.557c-28.805,32.027-54.73,67.626-66,108.823s-6.078,88.966,22.465,124.473c36.838,45.84,101.323,61.1,168.561,76.707-20.357,8.2-28.69,32.967-21.628,53.562,15.09,44,69.82,54.716,115.162,54.75,151.121.1,289.382-66.595,407.7-148.328,62.161-42.945,121.3-91.168,163.991-151.621,28.056-39.724,50.192-98.436,7.431-137.721-19.725-18.112-53.336-23.2-74.077-4.83" transform="translate(40.782 74.888)" fill="#fff"/>
          </g>
        </g>
        <g id="Grupo_1099741" data-name="Grupo 1099741" transform="translate(40.782 74.89)">
          <g id="Grupo_1099740" data-name="Grupo 1099740" transform="translate(0 0)" clip-path="url(#clip-path-3)">
            <path id="Trazado_874363" data-name="Trazado 874363" d="M11.023,350.838S483.061,450.061,386.17,11.391" transform="translate(-33.365 13.91)" fill="#fff"/>
            <path id="Trazado_874364" data-name="Trazado 874364" d="M17.146,545.745S440.471,688.794,587.528,17.331" transform="translate(-34.145 -11.359)" fill="#fff"/>
            <path id="Trazado_874365" data-name="Trazado 874365" d="M24.76,788.084s272.479,35.424,423.817-286.429S588.067,17.347,588.067,17.347" transform="translate(118.347 -65.805)" fill="#fff"/>
            <path id="Trazado_874366" data-name="Trazado 874366" d="M343.943,10.146s-4.782,292.5-328.584,478.723" transform="translate(522.265 164.452)" fill="#fff"/>
          </g>
        </g>
      </g>
      <ellipse id="Elipse_11549" data-name="Elipse 11549" cx="252.732" cy="231.38" rx="252.732" ry="231.38" transform="translate(7.804 -164.788)" fill="#e8e8e8" opacity="0.37" style="mix-blend-mode: multiply;isolation: isolate"/>
      <ellipse id="Elipse_11550" data-name="Elipse 11550" cx="252.899" cy="231.904" rx="252.899" ry="231.904" transform="translate(-245.238 155.68)" fill="#fff" opacity="0.65"/>
      <ellipse id="Elipse_11551" data-name="Elipse 11551" cx="252.899" cy="231.904" rx="252.899" ry="231.904" transform="translate(671.091 -140.793)" fill="#fff" opacity="0.65"/>
      <g id="Grupo_1099747" data-name="Grupo 1099747" transform="translate(498.133 612.038) rotate(-165)" opacity="0.3" style="isolation: isolate">
        <g id="Grupo_1099744" data-name="Grupo 1099744" transform="translate(0 0)">
          <g id="Grupo_1099743" data-name="Grupo 1099743" clip-path="url(#clip-path-4)">
            <path id="Trazado_874368" data-name="Trazado 874368" d="M801.42,194.417c35.107-35.266,37.326-91.532,12.39-131.433S741.478-1.268,692.005-9.584,590.847-11.811,540.9-1.749C361.686,34.375,191.672,123.892,70.932,254.68c-30.746,33.308-58.78,70.026-72.348,111.581s-10.9,88.825,15.961,122.726c34.663,43.768,98.828,55.721,165.749,67.89-20.954,9.18-30.68,34.237-24.668,54.376,12.846,43.027,67.425,50.95,113.114,48.714,152.283-7.458,295.19-80.738,418.8-167.982,64.945-45.84,127.13-96.781,173.391-159.066,30.4-40.929,55.86-100.455,14.876-137.4-18.905-17.035-52.5-20.414-74.391-1.1" transform="translate(37.048 72.522)" fill="#fff"/>
          </g>
        </g>
        <g id="Grupo_1099746" data-name="Grupo 1099746" transform="translate(37.048 72.524)">
          <g id="Grupo_1099745" data-name="Grupo 1099745" transform="translate(0 0)" clip-path="url(#clip-path-5)">
            <path id="Trazado_874370" data-name="Trazado 874370" d="M-7.93,348.322S462.433,423.434,388.324-8.194" transform="translate(-34.407 15.374)" fill="#fff"/>
            <path id="Trazado_874371" data-name="Trazado 874371" d="M-12.335,541.838S406.587,662.994,590.8-12.466" transform="translate(-33.716 -9.621)" fill="#fff"/>
            <path id="Trazado_874372" data-name="Trazado 874372" d="M-17.816,782.587S254.868,804.2,424.64,476.388,591.185-12.475,591.185-12.475" transform="translate(123.029 -71.425)" fill="#fff"/>
            <path id="Trazado_874373" data-name="Trazado 874373" d="M345.749-7.3S325.24,283.982-11.052,485.471" transform="translate(517.529 137.341)" fill="#fff"/>
          </g>
        </g>
      </g>
      <g id="Grupo_1099748" data-name="Grupo 1099748" transform="translate(-159.361 -249.029)">
        <path id="Trazado_874375" data-name="Trazado 874375" d="M620.658,393.138S512.235-20.828.164,3.748" transform="translate(529.728 827.922) rotate(-43)" fill="none" stroke="#e8e8e8" stroke-linecap="round" stroke-linejoin="round" stroke-width="1"/>
        <path id="Trazado_874376" data-name="Trazado 874376" d="M79.773,3.475S-72.922,123.092,60.534,224.583" transform="translate(983.119 438.647) rotate(-43)" fill="none" stroke="#e8e8e8" stroke-linecap="round" stroke-linejoin="round" stroke-width="1"/>
        <path id="Trazado_874377" data-name="Trazado 874377" d="M530.09,23.092C518.93,159.481,474.184,172.2,382.94,175.481s-69.992,99.464-219.544,25.07S1.8,41.131,1.8,41.131" transform="translate(0 344.632) rotate(-43)" fill="none" stroke="#e8e8e8" stroke-linecap="round" stroke-linejoin="round" stroke-width="1"/>
        <path id="Trazado_874378" data-name="Trazado 874378" d="M155.086,6.756S250.915,99.5,193.924,143.615,2.383,54.373,2.383,54.373" transform="translate(91.344 248.732) rotate(-43)" fill="none" stroke="#e8e8e8" stroke-linecap="round" stroke-linejoin="round" stroke-width="1"/>
        <path id="Trazado_874379" data-name="Trazado 874379" d="M252.243,168.1C254.429,63.988,126.56-40.5,1,22.926" transform="translate(672.113 780.981) rotate(-43)" fill="none" stroke="#e8e8e8" stroke-linecap="round" stroke-linejoin="round" stroke-width="1"/>
        <path id="Trazado_874380" data-name="Trazado 874380" d="M330.677,20.259c-33.8,8.137-63.311,31.028-70.465,62.319s12.805,69.688,39.858,82.859c-38.882-12.582-78.114-25.243-118.319-30.367s-82-2.2-115.719,15.046S8.1,200.621,10.413,237.26c2.686,42.529,38.154,79.478,73.663,109.872C187.717,435.842,311.2,505.625,443.532,546.206c42.037,12.89,89.285,22.549,126.409,5.253,35.481-16.529,52.75-55.254,50.382-92.941s-21.539-74.3-45.18-107.023-51.979-62.66-77.2-93.108c21.52,1.594,43.294,3.181,64.138,0s40.994-11.689,52.884-27.005c14.192-18.281,14.609-44.11,5.738-66.68s-25.989-42.287-44.934-59.534A359.042,359.042,0,0,0,436.747,27.275c-20.032-5.908-40.889-10.028-61.415-10.924a160.761,160.761,0,0,0-44.656,3.908" transform="translate(362.35 573.528) rotate(-43)" fill="none"/>
      </g>
    </g>
    <path id="Trazado_874385" data-name="Trazado 874385" d="M345.213,0,227.637,7.333l96.074,53.961Z" transform="translate(518.184 1375.218)" fill="#a0c9f6"/>
    <path id="Trazado_874387" data-name="Trazado 874387" d="M305.3,0l-21.5,61.294V77.678l21.5-67.12Z" transform="translate(558.101 1375.218)" fill="#50657b"/>
    <path id="Trazado_874392" data-name="Trazado 874392" d="M56.871,152.9l96.114,55.339v17.475l-96.23-56.4Z" transform="translate(397.874 1483.125)" fill="#ffd75e" opacity="0.76"/>
    <path id="Trazado_874393" data-name="Trazado 874393" d="M113.172,226.069l97.085-57.28V152.405l-97.085,56.188Z" transform="translate(437.688 1482.773)" fill="#b19540"/>
    <path id="Trazado_874394" data-name="Trazado 874394" d="M56.824,175.7,153.545,120.6l96.478,54.245-97.085,56.188Z" transform="translate(397.922 1460.33)" fill="#ffd75e"/>
    <path id="Trazado_874398" data-name="Trazado 874398" d="M113.726,94.66,209.84,150v17.475l-96.23-56.4Z" transform="translate(437.998 1442.021)" fill="#667b72" opacity="0.69"/>
    <path id="Trazado_874399" data-name="Trazado 874399" d="M170.026,167.825l97.085-57.28V94.161L170.026,150.35Z" transform="translate(477.812 1441.67)" fill="#8fada0" opacity="0.68"/>
    <path id="Trazado_874400" data-name="Trazado 874400" d="M113.678,117.455l96.721-55.1,96.478,54.247-97.085,56.188Z" transform="translate(438.046 1419.226)" fill="#adecd1"/>
    <path id="Trazado_874402" data-name="Trazado 874402" d="M170.127,182.894l13.98-7.609V132.428L170.029,140.8Z" transform="translate(477.814 1468.676)" fill="#b19540"/>
    <path id="Trazado_874403" data-name="Trazado 874403" d="M113.61,132.167v-27.89l96.235,56.391.2,25.762Z" transform="translate(437.998 1448.809)" fill="#ffd75e"/>
    <path id="Trazado_874404" data-name="Trazado 874404" d="M170.576,36.433,266.69,91.772v17.475l-96.23-56.4Z" transform="translate(478.118 1400.93)" fill="#6f8dac"/>
    <path id="Trazado_874405" data-name="Trazado 874405" d="M226.876,109.6l97.085-57.28V35.935L226.876,92.123Z" transform="translate(517.933 1400.578)" fill="#50657b"/>
    <path id="Trazado_874406" data-name="Trazado 874406" d="M170.528,59.229l96.721-55.1,96.478,54.247-97.085,56.188Z" transform="translate(478.166 1378.134)" fill="#a0c9f6"/>
    <path id="Trazado_874408" data-name="Trazado 874408" d="M226.977,124.667l13.98-7.609V74.2L226.88,82.575Z" transform="translate(517.936 1427.584)" fill="#8fada0" opacity="0.68"/>
    <path id="Trazado_874409" data-name="Trazado 874409" d="M170.461,73.941V46.051L266.7,102.444l.2,25.76Z" transform="translate(478.119 1407.717)" fill="#adecd1"/>
    <path id="Trazado_907165" data-name="Trazado 907165" d="M-113.057-4.824V0h-3.154V-14h4.941q5.293,0,5.293,4.463A4.282,4.282,0,0,1-107.5-6.128a6.016,6.016,0,0,1-4.058,1.3Zm0-6.758v4.365h1.24q2.52,0,2.52-2.207,0-2.158-2.52-2.158Zm15.352,4.365a2.677,2.677,0,0,0-1.3-.3,1.871,1.871,0,0,0-1.572.737,3.217,3.217,0,0,0-.566,2.007V0h-3.086V-10h3.086v1.855h.039a2.67,2.67,0,0,1,2.637-2.031,1.987,1.987,0,0,1,.762.117Zm10.342,3.1h-6.523q.156,2.178,2.744,2.178a5.357,5.357,0,0,0,2.9-.781V-.5a7.619,7.619,0,0,1-3.6.742A5.073,5.073,0,0,1-95.605-1.1a5.073,5.073,0,0,1-1.338-3.745A5.352,5.352,0,0,1-95.5-8.789a4.815,4.815,0,0,1,3.555-1.455,4.37,4.37,0,0,1,3.384,1.3,5,5,0,0,1,1.2,3.525Zm-2.861-1.895q0-2.148-1.738-2.148a1.66,1.66,0,0,0-1.284.615,2.792,2.792,0,0,0-.659,1.533ZM-82.4-1.162h-.039V4.6h-3.086V-10h3.086v1.5h.039a3.628,3.628,0,0,1,3.213-1.748,3.615,3.615,0,0,1,3,1.333,5.676,5.676,0,0,1,1.06,3.628A6.152,6.152,0,0,1-76.362-1.27,4.028,4.028,0,0,1-79.648.244,3.114,3.114,0,0,1-82.4-1.162Zm-.088-4.1v.8a2.546,2.546,0,0,0,.547,1.689,1.78,1.78,0,0,0,1.436.654,1.892,1.892,0,0,0,1.636-.815,3.937,3.937,0,0,0,.581-2.31q0-2.637-2.051-2.637a1.926,1.926,0,0,0-1.548.718A2.863,2.863,0,0,0-82.49-5.264ZM-65,0h-2.92V-1.436h-.039A3.259,3.259,0,0,1-70.937.244a3.116,3.116,0,0,1-2.29-.825,2.957,2.957,0,0,1-.835-2.2q0-2.91,3.447-3.359L-67.9-6.5q0-1.641-1.777-1.641a6.067,6.067,0,0,0-3.4,1.064V-9.4a7.646,7.646,0,0,1,1.763-.586,9.266,9.266,0,0,1,2.036-.254Q-65-10.244-65-5.977Zm-2.9-4.062v-.674l-1.816.234q-1.5.2-1.5,1.357a1.122,1.122,0,0,0,.366.864,1.407,1.407,0,0,0,.991.337,1.827,1.827,0,0,0,1.416-.6A2.169,2.169,0,0,0-67.9-4.062Zm11.865-3.154a2.677,2.677,0,0,0-1.3-.3,1.871,1.871,0,0,0-1.572.737,3.217,3.217,0,0,0-.566,2.007V0h-3.086V-10h3.086v1.855h.039A2.67,2.67,0,0,1-56.8-10.176a1.987,1.987,0,0,1,.762.117ZM-46.279,0H-49.2V-1.436h-.039A3.259,3.259,0,0,1-52.217.244a3.116,3.116,0,0,1-2.29-.825,2.957,2.957,0,0,1-.835-2.2q0-2.91,3.447-3.359L-49.18-6.5q0-1.641-1.777-1.641a6.067,6.067,0,0,0-3.4,1.064V-9.4a7.646,7.646,0,0,1,1.763-.586,9.266,9.266,0,0,1,2.036-.254q4.277,0,4.277,4.268Zm-2.9-4.062v-.674L-51-4.5q-1.5.2-1.5,1.357a1.122,1.122,0,0,0,.366.864,1.407,1.407,0,0,0,.991.337,1.827,1.827,0,0,0,1.416-.6A2.169,2.169,0,0,0-49.18-4.062Zm12.92,3.7a6.1,6.1,0,0,1-3.018.605,5.1,5.1,0,0,1-3.73-1.4,4.823,4.823,0,0,1-1.426-3.6,5.313,5.313,0,0,1,1.528-4.019,5.648,5.648,0,0,1,4.087-1.47,5.244,5.244,0,0,1,2.559.469v2.617a3.518,3.518,0,0,0-2.158-.723,2.844,2.844,0,0,0-2.1.776A2.9,2.9,0,0,0-41.3-4.961a2.85,2.85,0,0,0,.742,2.085,2.728,2.728,0,0,0,2.041.757,4.073,4.073,0,0,0,2.256-.723Zm3.584-11.221a1.8,1.8,0,0,1-1.279-.464,1.5,1.5,0,0,1-.5-1.138,1.441,1.441,0,0,1,.5-1.133,1.862,1.862,0,0,1,1.279-.439,1.858,1.858,0,0,1,1.284.439,1.448,1.448,0,0,1,.493,1.133,1.489,1.489,0,0,1-.493,1.152A1.833,1.833,0,0,1-32.676-11.582ZM-31.152,0h-3.086V-10h3.086Zm7.363.244a5.376,5.376,0,0,1-3.931-1.4,5.081,5.081,0,0,1-1.431-3.8,5.081,5.081,0,0,1,1.484-3.882,5.609,5.609,0,0,1,4.014-1.4,5.311,5.311,0,0,1,3.906,1.4A4.981,4.981,0,0,1-18.33-5.137,5.288,5.288,0,0,1-19.79-1.2,5.435,5.435,0,0,1-23.789.244Zm.078-8.125a2.058,2.058,0,0,0-1.7.752A3.316,3.316,0,0,0-26.016-5q0,2.881,2.324,2.881,2.217,0,2.217-2.959Q-21.475-7.881-23.711-7.881Zm3.311-6.855-3.057,3.154h-2.227l2.539-3.154ZM-6.68,0H-9.756V-5.557q0-2.324-1.66-2.324a1.647,1.647,0,0,0-1.318.615A2.344,2.344,0,0,0-13.252-5.7V0h-3.086V-10h3.086v1.582h.039A3.536,3.536,0,0,1-10-10.244q3.32,0,3.32,4.121ZM11.064,0H7.979V-1.377H7.939A3.46,3.46,0,0,1,4.844.244,3.791,3.791,0,0,1,1.826-1.079a5.478,5.478,0,0,1-1.143-3.7A5.962,5.962,0,0,1,1.943-8.75a4.109,4.109,0,0,1,3.3-1.494,2.808,2.808,0,0,1,2.7,1.387h.039V-14.8h3.086ZM8.037-4.863v-.752a2.366,2.366,0,0,0-.566-1.621A1.871,1.871,0,0,0,6-7.881a1.859,1.859,0,0,0-1.6.806,3.741,3.741,0,0,0-.576,2.212,3.237,3.237,0,0,0,.557,2.031,1.848,1.848,0,0,0,1.543.713,1.856,1.856,0,0,0,1.528-.752A3.134,3.134,0,0,0,8.037-4.863Zm14.609.742H16.123q.156,2.178,2.744,2.178a5.357,5.357,0,0,0,2.9-.781V-.5a7.619,7.619,0,0,1-3.6.742A5.073,5.073,0,0,1,14.4-1.1a5.073,5.073,0,0,1-1.338-3.745,5.352,5.352,0,0,1,1.445-3.945,4.815,4.815,0,0,1,3.555-1.455,4.37,4.37,0,0,1,3.384,1.3,5,5,0,0,1,1.2,3.525ZM19.785-6.016q0-2.148-1.738-2.148a1.66,1.66,0,0,0-1.284.615A2.792,2.792,0,0,0,16.1-6.016ZM27.568,0H24.482V-14.8h3.086Zm11.24-1.162H38.77V4.6H35.684V-10H38.77v1.5h.039a3.628,3.628,0,0,1,3.213-1.748,3.615,3.615,0,0,1,3,1.333,5.676,5.676,0,0,1,1.06,3.628A6.152,6.152,0,0,1,44.849-1.27,4.028,4.028,0,0,1,41.563.244,3.114,3.114,0,0,1,38.809-1.162Zm-.088-4.1v.8a2.546,2.546,0,0,0,.547,1.689,1.78,1.78,0,0,0,1.436.654,1.892,1.892,0,0,0,1.636-.815,3.937,3.937,0,0,0,.581-2.31q0-2.637-2.051-2.637a1.926,1.926,0,0,0-1.548.718A2.863,2.863,0,0,0,38.721-5.264ZM54.609-7.217a2.677,2.677,0,0,0-1.3-.3,1.871,1.871,0,0,0-1.572.737,3.217,3.217,0,0,0-.566,2.007V0H48.086V-10h3.086v1.855h.039a2.67,2.67,0,0,1,2.637-2.031,1.987,1.987,0,0,1,.762.117ZM60.732.244a5.376,5.376,0,0,1-3.931-1.4,5.081,5.081,0,0,1-1.431-3.8,5.081,5.081,0,0,1,1.484-3.882,5.609,5.609,0,0,1,4.014-1.4,5.311,5.311,0,0,1,3.906,1.4,4.981,4.981,0,0,1,1.416,3.706A5.288,5.288,0,0,1,64.731-1.2,5.435,5.435,0,0,1,60.732.244Zm.078-8.125a2.058,2.058,0,0,0-1.7.752A3.316,3.316,0,0,0,58.506-5q0,2.881,2.324,2.881,2.217,0,2.217-2.959Q63.047-7.881,60.811-7.881ZM77.715-10,73.652.8q-1.465,3.9-4.414,3.9a5.655,5.655,0,0,1-1.846-.254V1.982a2.6,2.6,0,0,0,1.338.361,1.671,1.671,0,0,0,1.66-1.123l.527-1.24L66.855-10h3.418l1.865,6.084a7.906,7.906,0,0,1,.273,1.338h.039A9.329,9.329,0,0,1,72.773-3.9L74.658-10ZM87.744-4.121H81.221q.156,2.178,2.744,2.178a5.357,5.357,0,0,0,2.9-.781V-.5a7.619,7.619,0,0,1-3.6.742A5.073,5.073,0,0,1,79.5-1.1a5.073,5.073,0,0,1-1.338-3.745,5.352,5.352,0,0,1,1.445-3.945,4.815,4.815,0,0,1,3.555-1.455,4.37,4.37,0,0,1,3.384,1.3,5,5,0,0,1,1.2,3.525ZM84.883-6.016q0-2.148-1.738-2.148a1.66,1.66,0,0,0-1.284.615A2.792,2.792,0,0,0,81.2-6.016ZM97.158-.361a6.1,6.1,0,0,1-3.018.605,5.1,5.1,0,0,1-3.73-1.4,4.823,4.823,0,0,1-1.426-3.6,5.313,5.313,0,0,1,1.528-4.019,5.648,5.648,0,0,1,4.087-1.47,5.244,5.244,0,0,1,2.559.469v2.617A3.518,3.518,0,0,0,95-7.881a2.844,2.844,0,0,0-2.1.776,2.9,2.9,0,0,0-.776,2.144,2.85,2.85,0,0,0,.742,2.085,2.728,2.728,0,0,0,2.041.757,4.073,4.073,0,0,0,2.256-.723Zm8.066.244a4.561,4.561,0,0,1-2.061.361Q99.9.244,99.9-3.145v-4.58H98.281V-10H99.9v-2.158l3.076-.879V-10h2.246v2.275h-2.246v4.043q0,1.563,1.24,1.563a2.091,2.091,0,0,0,1.006-.283Zm6.426.361a5.376,5.376,0,0,1-3.931-1.4,5.081,5.081,0,0,1-1.431-3.8,5.081,5.081,0,0,1,1.484-3.882,5.609,5.609,0,0,1,4.014-1.4,5.311,5.311,0,0,1,3.906,1.4,4.981,4.981,0,0,1,1.416,3.706,5.288,5.288,0,0,1-1.46,3.936A5.435,5.435,0,0,1,111.65.244Zm.078-8.125a2.058,2.058,0,0,0-1.7.752A3.316,3.316,0,0,0,109.424-5q0,2.881,2.324,2.881,2.217,0,2.217-2.959Q113.965-7.881,111.729-7.881Z" transform="translate(922.58 1677.84)" fill="#12263f"/>
    <path id="Trazado_907163" data-name="Trazado 907163" d="M-96.27,0h-8.4V-14h8.076v2.568h-4.922V-8.32h4.58v2.559h-4.58v3.2h5.244Zm3.506-11.582a1.8,1.8,0,0,1-1.279-.464,1.5,1.5,0,0,1-.5-1.138,1.441,1.441,0,0,1,.5-1.133,1.862,1.862,0,0,1,1.279-.439,1.858,1.858,0,0,1,1.284.439,1.448,1.448,0,0,1,.493,1.133,1.489,1.489,0,0,1-.493,1.152A1.833,1.833,0,0,1-92.764-11.582ZM-91.24-.176a5.436,5.436,0,0,1-1.084,3.545A3.8,3.8,0,0,1-95.449,4.7,4.321,4.321,0,0,1-96.924,4.4V1.982a2.4,2.4,0,0,0,1.143.361q1.455,0,1.455-2.285V-10h3.086Zm11.582-3.945h-6.523q.156,2.178,2.744,2.178a5.357,5.357,0,0,0,2.9-.781V-.5a7.619,7.619,0,0,1-3.6.742A5.073,5.073,0,0,1-87.9-1.1a5.073,5.073,0,0,1-1.338-3.745,5.352,5.352,0,0,1,1.445-3.945,4.815,4.815,0,0,1,3.555-1.455,4.37,4.37,0,0,1,3.384,1.3,5,5,0,0,1,1.2,3.525ZM-82.52-6.016q0-2.148-1.738-2.148a1.66,1.66,0,0,0-1.284.615A2.792,2.792,0,0,0-86.2-6.016ZM-70.244-.361a6.1,6.1,0,0,1-3.018.605,5.1,5.1,0,0,1-3.73-1.4,4.823,4.823,0,0,1-1.426-3.6A5.313,5.313,0,0,1-76.89-8.774a5.648,5.648,0,0,1,4.087-1.47,5.244,5.244,0,0,1,2.559.469v2.617A3.518,3.518,0,0,0-72.4-7.881a2.844,2.844,0,0,0-2.1.776,2.9,2.9,0,0,0-.776,2.144,2.85,2.85,0,0,0,.742,2.085,2.728,2.728,0,0,0,2.041.757,4.073,4.073,0,0,0,2.256-.723ZM-58.721,0H-61.8V-1.523h-.049A3.49,3.49,0,0,1-64.9.244q-3.477,0-3.477-4.209V-10H-65.3v5.762q0,2.119,1.68,2.119A1.661,1.661,0,0,0-62.295-2.7a2.343,2.343,0,0,0,.5-1.577V-10h3.076Zm10.176-.361a6.1,6.1,0,0,1-3.018.605,5.1,5.1,0,0,1-3.73-1.4,4.823,4.823,0,0,1-1.426-3.6A5.313,5.313,0,0,1-55.19-8.774a5.648,5.648,0,0,1,4.087-1.47,5.244,5.244,0,0,1,2.559.469v2.617A3.518,3.518,0,0,0-50.7-7.881a2.844,2.844,0,0,0-2.1.776,2.9,2.9,0,0,0-.776,2.144,2.85,2.85,0,0,0,.742,2.085,2.728,2.728,0,0,0,2.041.757,4.073,4.073,0,0,0,2.256-.723Zm3.584-11.221a1.8,1.8,0,0,1-1.279-.464,1.5,1.5,0,0,1-.5-1.138,1.441,1.441,0,0,1,.5-1.133,1.862,1.862,0,0,1,1.279-.439,1.858,1.858,0,0,1,1.284.439,1.448,1.448,0,0,1,.493,1.133,1.489,1.489,0,0,1-.493,1.152A1.833,1.833,0,0,1-44.961-11.582ZM-43.437,0h-3.086V-10h3.086Zm7.363.244A5.376,5.376,0,0,1-40-1.157a5.081,5.081,0,0,1-1.431-3.8,5.081,5.081,0,0,1,1.484-3.882,5.609,5.609,0,0,1,4.014-1.4,5.311,5.311,0,0,1,3.906,1.4,4.981,4.981,0,0,1,1.416,3.706A5.288,5.288,0,0,1-32.075-1.2,5.435,5.435,0,0,1-36.074.244ZM-36-7.881a2.058,2.058,0,0,0-1.7.752A3.316,3.316,0,0,0-38.3-5q0,2.881,2.324,2.881,2.217,0,2.217-2.959Q-33.76-7.881-36-7.881Zm3.311-6.855-3.057,3.154h-2.227l2.539-3.154ZM-18.965,0h-3.076V-5.557q0-2.324-1.66-2.324a1.647,1.647,0,0,0-1.318.615A2.344,2.344,0,0,0-25.537-5.7V0h-3.086V-10h3.086v1.582h.039a3.536,3.536,0,0,1,3.213-1.826q3.32,0,3.32,4.121ZM-8.721-14-15.547,2.324H-18.3L-11.5-14Zm11.2,2.568H-1.514V0H-4.678V-11.436H-8.652V-14H2.48Zm8.77,7.314H4.727q.156,2.178,2.744,2.178a5.357,5.357,0,0,0,2.9-.781V-.5a7.619,7.619,0,0,1-3.6.742A5.073,5.073,0,0,1,3.008-1.1,5.073,5.073,0,0,1,1.67-4.844,5.352,5.352,0,0,1,3.115-8.789,4.815,4.815,0,0,1,6.67-10.244a4.37,4.37,0,0,1,3.384,1.3,5,5,0,0,1,1.2,3.525ZM8.389-6.016q0-2.148-1.738-2.148a1.66,1.66,0,0,0-1.284.615,2.792,2.792,0,0,0-.659,1.533Zm11.221-1.2a2.677,2.677,0,0,0-1.3-.3,1.871,1.871,0,0,0-1.572.737,3.217,3.217,0,0,0-.566,2.007V0H13.086V-10h3.086v1.855h.039a2.67,2.67,0,0,1,2.637-2.031,1.987,1.987,0,0,1,.762.117ZM36.982,0H33.906V-5.7q0-2.178-1.6-2.178a1.471,1.471,0,0,0-1.24.654A2.689,2.689,0,0,0,30.586-5.6V0H27.5V-5.762q0-2.119-1.572-2.119a1.507,1.507,0,0,0-1.265.625,2.75,2.75,0,0,0-.474,1.7V0H21.1V-10h3.086v1.563h.039a3.69,3.69,0,0,1,1.343-1.3,3.69,3.69,0,0,1,1.89-.5,2.88,2.88,0,0,1,2.9,1.865,3.7,3.7,0,0,1,3.359-1.865q3.262,0,3.262,4.023Zm4-11.582a1.8,1.8,0,0,1-1.279-.464,1.5,1.5,0,0,1-.5-1.138,1.441,1.441,0,0,1,.5-1.133,1.862,1.862,0,0,1,1.279-.439,1.858,1.858,0,0,1,1.284.439,1.448,1.448,0,0,1,.493,1.133,1.489,1.489,0,0,1-.493,1.152A1.833,1.833,0,0,1,40.986-11.582ZM42.51,0H39.424V-10H42.51ZM54.766,0H51.689V-5.557q0-2.324-1.66-2.324a1.647,1.647,0,0,0-1.318.615A2.344,2.344,0,0,0,48.193-5.7V0H45.107V-10h3.086v1.582h.039a3.536,3.536,0,0,1,3.213-1.826q3.32,0,3.32,4.121ZM65.527,0h-2.92V-1.436h-.039A3.259,3.259,0,0,1,59.59.244,3.116,3.116,0,0,1,57.3-.581a2.957,2.957,0,0,1-.835-2.2q0-2.91,3.447-3.359L62.627-6.5q0-1.641-1.777-1.641a6.067,6.067,0,0,0-3.4,1.064V-9.4a7.646,7.646,0,0,1,1.763-.586,9.266,9.266,0,0,1,2.036-.254q4.277,0,4.277,4.268Zm-2.9-4.062v-.674L60.811-4.5q-1.5.2-1.5,1.357a1.122,1.122,0,0,0,.366.864,1.407,1.407,0,0,0,.991.337,1.827,1.827,0,0,0,1.416-.6A2.169,2.169,0,0,0,62.627-4.062Zm12.92,3.7a6.1,6.1,0,0,1-3.018.605,5.1,5.1,0,0,1-3.73-1.4,4.823,4.823,0,0,1-1.426-3.6A5.313,5.313,0,0,1,68.9-8.774a5.648,5.648,0,0,1,4.087-1.47,5.244,5.244,0,0,1,2.559.469v2.617a3.518,3.518,0,0,0-2.158-.723,2.844,2.844,0,0,0-2.1.776,2.9,2.9,0,0,0-.776,2.144,2.85,2.85,0,0,0,.742,2.085,2.728,2.728,0,0,0,2.041.757,4.073,4.073,0,0,0,2.256-.723Zm3.584-11.221a1.8,1.8,0,0,1-1.279-.464,1.5,1.5,0,0,1-.5-1.138,1.441,1.441,0,0,1,.5-1.133,1.862,1.862,0,0,1,1.279-.439,1.858,1.858,0,0,1,1.284.439,1.448,1.448,0,0,1,.493,1.133,1.489,1.489,0,0,1-.493,1.152A1.833,1.833,0,0,1,79.131-11.582ZM80.654,0H77.568V-10h3.086Zm7.363.244a5.376,5.376,0,0,1-3.931-1.4,5.081,5.081,0,0,1-1.431-3.8,5.081,5.081,0,0,1,1.484-3.882,5.609,5.609,0,0,1,4.014-1.4,5.311,5.311,0,0,1,3.906,1.4,4.981,4.981,0,0,1,1.416,3.706A5.288,5.288,0,0,1,92.017-1.2,5.435,5.435,0,0,1,88.018.244ZM88.1-7.881a2.058,2.058,0,0,0-1.7.752A3.316,3.316,0,0,0,85.791-5q0,2.881,2.324,2.881,2.217,0,2.217-2.959Q90.332-7.881,88.1-7.881Zm3.311-6.855L88.35-11.582H86.123l2.539-3.154ZM105.127,0h-3.076V-5.557q0-2.324-1.66-2.324a1.647,1.647,0,0,0-1.318.615A2.344,2.344,0,0,0,98.555-5.7V0H95.469V-10h3.086v1.582h.039a3.536,3.536,0,0,1,3.213-1.826q3.32,0,3.32,4.121Zm-150.2,18h-3.086V16.623H-48.2a3.46,3.46,0,0,1-3.1,1.621,3.791,3.791,0,0,1-3.018-1.323,5.478,5.478,0,0,1-1.143-3.7,5.962,5.962,0,0,1,1.26-3.975,4.109,4.109,0,0,1,3.3-1.494,2.808,2.808,0,0,1,2.7,1.387h.039V3.2h3.086ZM-48.1,13.137v-.752a2.366,2.366,0,0,0-.566-1.621,1.871,1.871,0,0,0-1.475-.645,1.859,1.859,0,0,0-1.6.806,3.741,3.741,0,0,0-.576,2.212,3.237,3.237,0,0,0,.557,2.031,1.848,1.848,0,0,0,1.543.713,1.856,1.856,0,0,0,1.528-.752A3.134,3.134,0,0,0-48.1,13.137Zm14.609.742h-6.523q.156,2.178,2.744,2.178a5.357,5.357,0,0,0,2.9-.781V17.5a7.619,7.619,0,0,1-3.6.742,5.073,5.073,0,0,1-3.76-1.343,5.073,5.073,0,0,1-1.338-3.745,5.352,5.352,0,0,1,1.445-3.945,4.815,4.815,0,0,1,3.555-1.455,4.37,4.37,0,0,1,3.384,1.3,5,5,0,0,1,1.2,3.525Zm-2.861-1.895q0-2.148-1.738-2.148a1.66,1.66,0,0,0-1.284.615,2.792,2.792,0,0,0-.659,1.533ZM-28.569,18h-3.086V3.2h3.086Zm11.24-1.162h-.039V22.6h-3.086V8h3.086V9.5h.039a3.628,3.628,0,0,1,3.213-1.748,3.615,3.615,0,0,1,3,1.333,5.676,5.676,0,0,1,1.06,3.628,6.152,6.152,0,0,1-1.235,4.014,4.028,4.028,0,0,1-3.286,1.514A3.114,3.114,0,0,1-17.329,16.838Zm-.088-4.1v.8a2.546,2.546,0,0,0,.547,1.689,1.78,1.78,0,0,0,1.436.654,1.892,1.892,0,0,0,1.636-.815,3.937,3.937,0,0,0,.581-2.31q0-2.637-2.051-2.637a1.926,1.926,0,0,0-1.548.718A2.863,2.863,0,0,0-17.417,12.736Zm15.889-1.953a2.677,2.677,0,0,0-1.3-.3,1.871,1.871,0,0,0-1.572.737,3.217,3.217,0,0,0-.566,2.007V18H-8.052V8h3.086V9.855h.039A2.67,2.67,0,0,1-2.29,7.824a1.987,1.987,0,0,1,.762.117Zm6.123,7.461a5.376,5.376,0,0,1-3.931-1.4,5.081,5.081,0,0,1-1.431-3.8A5.081,5.081,0,0,1,.718,9.157a5.609,5.609,0,0,1,4.014-1.4,5.311,5.311,0,0,1,3.906,1.4,4.981,4.981,0,0,1,1.416,3.706A5.288,5.288,0,0,1,8.594,16.8,5.435,5.435,0,0,1,4.595,18.244Zm.078-8.125a2.058,2.058,0,0,0-1.7.752A3.316,3.316,0,0,0,2.368,13q0,2.881,2.324,2.881,2.217,0,2.217-2.959Q6.909,10.119,4.673,10.119ZM21.577,8,17.515,18.8Q16.05,22.7,13.1,22.7a5.655,5.655,0,0,1-1.846-.254V19.982a2.6,2.6,0,0,0,1.338.361,1.671,1.671,0,0,0,1.66-1.123l.527-1.24L10.718,8h3.418L16,14.084a7.906,7.906,0,0,1,.273,1.338h.039a9.329,9.329,0,0,1,.322-1.318L18.521,8Zm10.029,5.879H25.083q.156,2.178,2.744,2.178a5.357,5.357,0,0,0,2.9-.781V17.5a7.619,7.619,0,0,1-3.6.742,5.073,5.073,0,0,1-3.76-1.343,5.073,5.073,0,0,1-1.338-3.745,5.352,5.352,0,0,1,1.445-3.945,4.815,4.815,0,0,1,3.555-1.455,4.37,4.37,0,0,1,3.384,1.3,5,5,0,0,1,1.2,3.525Zm-2.861-1.895q0-2.148-1.738-2.148a1.66,1.66,0,0,0-1.284.615,2.792,2.792,0,0,0-.659,1.533Zm12.275,5.654A6.1,6.1,0,0,1,38,18.244a5.1,5.1,0,0,1-3.73-1.4,4.823,4.823,0,0,1-1.426-3.6,5.313,5.313,0,0,1,1.528-4.019,5.648,5.648,0,0,1,4.087-1.47,5.244,5.244,0,0,1,2.559.469v2.617a3.518,3.518,0,0,0-2.158-.723,2.844,2.844,0,0,0-2.1.776,2.9,2.9,0,0,0-.776,2.144,2.85,2.85,0,0,0,.742,2.085,2.728,2.728,0,0,0,2.041.757,4.073,4.073,0,0,0,2.256-.723Zm8.066.244a4.561,4.561,0,0,1-2.061.361q-3.262,0-3.262-3.389v-4.58H42.144V8h1.621V5.842l3.076-.879V8h2.246v2.275H46.841v4.043q0,1.563,1.24,1.563a2.091,2.091,0,0,0,1.006-.283Zm6.426.361a5.376,5.376,0,0,1-3.931-1.4,5.081,5.081,0,0,1-1.431-3.8,5.081,5.081,0,0,1,1.484-3.882,5.609,5.609,0,0,1,4.014-1.4,5.311,5.311,0,0,1,3.906,1.4,4.981,4.981,0,0,1,1.416,3.706,5.288,5.288,0,0,1-1.46,3.936A5.435,5.435,0,0,1,55.513,18.244Zm.078-8.125a2.058,2.058,0,0,0-1.7.752A3.316,3.316,0,0,0,53.286,13q0,2.881,2.324,2.881,2.217,0,2.217-2.959Q57.827,10.119,55.591,10.119Z" transform="translate(1010.257 1575.188)" fill="#12263f"/>
    <path id="Trazado_907161" data-name="Trazado 907161" d="M-110.825.244a6.519,6.519,0,0,1-4.9-1.958,7.029,7.029,0,0,1-1.895-5.1,7.532,7.532,0,0,1,1.924-5.371,6.661,6.661,0,0,1,5.1-2.051,6.356,6.356,0,0,1,4.849,1.963A7.237,7.237,0,0,1-103.9-7.1a7.412,7.412,0,0,1-1.919,5.322A6.586,6.586,0,0,1-110.825.244Zm.137-11.768a3.175,3.175,0,0,0-2.637,1.245,5.191,5.191,0,0,0-.977,3.3,5.1,5.1,0,0,0,.977,3.291,3.129,3.129,0,0,0,2.559,1.211,3.16,3.16,0,0,0,2.588-1.177,5.04,5.04,0,0,0,.957-3.267,5.461,5.461,0,0,0-.928-3.389A3.025,3.025,0,0,0-110.688-11.523ZM-98.755-1.162h-.039V4.6h-3.086V-10h3.086v1.5h.039a3.628,3.628,0,0,1,3.213-1.748,3.615,3.615,0,0,1,3,1.333,5.676,5.676,0,0,1,1.06,3.628A6.152,6.152,0,0,1-92.715-1.27,4.028,4.028,0,0,1-96,.244,3.114,3.114,0,0,1-98.755-1.162Zm-.088-4.1v.8A2.546,2.546,0,0,0-98.3-2.773a1.78,1.78,0,0,0,1.436.654,1.892,1.892,0,0,0,1.636-.815,3.937,3.937,0,0,0,.581-2.31q0-2.637-2.051-2.637a1.926,1.926,0,0,0-1.548.718A2.863,2.863,0,0,0-98.843-5.264Zm18.35,1.143h-6.523q.156,2.178,2.744,2.178a5.357,5.357,0,0,0,2.9-.781V-.5a7.619,7.619,0,0,1-3.6.742A5.073,5.073,0,0,1-88.735-1.1a5.073,5.073,0,0,1-1.338-3.745,5.352,5.352,0,0,1,1.445-3.945,4.815,4.815,0,0,1,3.555-1.455,4.37,4.37,0,0,1,3.384,1.3,5,5,0,0,1,1.2,3.525Zm-2.861-1.895q0-2.148-1.738-2.148a1.66,1.66,0,0,0-1.284.615,2.792,2.792,0,0,0-.659,1.533Zm11.221-1.2a2.677,2.677,0,0,0-1.3-.3A1.871,1.871,0,0,0-75-6.782a3.217,3.217,0,0,0-.566,2.007V0h-3.086V-10h3.086v1.855h.039A2.67,2.67,0,0,1-72.9-10.176a1.987,1.987,0,0,1,.762.117ZM-62.378,0H-65.3V-1.436h-.039A3.259,3.259,0,0,1-68.315.244a3.116,3.116,0,0,1-2.29-.825,2.957,2.957,0,0,1-.835-2.2q0-2.91,3.447-3.359l2.715-.361q0-1.641-1.777-1.641a6.067,6.067,0,0,0-3.4,1.064V-9.4a7.646,7.646,0,0,1,1.763-.586,9.266,9.266,0,0,1,2.036-.254q4.277,0,4.277,4.268Zm-2.9-4.062v-.674l-1.816.234q-1.5.2-1.5,1.357a1.122,1.122,0,0,0,.366.864,1.407,1.407,0,0,0,.991.337,1.827,1.827,0,0,0,1.416-.6A2.169,2.169,0,0,0-65.278-4.062Zm12.92,3.7a6.1,6.1,0,0,1-3.018.605,5.1,5.1,0,0,1-3.73-1.4,4.823,4.823,0,0,1-1.426-3.6A5.313,5.313,0,0,1-59-8.774a5.648,5.648,0,0,1,4.087-1.47,5.244,5.244,0,0,1,2.559.469v2.617a3.518,3.518,0,0,0-2.158-.723,2.844,2.844,0,0,0-2.1.776A2.9,2.9,0,0,0-57.4-4.961a2.85,2.85,0,0,0,.742,2.085,2.728,2.728,0,0,0,2.041.757,4.073,4.073,0,0,0,2.256-.723Zm3.584-11.221a1.8,1.8,0,0,1-1.279-.464,1.5,1.5,0,0,1-.5-1.138,1.441,1.441,0,0,1,.5-1.133,1.862,1.862,0,0,1,1.279-.439,1.858,1.858,0,0,1,1.284.439A1.448,1.448,0,0,1-47-13.184a1.489,1.489,0,0,1-.493,1.152A1.833,1.833,0,0,1-48.774-11.582ZM-47.251,0h-3.086V-10h3.086Zm7.363.244a5.376,5.376,0,0,1-3.931-1.4,5.081,5.081,0,0,1-1.431-3.8,5.081,5.081,0,0,1,1.484-3.882,5.609,5.609,0,0,1,4.014-1.4,5.311,5.311,0,0,1,3.906,1.4,4.981,4.981,0,0,1,1.416,3.706A5.288,5.288,0,0,1-35.889-1.2,5.435,5.435,0,0,1-39.888.244Zm.078-8.125a2.058,2.058,0,0,0-1.7.752A3.316,3.316,0,0,0-42.114-5q0,2.881,2.324,2.881,2.217,0,2.217-2.959Q-37.573-7.881-39.81-7.881Zm3.311-6.855-3.057,3.154h-2.227l2.539-3.154ZM-22.778,0h-3.076V-5.557q0-2.324-1.66-2.324a1.647,1.647,0,0,0-1.318.615A2.344,2.344,0,0,0-29.351-5.7V0h-3.086V-10h3.086v1.582h.039A3.536,3.536,0,0,1-26.1-10.244q3.32,0,3.32,4.121Zm10.244-14L-19.36,2.324h-2.754L-15.317-14Zm4.521,9.18V0h-3.154V-14h4.941Q-.933-14-.933-9.541A4.282,4.282,0,0,1-2.451-6.128a6.016,6.016,0,0,1-4.058,1.3Zm0-6.758v4.365h1.24q2.52,0,2.52-2.207,0-2.158-2.52-2.158ZM4.985.244a5.376,5.376,0,0,1-3.931-1.4,5.081,5.081,0,0,1-1.431-3.8A5.081,5.081,0,0,1,1.108-8.843a5.609,5.609,0,0,1,4.014-1.4,5.311,5.311,0,0,1,3.906,1.4,4.981,4.981,0,0,1,1.416,3.706A5.288,5.288,0,0,1,8.984-1.2,5.435,5.435,0,0,1,4.985.244Zm.078-8.125a2.058,2.058,0,0,0-1.7.752A3.316,3.316,0,0,0,2.759-5q0,2.881,2.324,2.881Q7.3-2.119,7.3-5.078,7.3-7.881,5.063-7.881ZM11.792-.264v-2.5a6.57,6.57,0,0,0,1.519.684,5.035,5.035,0,0,0,1.431.225,3.068,3.068,0,0,0,1.294-.225.726.726,0,0,0,.474-.684.632.632,0,0,0-.215-.488,2,2,0,0,0-.552-.342A6.261,6.261,0,0,0,15-3.857q-.4-.117-.771-.264a7.392,7.392,0,0,1-1.05-.483,3.034,3.034,0,0,1-.762-.6A2.361,2.361,0,0,1,11.953-6a3.157,3.157,0,0,1-.161-1.064,2.74,2.74,0,0,1,.366-1.445,2.991,2.991,0,0,1,.977-.991,4.462,4.462,0,0,1,1.4-.566,7.281,7.281,0,0,1,1.636-.181,9.076,9.076,0,0,1,1.348.1,10.059,10.059,0,0,1,1.348.3v2.383a4.87,4.87,0,0,0-1.255-.513,5.294,5.294,0,0,0-1.313-.171,2.91,2.91,0,0,0-.571.054,1.882,1.882,0,0,0-.474.156.87.87,0,0,0-.322.264.607.607,0,0,0-.117.366.677.677,0,0,0,.176.469,1.527,1.527,0,0,0,.459.337,4.531,4.531,0,0,0,.63.254q.347.112.688.229a8.951,8.951,0,0,1,1.113.469,3.56,3.56,0,0,1,.854.6,2.339,2.339,0,0,1,.547.8,2.846,2.846,0,0,1,.19,1.094,2.853,2.853,0,0,1-.386,1.519A3.088,3.088,0,0,1,18.057-.513a4.65,4.65,0,0,1-1.475.576,8.175,8.175,0,0,1-1.733.181A8.936,8.936,0,0,1,11.792-.264Zm15.5.146a4.561,4.561,0,0,1-2.061.361q-3.262,0-3.262-3.389v-4.58H20.347V-10h1.621v-2.158l3.076-.879V-10H27.29v2.275H25.044v4.043q0,1.563,1.24,1.563A2.091,2.091,0,0,0,27.29-2.4Zm6.279-4.141H28.228V-6.416h5.342Zm5.771,3.1H39.3V4.6H36.216V-10H39.3v1.5h.039a3.628,3.628,0,0,1,3.213-1.748,3.615,3.615,0,0,1,3,1.333,5.676,5.676,0,0,1,1.06,3.628A6.152,6.152,0,0,1,45.381-1.27,4.028,4.028,0,0,1,42.095.244,3.114,3.114,0,0,1,39.341-1.162Zm-.088-4.1v.8A2.546,2.546,0,0,0,39.8-2.773a1.78,1.78,0,0,0,1.436.654,1.892,1.892,0,0,0,1.636-.815,3.937,3.937,0,0,0,.581-2.31q0-2.637-2.051-2.637a1.926,1.926,0,0,0-1.548.718A2.863,2.863,0,0,0,39.253-5.264ZM55.142-7.217a2.677,2.677,0,0,0-1.3-.3,1.871,1.871,0,0,0-1.572.737A3.217,3.217,0,0,0,51.7-4.775V0H48.618V-10H51.7v1.855h.039a2.67,2.67,0,0,1,2.637-2.031,1.987,1.987,0,0,1,.762.117ZM61.265.244a5.376,5.376,0,0,1-3.931-1.4,5.081,5.081,0,0,1-1.431-3.8,5.081,5.081,0,0,1,1.484-3.882,5.609,5.609,0,0,1,4.014-1.4,5.311,5.311,0,0,1,3.906,1.4,4.981,4.981,0,0,1,1.416,3.706A5.288,5.288,0,0,1,65.264-1.2,5.435,5.435,0,0,1,61.265.244Zm.078-8.125a2.058,2.058,0,0,0-1.7.752A3.316,3.316,0,0,0,59.038-5q0,2.881,2.324,2.881,2.217,0,2.217-2.959Q63.579-7.881,61.343-7.881ZM78.247-10,74.185.8Q72.72,4.7,69.771,4.7a5.655,5.655,0,0,1-1.846-.254V1.982a2.6,2.6,0,0,0,1.338.361,1.671,1.671,0,0,0,1.66-1.123L71.45-.02,67.388-10h3.418l1.865,6.084a7.906,7.906,0,0,1,.273,1.338h.039A9.329,9.329,0,0,1,73.306-3.9L75.19-10ZM88.276-4.121H81.753q.156,2.178,2.744,2.178a5.357,5.357,0,0,0,2.9-.781V-.5a7.619,7.619,0,0,1-3.6.742A5.073,5.073,0,0,1,80.034-1.1,5.073,5.073,0,0,1,78.7-4.844a5.352,5.352,0,0,1,1.445-3.945A4.815,4.815,0,0,1,83.7-10.244a4.37,4.37,0,0,1,3.384,1.3,5,5,0,0,1,1.2,3.525ZM85.415-6.016q0-2.148-1.738-2.148a1.66,1.66,0,0,0-1.284.615,2.792,2.792,0,0,0-.659,1.533ZM97.69-.361a6.1,6.1,0,0,1-3.018.605,5.1,5.1,0,0,1-3.73-1.4,4.823,4.823,0,0,1-1.426-3.6,5.313,5.313,0,0,1,1.528-4.019,5.648,5.648,0,0,1,4.087-1.47,5.244,5.244,0,0,1,2.559.469v2.617a3.518,3.518,0,0,0-2.158-.723,2.844,2.844,0,0,0-2.1.776,2.9,2.9,0,0,0-.776,2.144,2.85,2.85,0,0,0,.742,2.085,2.728,2.728,0,0,0,2.041.757,4.073,4.073,0,0,0,2.256-.723Zm8.066.244A4.561,4.561,0,0,1,103.7.244q-3.262,0-3.262-3.389v-4.58H98.813V-10h1.621v-2.158l3.076-.879V-10h2.246v2.275h-2.246v4.043q0,1.563,1.24,1.563a2.091,2.091,0,0,0,1.006-.283Zm6.426.361a5.376,5.376,0,0,1-3.931-1.4,5.081,5.081,0,0,1-1.431-3.8,5.081,5.081,0,0,1,1.484-3.882,5.609,5.609,0,0,1,4.014-1.4,5.311,5.311,0,0,1,3.906,1.4,4.981,4.981,0,0,1,1.416,3.706,5.288,5.288,0,0,1-1.46,3.936A5.435,5.435,0,0,1,112.183.244Zm.078-8.125a2.058,2.058,0,0,0-1.7.752A3.316,3.316,0,0,0,109.956-5q0,2.881,2.324,2.881,2.217,0,2.217-2.959Q114.5-7.881,112.261-7.881Z" transform="translate(1020.257 1488.84)" fill="#12263f"/>
    <g id="Trazado_907164" data-name="Trazado 907164" transform="translate(788.832 1650.695)" fill="none">
      <path d="M16,0H249.682a16,16,0,0,1,16,16V27a16,16,0,0,1-16,16H16A16,16,0,0,1,0,27V16A16,16,0,0,1,16,0Z" stroke="none"/>
      <path d="M 15.99998474121094 1 C 11.99334716796875 1 8.226531982421875 2.560268402099609 5.393402099609375 5.393398284912109 C 2.56024169921875 8.226531982421875 1 11.99336624145508 1 16 L 1 27 C 1 31.00663375854492 2.56024169921875 34.77346801757812 5.393402099609375 37.60659790039062 C 8.226531982421875 40.43973159790039 11.99334716796875 42 15.99998474121094 42 L 249.6816253662109 42 C 253.6882934570312 42 257.455078125 40.43973159790039 260.2882080078125 37.60659790039062 C 263.1213684082031 34.77346801757812 264.6816101074219 31.00666809082031 264.6816101074219 27 L 264.6816101074219 16 C 264.6816101074219 11.99333381652832 263.1213684082031 8.226531982421875 260.2882080078125 5.393398284912109 C 257.455078125 2.560268402099609 253.6882934570312 1 249.6816253662109 1 L 15.99998474121094 1 M 15.99998474121094 0 L 249.6816253662109 0 C 258.5181884765625 0 265.6816101074219 7.163433074951172 265.6816101074219 16 L 265.6816101074219 27 C 265.6816101074219 35.83656692504883 258.5181884765625 43 249.6816253662109 43 L 15.99998474121094 43 C 7.1634521484375 43 0 35.83656692504883 0 27 L 0 16 C 0 7.163433074951172 7.1634521484375 0 15.99998474121094 0 Z" stroke="none" fill="#ffd75e"/>
    </g>
    <g id="Trazado_907162" data-name="Trazado 907162" transform="translate(876.509 1548.043)" fill="none">
      <path d="M16,0H240.748a16,16,0,0,1,16,16V40.3a16,16,0,0,1-16,16H16a16,16,0,0,1-16-16V16A16,16,0,0,1,16,0Z" stroke="none"/>
      <path d="M 15.99998474121094 1.000011444091797 C 11.99331665039062 1.000011444091797 8.226516723632812 2.560276031494141 5.393386840820312 5.393409729003906 C 2.560256958007812 8.226543426513672 0.9999847412109375 11.99334335327148 0.9999847412109375 16.0000114440918 L 0.9999847412109375 40.30467987060547 C 0.9999847412109375 44.31134414672852 2.560256958007812 48.07814407348633 5.393386840820312 50.91127777099609 C 8.226516723632812 53.74441146850586 11.99331665039062 55.3046760559082 15.99998474121094 55.3046760559082 L 240.7480621337891 55.3046760559082 C 244.7546844482422 55.3046760559082 248.5215301513672 53.74441146850586 251.3546600341797 50.91127777099609 C 254.1877899169922 48.07814407348633 255.7480621337891 44.31130981445312 255.7480621337891 40.30467987060547 L 255.7480621337891 16.0000114440918 C 255.7480621337891 11.99337768554688 254.1877899169922 8.226543426513672 251.3546600341797 5.393409729003906 C 248.5215301513672 2.560276031494141 244.7546844482422 1.000011444091797 240.7480621337891 1.000011444091797 L 15.99998474121094 1.000011444091797 M 15.99998474121094 1.1444091796875e-05 L 240.7480621337891 1.1444091796875e-05 C 249.5845947265625 1.1444091796875e-05 256.748046875 7.163444519042969 256.748046875 16.0000114440918 L 256.748046875 40.30467987060547 C 256.748046875 49.14124298095703 249.5845947265625 56.3046760559082 240.7480621337891 56.3046760559082 L 15.99998474121094 56.3046760559082 C 7.163421630859375 56.3046760559082 0 49.14124298095703 0 40.30467987060547 L 0 16.0000114440918 C 0 7.163444519042969 7.163421630859375 1.1444091796875e-05 15.99998474121094 1.1444091796875e-05 Z" stroke="none" fill="#adecd1"/>
    </g>
    <g id="Trazado_907160" data-name="Trazado 907160" transform="translate(886.509 1461.695)" fill="none">
      <path d="M16,0H249.682a16,16,0,0,1,16,16V27a16,16,0,0,1-16,16H16A16,16,0,0,1,0,27V16A16,16,0,0,1,16,0Z" stroke="none"/>
      <path d="M 15.99998474121094 1 C 11.99334716796875 1 8.226531982421875 2.560268402099609 5.393402099609375 5.393398284912109 C 2.56024169921875 8.226531982421875 1 11.99336624145508 1 16 L 1 27 C 1 31.00663375854492 2.56024169921875 34.77346801757812 5.393402099609375 37.60659790039062 C 8.226531982421875 40.43973159790039 11.99334716796875 42 15.99998474121094 42 L 249.6816253662109 42 C 253.6882934570312 42 257.455078125 40.43973159790039 260.2882080078125 37.60659790039062 C 263.1213684082031 34.77346801757812 264.6816101074219 31.00666809082031 264.6816101074219 27 L 264.6816101074219 16 C 264.6816101074219 11.99333381652832 263.1213684082031 8.226531982421875 260.2882080078125 5.393398284912109 C 257.455078125 2.560268402099609 253.6882934570312 1 249.6816253662109 1 L 15.99998474121094 1 M 15.99998474121094 0 L 249.6816253662109 0 C 258.5181884765625 0 265.6816101074219 7.163433074951172 265.6816101074219 16 L 265.6816101074219 27 C 265.6816101074219 35.83656692504883 258.5181884765625 43 249.6816253662109 43 L 15.99998474121094 43 C 7.1634521484375 43 0 35.83656692504883 0 27 L 0 16 C 0 7.163433074951172 7.1634521484375 0 15.99998474121094 0 Z" stroke="none" fill="#a0c9f6"/>
    </g>
    <g id="Grupo_1099806" data-name="Grupo 1099806" transform="translate(616.257 1682.86) rotate(-90)">
      <path id="Trazado_873496" data-name="Trazado 873496" d="M0,0V163.332" transform="translate(10.664)" fill="none" stroke="#ffd75e" stroke-width="2"/>
      <g id="Grupo_1099075" data-name="Grupo 1099075" transform="translate(0 147.551)">
        <g id="Grupo_1099074" data-name="Grupo 1099074" clip-path="url(#clip-path-6)">
          <path id="Trazado_873497" data-name="Trazado 873497" d="M20.668,0A21.249,21.249,0,0,0,10.334,18.241,21.248,21.248,0,0,0,0,0" transform="translate(0.33 0.551)" fill="none" stroke="#ffd75e" stroke-miterlimit="10" stroke-width="2"/>
        </g>
      </g>
    </g>
    <g id="Grupo_1099807" data-name="Grupo 1099807" transform="translate(710.165 1586.86) rotate(-90)">
      <path id="Trazado_873496-2" data-name="Trazado 873496" d="M0,0V154.323" transform="translate(10.664)" fill="none" stroke="#adecd1" stroke-width="2"/>
      <g id="Grupo_1099075-2" data-name="Grupo 1099075" transform="translate(0 138.542)">
        <g id="Grupo_1099074-2" data-name="Grupo 1099074" clip-path="url(#clip-path-7)">
          <path id="Trazado_873497-2" data-name="Trazado 873497" d="M20.668,0A21.249,21.249,0,0,0,10.334,18.241,21.248,21.248,0,0,0,0,0" transform="translate(0.33 0.551)" fill="none" stroke="#adecd1" stroke-miterlimit="10" stroke-width="2"/>
        </g>
      </g>
    </g>
    <g id="Grupo_1099808" data-name="Grupo 1099808" transform="translate(808.962 1487.36) rotate(-90)">
      <path id="Trazado_873496-3" data-name="Trazado 873496" d="M0,0V64.535" transform="translate(10.664)" fill="none" stroke="#a0c9f6" stroke-width="2"/>
      <g id="Grupo_1099075-3" data-name="Grupo 1099075" transform="translate(0 48.754)">
        <g id="Grupo_1099074-3" data-name="Grupo 1099074" clip-path="url(#clip-path-8)">
          <path id="Trazado_873497-3" data-name="Trazado 873497" d="M20.668,0A21.249,21.249,0,0,0,10.334,18.241,21.248,21.248,0,0,0,0,0" transform="translate(0.33 0.551)" fill="none" stroke="#a0c9f6" stroke-miterlimit="10" stroke-width="2"/>
        </g>
      </g>
    </g>
    <g id="Grupo_1099804" data-name="Grupo 1099804" transform="translate(505.449 1338.048) rotate(-3)">
      <g id="Grupo_1099803" data-name="Grupo 1099803" transform="translate(0)" clip-path="url(#clip-path-9)">
        <path id="Trazado_874410" data-name="Trazado 874410" d="M38.827,3.607c8.9,4.967,7.994,10.634-2.505,15.86-10.619,5.287-21.344,5.412-30.245.445S-1.938,9.332,8.681,4.044c10.5-5.227,21.242-5.4,30.146-.437M16.517,14.715c6.221,3.471,10.555,4.062,14.789,1.954,4.177-2.078,3.3-4.393-2.919-7.863-6.258-3.493-10.555-4.062-14.73-1.984-4.236,2.109-3.4,4.4,2.86,7.893" transform="translate(0.001 290.413)" fill="#fff"/>
        <path id="Trazado_874411" data-name="Trazado 874411" d="M18.969,0,46.22,15.206,35.3,20.64,13.883,8.688,5.83,12.7,0,9.444Z" transform="translate(29.005 275.101)" fill="#fff"/>
        <path id="Trazado_874412" data-name="Trazado 874412" d="M39.368,4.31c8.568,5.386,7.3,11-3.52,15.715C24.906,24.793,14.189,24.4,5.621,19.017S-1.7,8.068,9.241,3.3C20.059-1.416,30.8-1.076,39.368,4.31M16.378,14.328c5.989,3.764,10.276,4.563,14.641,2.664C35.322,15.115,34.6,12.764,28.61,9,22.587,5.212,18.332,4.436,14.03,6.312c-4.365,1.9-3.677,4.228,2.349,8.016" transform="translate(91.951 197.021)" fill="#fff"/>
        <path id="Trazado_874413" data-name="Trazado 874413" d="M25.05,7.229c-1.422-.895-4.029-.635-7.164.732a19.966,19.966,0,0,0-8.594,7.291L0,13.923A34.524,34.524,0,0,1,13.859,3.663C22.587-.141,31.688-1.16,35.841,1.45c2.845,1.788,2.234,5.2.4,9.149l-3.461,7.244,18.44-8.035,5.5,3.458L23.893,27.571l-4.59-2.82,5.87-12.994c.9-1.987,1-3.823-.124-4.528" transform="translate(125.474 179.877)" fill="#fff"/>
        <path id="Trazado_874414" data-name="Trazado 874414" d="M39.368,4.31c8.57,5.386,7.3,11-3.52,15.717C24.906,24.794,14.19,24.4,5.621,19.017S-1.7,8.068,9.241,3.3C20.059-1.416,30.8-1.076,39.368,4.31M16.378,14.328c5.989,3.764,10.276,4.563,14.641,2.664C35.322,15.116,34.6,12.763,28.61,9,22.587,5.211,18.332,4.436,14.03,6.309c-4.363,1.9-3.677,4.231,2.349,8.019" transform="translate(199.988 105.889)" fill="#fff"/>
        <path id="Trazado_874415" data-name="Trazado 874415" d="M50.2,10.332c5.051,3.176,1.749,8.361-8.948,13.023a72.125,72.125,0,0,1-20.183,5.369l-.731-5.3a40.194,40.194,0,0,0,14.813-2.989c4.736-2.064,6.179-3.968,4.12-5.262-2.094-1.317-5.823-.849-10.617,1.241L21.4,19.577l-3.668-2.3,4.206-8.088-16.6,7.233L0,13.126,30.12,0l3.968,2.495-5.033,9.2,2.339-.82c7.459-2.573,14.8-3.062,18.8-.545" transform="translate(231.209 86.721)" fill="#fff"/>
      </g>
    </g>
  </g>
</svg>
