<svg xmlns="http://www.w3.org/2000/svg" xmlns:xlink="http://www.w3.org/1999/xlink" width="335.667" height="304" viewBox="0 0 335.667 304">
  <defs>
    <clipPath id="clip-path">
      <path id="Trazado_874381" data-name="Trazado 874381" d="M4.832,0h326c2.668,0,4.832,5.1,4.832,11.393V292.608c0,6.292-2.163,11.392-4.832,11.392h-326C2.163,304,0,298.9,0,292.608V11.393C0,5.1,2.163,0,4.832,0Z" transform="translate(0 0)" fill="#f6f6f6"/>
    </clipPath>
    <clipPath id="clip-path-2">
      <path id="Trazado_874362" data-name="Trazado 874362" d="M59.86,43.462l754.908,103.92,94.172,489.063L154.033,532.526Z" fill="#fff"/>
    </clipPath>
    <clipPath id="clip-path-3">
      <path id="Trazado_874367" data-name="Trazado 874367" d="M468.05,94.063C328.863,94.376,204.4,128.952,125.2,195.2c-20.163,16.878-37.674,36.2-42.9,60.3s3.407,53.765,29.653,78.106c33.882,31.425,87.118,46.744,142.608,62.542-15.588,3.113-19.983,17.462-12.389,30.691,16.227,28.276,61.215,39.919,97.656,44.164,121.447,14.144,226.344-13.695,313.816-52.582,45.953-20.431,88.987-44.367,117.659-77.3,18.839-21.639,31.156-55.432-6.868-83.4-17.54-12.9-45.025-19.141-59.982-9.857,23.4-17.55,17.485-52.18-8.043-80.007s-66.971-48.774-107.907-60.032a356.652,356.652,0,0,0-45.947-9.334C517.245,95,492.273,94.009,468.05,94.063" fill="#fff"/>
    </clipPath>
    <clipPath id="clip-path-4">
      <path id="Trazado_874369" data-name="Trazado 874369" d="M0,0,776.852-74.8,709.069,394.379l-776.852,74.8Z" fill="#fff"/>
    </clipPath>
    <clipPath id="clip-path-5">
      <path id="Trazado_874374" data-name="Trazado 874374" d="M429.749-50.329C279.779-16.966,133.808,47.338,25.623,132.727c-27.548,21.751-53.084,45.324-67.049,70.792s-14.93,53.228,4.909,71.46c25.61,23.539,77.629,26.3,131.909,29-17.86,6.83-27.556,22.3-23.956,33.788,7.69,24.566,52.1,25.586,89.867,21.2,125.868-14.621,248.439-67.507,356.071-127.361,56.544-31.445,111.158-65.72,153.422-105.631,27.768-26.221,52.72-63.11,21.456-82.192-14.422-8.8-41.856-8.547-61.172,4.335,31.27-23.2,36.877-56.6,19.017-78.5S594.862-63.5,554.681-65.1a342.727,342.727,0,0,0-46.242,1.528c-26.046,2.5-52.591,7.436-78.69,13.242" fill="#fff"/>
    </clipPath>
    <clipPath id="clip-path-6">
      <rect id="Rectángulo_401216" data-name="Rectángulo 401216" width="12.178" height="10.73" fill="none" stroke="#ffd75e" stroke-width="1"/>
    </clipPath>
    <clipPath id="clip-path-7">
      <rect id="Rectángulo_401216-2" data-name="Rectángulo 401216" width="12.178" height="10.73" fill="none" stroke="#adecd1" stroke-width="1"/>
    </clipPath>
    <clipPath id="clip-path-8">
      <rect id="Rectángulo_401216-3" data-name="Rectángulo 401216" width="12.178" height="10.73" fill="none" stroke="#a0c9f6" stroke-width="1"/>
    </clipPath>
    <clipPath id="clip-path-9">
      <rect id="Rectángulo_401459" data-name="Rectángulo 401459" width="223.883" height="179.258" fill="none"/>
    </clipPath>
  </defs>
  <g id="Grupo_1100707" data-name="Grupo 1100707" transform="translate(5487.496 10236)">
    <g id="Enmascarar_grupo_1098725" data-name="Enmascarar grupo 1098725" transform="translate(-5487.496 -10236)" clip-path="url(#clip-path)">
      <path id="Trazado_874360" data-name="Trazado 874360" d="M5.048,0H345.634c2.788,0,5.048,5.557,5.048,12.413v306.4c0,6.855-2.26,12.413-5.048,12.413H5.048C2.26,331.228,0,325.671,0,318.815V12.413C0,5.557,2.26,0,5.048,0Z" transform="translate(-5.681 -10.073)" fill="#f6f6f6"/>
      <g id="Grupo_1099742" data-name="Grupo 1099742" transform="matrix(-0.927, 0.375, -0.375, -0.927, 1038.129, 326.816)" opacity="0.49" style="isolation: isolate">
        <g id="Grupo_1099739" data-name="Grupo 1099739" transform="translate(0 0)">
          <g id="Grupo_1099738" data-name="Grupo 1099738" clip-path="url(#clip-path-2)">
            <path id="Trazado_874361" data-name="Trazado 874361" d="M704.455,247.864c23.4-17.55,17.479-52.181-8.043-80.007s-66.978-48.775-107.907-60.032S506.841,93.973,468.049,94.059C328.862,94.377,204.39,128.951,125.2,195.2c-20.164,16.873-37.681,36.195-42.9,60.3s3.406,53.76,29.652,78.1c33.875,31.424,87.119,46.749,142.609,62.547-15.6,3.112-19.984,17.457-12.39,30.691,16.227,28.276,61.208,39.918,97.649,44.163,121.454,14.145,226.35-13.7,313.816-52.583,45.953-20.431,88.987-44.367,117.659-77.3,18.845-21.643,31.163-55.431-6.862-83.4-17.539-12.9-45.024-19.136-59.981-9.852" transform="translate(66.334 64.55)" fill="#fff"/>
          </g>
        </g>
        <g id="Grupo_1099741" data-name="Grupo 1099741" transform="translate(66.334 64.551)">
          <g id="Grupo_1099740" data-name="Grupo 1099740" transform="translate(0 0)" clip-path="url(#clip-path-3)">
            <path id="Trazado_874363" data-name="Trazado 874363" d="M67.494,233.34s388.59,104.576,269.848-172.32" transform="translate(-18.453 15.528)" fill="#fff"/>
            <path id="Trazado_874364" data-name="Trazado 874364" d="M104.85,362.49s353.526,126.8,409.134-269.516" transform="translate(-35.707 -9.536)" fill="#fff"/>
            <path id="Trazado_874365" data-name="Trazado 874365" d="M148.654,513.93s222.273,47.023,313.9-135.41S529.522,95.784,529.522,95.784" transform="translate(66.663 -31.323)" fill="#fff"/>
            <path id="Trazado_874366" data-name="Trazado 874366" d="M311.442,56.336S334.857,234.5,91.993,318.042" transform="translate(433.943 159.221)" fill="#fff"/>
          </g>
        </g>
      </g>
      <ellipse id="Elipse_11549" data-name="Elipse 11549" cx="212.618" cy="132.577" rx="212.618" ry="132.577" transform="translate(6.565 -94.421)" fill="#e8e8e8" opacity="0.37" style="mix-blend-mode: multiply;isolation: isolate"/>
      <ellipse id="Elipse_11550" data-name="Elipse 11550" cx="212.758" cy="132.878" rx="212.758" ry="132.878" transform="translate(-206.313 89.202)" fill="#fff" opacity="0.65"/>
      <ellipse id="Elipse_11551" data-name="Elipse 11551" cx="212.758" cy="132.878" rx="212.758" ry="132.878" transform="translate(261.021 -45.675)" fill="#fff" opacity="0.65"/>
      <g id="Grupo_1099747" data-name="Grupo 1099747" transform="translate(115.515 385.686) rotate(-165)" opacity="0.3" style="isolation: isolate">
        <g id="Grupo_1099744" data-name="Grupo 1099744" transform="translate(0 0)">
          <g id="Grupo_1099743" data-name="Grupo 1099743" clip-path="url(#clip-path-4)">
            <path id="Trazado_874368" data-name="Trazado 874368" d="M631.08,48.12c31.27-23.2,36.87-56.6,19.017-78.5S594.854-63.5,554.681-65.1s-83.135,5.468-124.932,14.765C279.779-16.964,133.8,47.34,25.622,132.729c-27.547,21.746-53.091,45.325-67.049,70.792s-14.93,53.223,4.909,71.455c25.6,23.54,77.629,26.3,131.908,29-17.868,6.831-27.555,22.29-23.956,33.788,7.69,24.566,52.094,25.587,89.86,21.2,125.875-14.621,248.447-67.512,356.071-127.361,56.544-31.445,111.158-65.72,153.423-105.631,27.777-26.227,52.727-63.111,21.463-82.2-14.422-8.8-41.857-8.542-61.173,4.34" transform="translate(41.332 53.391)" fill="#fff"/>
          </g>
        </g>
        <g id="Grupo_1099746" data-name="Grupo 1099746" transform="translate(41.332 53.393)">
          <g id="Grupo_1099745" data-name="Grupo 1099745" transform="translate(0 0)" clip-path="url(#clip-path-5)">
            <path id="Trazado_874370" data-name="Trazado 874370" d="M-44.1,198.882s382.214,12.839,350.15-237.264" transform="translate(-30.844 5.867)" fill="#fff"/>
            <path id="Trazado_874371" data-name="Trazado 874371" d="M-68.673,309.7S268.1,353.2,465.068-58.324" transform="translate(-20.632 -5.113)" fill="#fff"/>
            <path id="Trazado_874372" data-name="Trazado 874372" d="M-100.613,453.746S122.439,448.23,284.2,243.118,454.108-56.949,454.108-56.949" transform="translate(123.842 -53.556)" fill="#fff"/>
            <path id="Trazado_874373" data-name="Trazado 874373" d="M264.279-33.143S227.857,140.365-62.529,281.993" transform="translate(422.047 39.072)" fill="#fff"/>
          </g>
        </g>
      </g>
      <g id="Grupo_1099748" data-name="Grupo 1099748" transform="translate(-170.382 -142.69)">
        <path id="Trazado_874375" data-name="Trazado 874375" d="M500.176,365.419S367.1,62.055,3.491,10.679" transform="translate(474.38 470.465) rotate(-43)" fill="none" stroke="#e8e8e8" stroke-linecap="round" stroke-linejoin="round" stroke-width="1"/>
        <path id="Trazado_874376" data-name="Trazado 874376" d="M69.494,21.727S-23.9,84.759,85.3,173.436" transform="translate(848.826 253.125) rotate(-43)" fill="none" stroke="#e8e8e8" stroke-linecap="round" stroke-linejoin="round" stroke-width="1"/>
        <path id="Trazado_874377" data-name="Trazado 874377" d="M397.758,124.359c10.256,93.675-20.1,96.563-85.038,86.641s-36.839,60.037-153.946-11.886S21.66,66.25,21.66,66.25" transform="translate(0 180.32) rotate(-43)" fill="none" stroke="#e8e8e8" stroke-linecap="round" stroke-linejoin="round" stroke-width="1"/>
        <path id="Trazado_874378" data-name="Trazado 874378" d="M119.428,37.339s81.072,77.54,46.141,100.694S16.39,50.131,16.39,50.131" transform="translate(99.649 138.889) rotate(-43)" fill="none" stroke="#e8e8e8" stroke-linecap="round" stroke-linejoin="round" stroke-width="1"/>
        <path id="Trazado_874379" data-name="Trazado 874379" d="M207,158.055C194.635,85.7,89.036-4.317,7.564,23.135" transform="translate(594.211 444.943) rotate(-43)" fill="none" stroke="#e8e8e8" stroke-linecap="round" stroke-linejoin="round" stroke-width="1"/>
        <path id="Trazado_874380" data-name="Trazado 874380" d="M265.582,90.225c-23.13,1.155-41.21,13.179-42.148,34.055s18.5,50.34,39.646,63.15c-29.542-13.982-59.346-28.067-88.838-37.023s-59.043-12.51-80.9-4.986S58.6,172.91,65.156,198.785c7.616,30.035,37.973,60.563,67.482,86.523,86.129,75.768,183.943,140.986,284.186,187.011C448.668,486.939,483.813,500,508.1,492.9c23.21-6.785,30.4-31.5,23.66-58.11s-25.375-54.726-46.693-80.724-45.627-50.678-67.77-75.3c15.632,3.992,31.445,8.013,45.954,8.58s27.807-2.67,34.277-11.767c7.722-10.857,4.565-28.823-4.812-45.759s-24.28-32.985-40.162-47.555c-32.775-30.063-71.04-55.434-110.032-72.952-15.143-6.8-30.638-12.469-45.465-15.841a117.105,117.105,0,0,0-31.472-3.249" transform="translate(300.465 323.032) rotate(-43)" fill="none"/>
      </g>
    </g>
    <path id="Trazado_874385" data-name="Trazado 874385" d="M294.77,0,227.637,4.187,282.493,35Z" transform="translate(-5499.664 -10156.356)" fill="#a0c9f6"/>
    <path id="Trazado_874387" data-name="Trazado 874387" d="M296.071,0,283.794,35v9.355L296.071,6.028Z" transform="translate(-5500.965 -10156.356)" fill="#50657b"/>
    <path id="Trazado_874392" data-name="Trazado 874392" d="M56.822,152.9,111.7,184.5v9.978l-54.945-32.2Z" transform="translate(-5495.046 -10160.342)" fill="#ffd75e" opacity="0.76"/>
    <path id="Trazado_874393" data-name="Trazado 874393" d="M113.172,194.465,168.6,161.76v-9.355l-55.433,32.082Z" transform="translate(-5496.517 -10160.329)" fill="#b19540"/>
    <path id="Trazado_874394" data-name="Trazado 874394" d="M56.824,152.061,112.049,120.6l55.086,30.973L111.7,183.658Z" transform="translate(-5495.048 -10159.5)" fill="#ffd75e"/>
    <path id="Trazado_874398" data-name="Trazado 874398" d="M113.676,94.66l54.879,31.6v9.978l-54.945-32.2Z" transform="translate(-5496.528 -10158.823)" fill="#667b72" opacity="0.69"/>
    <path id="Trazado_874399" data-name="Trazado 874399" d="M170.026,136.221l55.433-32.705V94.161l-55.433,32.082Z" transform="translate(-5497.999 -10158.811)" fill="#8fada0" opacity="0.68"/>
    <path id="Trazado_874400" data-name="Trazado 874400" d="M113.678,93.817,168.9,62.359,223.99,93.332l-55.433,32.082Z" transform="translate(-5496.53 -10157.981)" fill="#adecd1"/>
    <path id="Trazado_874402" data-name="Trazado 874402" d="M170.085,161.243l7.982-4.345v-24.47l-8.038,4.781Z" transform="translate(-5497.999 -10159.809)" fill="#b19540"/>
    <path id="Trazado_874403" data-name="Trazado 874403" d="M113.61,120.2V104.277l54.948,32.2.116,14.709Z" transform="translate(-5496.528 -10159.074)" fill="#ffd75e"/>
    <path id="Trazado_874404" data-name="Trazado 874404" d="M170.526,36.433l54.879,31.6v9.978l-54.945-32.2Z" transform="translate(-5498.01 -10157.305)" fill="#6f8dac"/>
    <path id="Trazado_874405" data-name="Trazado 874405" d="M226.876,78,282.309,45.29V35.935L226.876,68.017Z" transform="translate(-5499.481 -10157.292)" fill="#50657b"/>
    <path id="Trazado_874406" data-name="Trazado 874406" d="M170.528,35.591,225.754,4.132,280.84,35.106,225.407,67.188Z" transform="translate(-5498.013 -10156.463)" fill="#a0c9f6"/>
    <path id="Trazado_874408" data-name="Trazado 874408" d="M226.935,103.017l7.982-4.345V74.2l-8.038,4.781Z" transform="translate(-5499.481 -10158.29)" fill="#8fada0" opacity="0.68"/>
    <path id="Trazado_874409" data-name="Trazado 874409" d="M170.461,61.975V46.051l54.948,32.2.116,14.708Z" transform="translate(-5498.01 -10157.557)" fill="#adecd1"/>
    <g id="Grupo_1100789" data-name="Grupo 1100789">
      <path id="Trazado_907172" data-name="Trazado 907172" d="M-40.605-3.618V0h-2.366V-10.5h3.706q3.97,0,3.97,3.347A3.212,3.212,0,0,1-36.434-4.6a4.512,4.512,0,0,1-3.043.978Zm0-5.068v3.274h.93q1.89,0,1.89-1.655,0-1.619-1.89-1.619Zm11.514,3.274a2.008,2.008,0,0,0-.974-.227,1.4,1.4,0,0,0-1.179.553,2.412,2.412,0,0,0-.425,1.505V0h-2.314V-7.5h2.314v1.392h.029a2,2,0,0,1,1.978-1.523,1.49,1.49,0,0,1,.571.088Zm7.756,2.322h-4.893q.117,1.633,2.058,1.633a4.018,4.018,0,0,0,2.175-.586v1.67a5.715,5.715,0,0,1-2.7.557,3.8,3.8,0,0,1-2.82-1.007,3.8,3.8,0,0,1-1-2.809,4.014,4.014,0,0,1,1.084-2.959,3.611,3.611,0,0,1,2.666-1.091,3.278,3.278,0,0,1,2.538.974,3.751,3.751,0,0,1,.9,2.644Zm-2.146-1.421q0-1.611-1.3-1.611a1.245,1.245,0,0,0-.963.461,2.094,2.094,0,0,0-.494,1.15Zm5.867,3.64h-.029V3.45h-2.314V-7.5h2.314v1.128h.029a2.721,2.721,0,0,1,2.41-1.311,2.711,2.711,0,0,1,2.252,1,4.257,4.257,0,0,1,.795,2.721,4.614,4.614,0,0,1-.927,3.01A3.021,3.021,0,0,1-15.549.183,2.335,2.335,0,0,1-17.615-.872Zm-.066-3.076v.6a1.909,1.909,0,0,0,.41,1.267,1.335,1.335,0,0,0,1.077.491A1.419,1.419,0,0,0-14.967-2.2a2.953,2.953,0,0,0,.436-1.732q0-1.978-1.538-1.978a1.444,1.444,0,0,0-1.161.538A2.147,2.147,0,0,0-17.681-3.948ZM-4.563,0h-2.19V-1.077h-.029A2.444,2.444,0,0,1-9.016.183a2.337,2.337,0,0,1-1.718-.619,2.218,2.218,0,0,1-.626-1.652q0-2.183,2.585-2.52l2.036-.271q0-1.23-1.333-1.23a4.55,4.55,0,0,0-2.549.8V-7.053A5.734,5.734,0,0,1-9.3-7.493a6.949,6.949,0,0,1,1.527-.19q3.208,0,3.208,3.2ZM-6.738-3.047v-.505L-8.1-3.376q-1.128.146-1.128,1.018a.841.841,0,0,0,.275.648,1.055,1.055,0,0,0,.743.253,1.37,1.37,0,0,0,1.062-.45A1.627,1.627,0,0,0-6.738-3.047Zm8.9-2.366a2.008,2.008,0,0,0-.974-.227,1.4,1.4,0,0,0-1.179.553A2.412,2.412,0,0,0-.417-3.582V0H-2.732V-7.5H-.417v1.392h.029A2,2,0,0,1,1.589-7.632a1.49,1.49,0,0,1,.571.088ZM9.478,0H7.288V-1.077H7.258A2.444,2.444,0,0,1,5.024.183,2.337,2.337,0,0,1,3.307-.436a2.218,2.218,0,0,1-.626-1.652q0-2.183,2.585-2.52L7.3-4.878q0-1.23-1.333-1.23a4.55,4.55,0,0,0-2.549.8V-7.053a5.734,5.734,0,0,1,1.322-.439,6.949,6.949,0,0,1,1.527-.19q3.208,0,3.208,3.2ZM7.3-3.047v-.505L5.94-3.376Q4.812-3.23,4.812-2.358a.841.841,0,0,0,.275.648,1.055,1.055,0,0,0,.743.253,1.37,1.37,0,0,0,1.062-.45A1.627,1.627,0,0,0,7.3-3.047Zm9.69,2.776a4.576,4.576,0,0,1-2.263.454,3.828,3.828,0,0,1-2.8-1.047,3.617,3.617,0,0,1-1.069-2.7,3.985,3.985,0,0,1,1.146-3.014,4.236,4.236,0,0,1,3.065-1.1,3.933,3.933,0,0,1,1.919.352v1.963a2.638,2.638,0,0,0-1.619-.542,2.133,2.133,0,0,0-1.578.582,2.173,2.173,0,0,0-.582,1.608,2.137,2.137,0,0,0,.557,1.564,2.046,2.046,0,0,0,1.531.568,3.055,3.055,0,0,0,1.692-.542ZM19.68-8.687a1.352,1.352,0,0,1-.959-.348,1.121,1.121,0,0,1-.374-.853,1.081,1.081,0,0,1,.374-.85,1.4,1.4,0,0,1,.959-.33,1.393,1.393,0,0,1,.963.33,1.086,1.086,0,0,1,.37.85,1.116,1.116,0,0,1-.37.864A1.375,1.375,0,0,1,19.68-8.687ZM20.823,0H18.508V-7.5h2.314Zm5.522.183A4.032,4.032,0,0,1,23.4-.868a3.81,3.81,0,0,1-1.073-2.853,3.811,3.811,0,0,1,1.113-2.911,4.207,4.207,0,0,1,3.01-1.051,3.983,3.983,0,0,1,2.93,1.051,3.736,3.736,0,0,1,1.062,2.78A3.966,3.966,0,0,1,29.344-.9,4.076,4.076,0,0,1,26.345.183ZM26.4-5.911a1.544,1.544,0,0,0-1.274.564,2.487,2.487,0,0,0-.454,1.6q0,2.161,1.743,2.161,1.663,0,1.663-2.219Q28.081-5.911,26.4-5.911Zm2.483-5.142L26.594-8.687h-1.67l1.9-2.366ZM39.177,0H36.87V-4.167q0-1.743-1.245-1.743a1.235,1.235,0,0,0-.989.461,1.758,1.758,0,0,0-.388,1.172V0H31.934V-7.5h2.314v1.187h.029a2.652,2.652,0,0,1,2.41-1.37q2.49,0,2.49,3.091ZM-35.874,18h-2.314V16.967h-.029a2.6,2.6,0,0,1-2.322,1.216,2.843,2.843,0,0,1-2.263-.992,4.108,4.108,0,0,1-.857-2.772,4.471,4.471,0,0,1,.945-2.981,3.082,3.082,0,0,1,2.476-1.121,2.106,2.106,0,0,1,2.021,1.04h.029V6.9h2.314Zm-2.271-3.647v-.564a1.775,1.775,0,0,0-.425-1.216,1.4,1.4,0,0,0-1.106-.483,1.394,1.394,0,0,0-1.2.6,2.806,2.806,0,0,0-.432,1.659,2.428,2.428,0,0,0,.417,1.523,1.386,1.386,0,0,0,1.157.535,1.392,1.392,0,0,0,1.146-.564A2.351,2.351,0,0,0-38.145,14.353Zm10.957.557H-32.08q.117,1.633,2.058,1.633a4.018,4.018,0,0,0,2.175-.586v1.67a5.715,5.715,0,0,1-2.7.557,3.8,3.8,0,0,1-2.82-1.007,3.8,3.8,0,0,1-1-2.809,4.014,4.014,0,0,1,1.084-2.959,3.611,3.611,0,0,1,2.666-1.091,3.278,3.278,0,0,1,2.538.974,3.751,3.751,0,0,1,.9,2.644Zm-2.146-1.421q0-1.611-1.3-1.611a1.245,1.245,0,0,0-.963.461,2.094,2.094,0,0,0-.494,1.15ZM-23.5,18h-2.314V6.9H-23.5Zm8.43-.872H-15.1V21.45H-17.41V10.5H-15.1v1.128h.029a2.721,2.721,0,0,1,2.41-1.311,2.711,2.711,0,0,1,2.252,1,4.257,4.257,0,0,1,.795,2.721,4.614,4.614,0,0,1-.927,3.01A3.021,3.021,0,0,1-13,18.183,2.335,2.335,0,0,1-15.066,17.128Zm-.066-3.076v.6a1.909,1.909,0,0,0,.41,1.267,1.335,1.335,0,0,0,1.077.491,1.419,1.419,0,0,0,1.227-.612,2.953,2.953,0,0,0,.436-1.732q0-1.978-1.538-1.978a1.444,1.444,0,0,0-1.161.538A2.147,2.147,0,0,0-15.132,14.052Zm11.917-1.465a2.008,2.008,0,0,0-.974-.227,1.4,1.4,0,0,0-1.179.553,2.412,2.412,0,0,0-.425,1.505V18H-8.108V10.5h2.314v1.392h.029a2,2,0,0,1,1.978-1.523,1.49,1.49,0,0,1,.571.088Zm4.592,5.6a4.032,4.032,0,0,1-2.948-1.051,3.81,3.81,0,0,1-1.073-2.853,3.811,3.811,0,0,1,1.113-2.911,4.207,4.207,0,0,1,3.01-1.051,3.983,3.983,0,0,1,2.93,1.051,3.736,3.736,0,0,1,1.062,2.78A3.966,3.966,0,0,1,4.376,17.1,4.076,4.076,0,0,1,1.377,18.183Zm.059-6.094a1.544,1.544,0,0,0-1.274.564,2.487,2.487,0,0,0-.454,1.6q0,2.161,1.743,2.161,1.663,0,1.663-2.219Q3.113,12.089,1.436,12.089ZM14.114,10.5l-3.047,8.1q-1.1,2.922-3.311,2.922a4.241,4.241,0,0,1-1.384-.19V19.487a1.946,1.946,0,0,0,1,.271,1.253,1.253,0,0,0,1.245-.842l.4-.93L5.969,10.5H8.533l1.4,4.563a5.93,5.93,0,0,1,.205,1h.029a7,7,0,0,1,.242-.989L11.821,10.5Zm7.522,4.409H16.743q.117,1.633,2.058,1.633a4.018,4.018,0,0,0,2.175-.586v1.67a5.715,5.715,0,0,1-2.7.557,3.8,3.8,0,0,1-2.82-1.007,3.8,3.8,0,0,1-1-2.809,4.014,4.014,0,0,1,1.084-2.959A3.611,3.611,0,0,1,18.2,10.317a3.278,3.278,0,0,1,2.538.974,3.751,3.751,0,0,1,.9,2.644ZM19.49,13.488q0-1.611-1.3-1.611a1.245,1.245,0,0,0-.963.461,2.094,2.094,0,0,0-.494,1.15ZM28.7,17.729a4.576,4.576,0,0,1-2.263.454,3.828,3.828,0,0,1-2.8-1.047,3.617,3.617,0,0,1-1.069-2.7,3.985,3.985,0,0,1,1.146-3.014,4.236,4.236,0,0,1,3.065-1.1,3.933,3.933,0,0,1,1.919.352v1.963a2.638,2.638,0,0,0-1.619-.542,2.133,2.133,0,0,0-1.578.582,2.173,2.173,0,0,0-.582,1.608,2.137,2.137,0,0,0,.557,1.564A2.046,2.046,0,0,0,27,16.411a3.055,3.055,0,0,0,1.692-.542Zm6.05.183a3.421,3.421,0,0,1-1.545.271q-2.446,0-2.446-2.542V12.207H29.539V10.5h1.216V8.881l2.307-.659V10.5h1.685v1.707H33.062v3.032q0,1.172.93,1.172a1.568,1.568,0,0,0,.754-.212Zm4.819.271a4.032,4.032,0,0,1-2.948-1.051,3.81,3.81,0,0,1-1.073-2.853,3.811,3.811,0,0,1,1.113-2.911,4.207,4.207,0,0,1,3.01-1.051,3.983,3.983,0,0,1,2.93,1.051,3.736,3.736,0,0,1,1.062,2.78A3.966,3.966,0,0,1,42.565,17.1,4.076,4.076,0,0,1,39.565,18.183Zm.059-6.094a1.544,1.544,0,0,0-1.274.564,2.487,2.487,0,0,0-.454,1.6q0,2.161,1.743,2.161,1.663,0,1.663-2.219Q41.3,12.089,39.624,12.089Z" transform="translate(-5245.673 -9997.325)" fill="#12263f"/>
      <path id="Trazado_907171" data-name="Trazado 907171" d="M-28.993,0h-6.3V-10.5h6.057v1.926h-3.691V-6.24h3.435v1.919h-3.435v2.4h3.933Zm2.629-8.687a1.352,1.352,0,0,1-.959-.348,1.121,1.121,0,0,1-.374-.853,1.081,1.081,0,0,1,.374-.85,1.4,1.4,0,0,1,.959-.33,1.393,1.393,0,0,1,.963.33,1.086,1.086,0,0,1,.37.85,1.116,1.116,0,0,1-.37.864A1.375,1.375,0,0,1-26.364-8.687Zm1.143,8.555a4.077,4.077,0,0,1-.813,2.659,2.851,2.851,0,0,1-2.344,1,3.241,3.241,0,0,1-1.106-.22V1.487a1.8,1.8,0,0,0,.857.271q1.091,0,1.091-1.714V-7.5h2.314Zm8.687-2.959h-4.893q.117,1.633,2.058,1.633a4.018,4.018,0,0,0,2.175-.586v1.67a5.715,5.715,0,0,1-2.7.557,3.8,3.8,0,0,1-2.82-1.007,3.8,3.8,0,0,1-1-2.809,4.014,4.014,0,0,1,1.084-2.959,3.611,3.611,0,0,1,2.666-1.091,3.278,3.278,0,0,1,2.538.974,3.751,3.751,0,0,1,.9,2.644ZM-18.68-4.512q0-1.611-1.3-1.611a1.245,1.245,0,0,0-.963.461,2.094,2.094,0,0,0-.494,1.15ZM-9.474-.271a4.576,4.576,0,0,1-2.263.454,3.828,3.828,0,0,1-2.8-1.047,3.617,3.617,0,0,1-1.069-2.7,3.985,3.985,0,0,1,1.146-3.014,4.236,4.236,0,0,1,3.065-1.1,3.933,3.933,0,0,1,1.919.352v1.963a2.638,2.638,0,0,0-1.619-.542,2.133,2.133,0,0,0-1.578.582,2.173,2.173,0,0,0-.582,1.608A2.137,2.137,0,0,0-12.7-2.157a2.046,2.046,0,0,0,1.531.568,3.055,3.055,0,0,0,1.692-.542ZM-.831,0H-3.138V-1.143h-.037A2.617,2.617,0,0,1-5.468.183q-2.607,0-2.607-3.157V-7.5h2.307v4.321q0,1.589,1.26,1.589a1.246,1.246,0,0,0,1-.436,1.757,1.757,0,0,0,.374-1.183V-7.5H-.831ZM6.8-.271A4.576,4.576,0,0,1,4.537.183,3.828,3.828,0,0,1,1.74-.864,3.617,3.617,0,0,1,.67-3.567,3.985,3.985,0,0,1,1.816-6.581a4.236,4.236,0,0,1,3.065-1.1A3.933,3.933,0,0,1,6.8-7.332v1.963a2.638,2.638,0,0,0-1.619-.542A2.133,2.133,0,0,0,3.6-5.328a2.173,2.173,0,0,0-.582,1.608,2.137,2.137,0,0,0,.557,1.564,2.046,2.046,0,0,0,1.531.568A3.055,3.055,0,0,0,6.8-2.131ZM9.489-8.687a1.352,1.352,0,0,1-.959-.348,1.121,1.121,0,0,1-.374-.853,1.081,1.081,0,0,1,.374-.85,1.4,1.4,0,0,1,.959-.33,1.393,1.393,0,0,1,.963.33,1.086,1.086,0,0,1,.37.85,1.116,1.116,0,0,1-.37.864A1.375,1.375,0,0,1,9.489-8.687ZM10.631,0H8.317V-7.5h2.314Zm5.522.183A4.032,4.032,0,0,1,13.206-.868a3.81,3.81,0,0,1-1.073-2.853,3.811,3.811,0,0,1,1.113-2.911,4.207,4.207,0,0,1,3.01-1.051,3.983,3.983,0,0,1,2.93,1.051,3.736,3.736,0,0,1,1.062,2.78A3.966,3.966,0,0,1,19.153-.9,4.076,4.076,0,0,1,16.154.183Zm.059-6.094a1.544,1.544,0,0,0-1.274.564,2.487,2.487,0,0,0-.454,1.6q0,2.161,1.743,2.161,1.663,0,1.663-2.219Q17.889-5.911,16.212-5.911ZM18.7-11.052,16.4-8.687h-1.67l1.9-2.366ZM28.986,0H26.678V-4.167q0-1.743-1.245-1.743a1.235,1.235,0,0,0-.989.461,1.758,1.758,0,0,0-.388,1.172V0H21.742V-7.5h2.314v1.187h.029a2.652,2.652,0,0,1,2.41-1.37q2.49,0,2.49,3.091Zm7.683-10.5L31.549,1.743H29.484l5.1-12.246Zm-71.3,19.926h-3V18H-40V9.423h-2.981V7.5h8.35Zm6.577,5.486h-4.893q.117,1.633,2.058,1.633a4.018,4.018,0,0,0,2.175-.586v1.67a5.715,5.715,0,0,1-2.7.557,3.8,3.8,0,0,1-2.82-1.007,3.8,3.8,0,0,1-1-2.809,4.014,4.014,0,0,1,1.084-2.959,3.611,3.611,0,0,1,2.666-1.091,3.278,3.278,0,0,1,2.538.974,3.751,3.751,0,0,1,.9,2.644ZM-30.2,13.488q0-1.611-1.3-1.611a1.245,1.245,0,0,0-.963.461,2.094,2.094,0,0,0-.494,1.15Zm8.416-.9a2.008,2.008,0,0,0-.974-.227,1.4,1.4,0,0,0-1.179.553,2.412,2.412,0,0,0-.425,1.505V18h-2.314V10.5h2.314v1.392h.029a2,2,0,0,1,1.978-1.523,1.49,1.49,0,0,1,.571.088ZM-8.756,18h-2.307V13.723q0-1.633-1.2-1.633a1.1,1.1,0,0,0-.93.491,2.017,2.017,0,0,0-.359,1.223V18h-2.314V13.679q0-1.589-1.179-1.589a1.13,1.13,0,0,0-.948.469,2.063,2.063,0,0,0-.355,1.274V18h-2.314V10.5h2.314v1.172h.029a2.767,2.767,0,0,1,1.007-.978,2.768,2.768,0,0,1,1.417-.377,2.16,2.16,0,0,1,2.175,1.4,2.774,2.774,0,0,1,2.52-1.4q2.446,0,2.446,3.018Zm3-8.687a1.352,1.352,0,0,1-.959-.348,1.121,1.121,0,0,1-.374-.853,1.081,1.081,0,0,1,.374-.85,1.4,1.4,0,0,1,.959-.33,1.393,1.393,0,0,1,.963.33,1.086,1.086,0,0,1,.37.85,1.116,1.116,0,0,1-.37.864A1.375,1.375,0,0,1-5.753,9.313ZM-4.611,18H-6.925V10.5h2.314Zm9.192,0H2.274V13.833q0-1.743-1.245-1.743a1.235,1.235,0,0,0-.989.461,1.758,1.758,0,0,0-.388,1.172V18H-2.662V10.5H-.348v1.187h.029a2.652,2.652,0,0,1,2.41-1.37q2.49,0,2.49,3.091Zm8.071,0h-2.19V16.923h-.029A2.444,2.444,0,0,1,8.2,18.183a2.337,2.337,0,0,1-1.718-.619,2.218,2.218,0,0,1-.626-1.652q0-2.183,2.585-2.52l2.036-.271q0-1.23-1.333-1.23a4.55,4.55,0,0,0-2.549.8V10.947a5.734,5.734,0,0,1,1.322-.439,6.949,6.949,0,0,1,1.527-.19q3.208,0,3.208,3.2Zm-2.175-3.047v-.505l-1.362.176q-1.128.146-1.128,1.018a.841.841,0,0,0,.275.648,1.055,1.055,0,0,0,.743.253,1.37,1.37,0,0,0,1.062-.45A1.627,1.627,0,0,0,10.477,14.953Zm9.69,2.776a4.576,4.576,0,0,1-2.263.454,3.828,3.828,0,0,1-2.8-1.047,3.617,3.617,0,0,1-1.069-2.7,3.985,3.985,0,0,1,1.146-3.014,4.236,4.236,0,0,1,3.065-1.1,3.933,3.933,0,0,1,1.919.352v1.963a2.638,2.638,0,0,0-1.619-.542,2.133,2.133,0,0,0-1.578.582,2.173,2.173,0,0,0-.582,1.608,2.137,2.137,0,0,0,.557,1.564,2.046,2.046,0,0,0,1.531.568,3.055,3.055,0,0,0,1.692-.542Zm2.688-8.416a1.352,1.352,0,0,1-.959-.348,1.121,1.121,0,0,1-.374-.853,1.081,1.081,0,0,1,.374-.85,1.567,1.567,0,0,1,1.923,0,1.086,1.086,0,0,1,.37.85,1.116,1.116,0,0,1-.37.864A1.375,1.375,0,0,1,22.855,9.313ZM24,18H21.683V10.5H24Zm5.522.183a4.032,4.032,0,0,1-2.948-1.051A3.81,3.81,0,0,1,25.5,14.279a3.811,3.811,0,0,1,1.113-2.911,4.207,4.207,0,0,1,3.01-1.051,3.983,3.983,0,0,1,2.93,1.051,3.736,3.736,0,0,1,1.062,2.78A3.966,3.966,0,0,1,32.52,17.1,4.076,4.076,0,0,1,29.52,18.183Zm.059-6.094a1.544,1.544,0,0,0-1.274.564,2.487,2.487,0,0,0-.454,1.6q0,2.161,1.743,2.161,1.663,0,1.663-2.219Q31.256,12.089,29.579,12.089Zm2.483-5.142L29.769,9.313H28.1L30,6.948ZM42.352,18H40.045V13.833q0-1.743-1.245-1.743a1.235,1.235,0,0,0-.989.461,1.758,1.758,0,0,0-.388,1.172V18H35.109V10.5h2.314v1.187h.029a2.652,2.652,0,0,1,2.41-1.37q2.49,0,2.49,3.091ZM-33.8,36h-2.314V34.967h-.029a2.6,2.6,0,0,1-2.322,1.216,2.843,2.843,0,0,1-2.263-.992,4.108,4.108,0,0,1-.857-2.772,4.471,4.471,0,0,1,.945-2.981,3.082,3.082,0,0,1,2.476-1.121,2.106,2.106,0,0,1,2.021,1.04h.029V24.9H-33.8Zm-2.271-3.647v-.564a1.775,1.775,0,0,0-.425-1.216,1.4,1.4,0,0,0-1.106-.483,1.394,1.394,0,0,0-1.2.6,2.806,2.806,0,0,0-.432,1.659,2.428,2.428,0,0,0,.417,1.523,1.386,1.386,0,0,0,1.157.535,1.392,1.392,0,0,0,1.146-.564A2.351,2.351,0,0,0-36.075,32.353Zm10.957.557h-4.893q.117,1.633,2.058,1.633a4.018,4.018,0,0,0,2.175-.586v1.67a5.715,5.715,0,0,1-2.7.557,3.8,3.8,0,0,1-2.82-1.007,3.8,3.8,0,0,1-1-2.809,4.014,4.014,0,0,1,1.084-2.959,3.611,3.611,0,0,1,2.666-1.091,3.278,3.278,0,0,1,2.538.974,3.751,3.751,0,0,1,.9,2.644Zm-2.146-1.421q0-1.611-1.3-1.611a1.245,1.245,0,0,0-.963.461,2.094,2.094,0,0,0-.494,1.15ZM-21.427,36h-2.314V24.9h2.314Zm8.43-.872h-.029V39.45h-2.314V28.5h2.314v1.128H-13a2.721,2.721,0,0,1,2.41-1.311,2.711,2.711,0,0,1,2.252,1,4.257,4.257,0,0,1,.795,2.721,4.614,4.614,0,0,1-.927,3.01,3.021,3.021,0,0,1-2.465,1.135A2.335,2.335,0,0,1-13,35.128Zm-.066-3.076v.6a1.909,1.909,0,0,0,.41,1.267,1.335,1.335,0,0,0,1.077.491,1.419,1.419,0,0,0,1.227-.612,2.953,2.953,0,0,0,.436-1.732q0-1.978-1.538-1.978a1.444,1.444,0,0,0-1.161.538A2.147,2.147,0,0,0-13.063,32.052Zm11.917-1.465a2.008,2.008,0,0,0-.974-.227,1.4,1.4,0,0,0-1.179.553,2.412,2.412,0,0,0-.425,1.505V36H-6.039V28.5h2.314v1.392H-3.7a2,2,0,0,1,1.978-1.523,1.49,1.49,0,0,1,.571.088Zm4.592,5.6A4.032,4.032,0,0,1,.5,35.132,3.81,3.81,0,0,1-.575,32.279,3.811,3.811,0,0,1,.538,29.368a4.207,4.207,0,0,1,3.01-1.051,3.983,3.983,0,0,1,2.93,1.051,3.736,3.736,0,0,1,1.062,2.78A3.966,3.966,0,0,1,6.445,35.1,4.076,4.076,0,0,1,3.446,36.183ZM3.5,30.089a1.544,1.544,0,0,0-1.274.564,2.487,2.487,0,0,0-.454,1.6q0,2.161,1.743,2.161,1.663,0,1.663-2.219Q5.182,30.089,3.5,30.089ZM16.183,28.5l-3.047,8.1q-1.1,2.922-3.311,2.922a4.241,4.241,0,0,1-1.384-.19V37.487a1.946,1.946,0,0,0,1,.271,1.253,1.253,0,0,0,1.245-.842l.4-.93L8.038,28.5H10.6L12,33.063a5.93,5.93,0,0,1,.205,1h.029a7,7,0,0,1,.242-.989L13.89,28.5ZM23.7,32.909H18.812q.117,1.633,2.058,1.633a4.018,4.018,0,0,0,2.175-.586v1.67a5.715,5.715,0,0,1-2.7.557,3.8,3.8,0,0,1-2.82-1.007,3.8,3.8,0,0,1-1-2.809A4.014,4.014,0,0,1,17.6,29.408a3.611,3.611,0,0,1,2.666-1.091,3.278,3.278,0,0,1,2.538.974,3.751,3.751,0,0,1,.9,2.644Zm-2.146-1.421q0-1.611-1.3-1.611a1.245,1.245,0,0,0-.963.461,2.094,2.094,0,0,0-.494,1.15Zm9.207,4.241a4.576,4.576,0,0,1-2.263.454,3.828,3.828,0,0,1-2.8-1.047,3.617,3.617,0,0,1-1.069-2.7,3.985,3.985,0,0,1,1.146-3.014,4.236,4.236,0,0,1,3.065-1.1,3.933,3.933,0,0,1,1.919.352v1.963a2.638,2.638,0,0,0-1.619-.542,2.133,2.133,0,0,0-1.578.582,2.173,2.173,0,0,0-.582,1.608,2.137,2.137,0,0,0,.557,1.564,2.046,2.046,0,0,0,1.531.568,3.055,3.055,0,0,0,1.692-.542Zm6.05.183a3.421,3.421,0,0,1-1.545.271q-2.446,0-2.446-2.542V30.207H31.608V28.5h1.216V26.881l2.307-.659V28.5h1.685v1.707H35.131v3.032q0,1.172.93,1.172a1.568,1.568,0,0,0,.754-.212Zm4.819.271a4.032,4.032,0,0,1-2.948-1.051,3.81,3.81,0,0,1-1.073-2.853,3.811,3.811,0,0,1,1.113-2.911,4.207,4.207,0,0,1,3.01-1.051,3.983,3.983,0,0,1,2.93,1.051,3.736,3.736,0,0,1,1.062,2.78A3.966,3.966,0,0,1,44.634,35.1,4.076,4.076,0,0,1,41.635,36.183Zm.059-6.094a1.544,1.544,0,0,0-1.274.564,2.487,2.487,0,0,0-.454,1.6q0,2.161,1.743,2.161,1.663,0,1.663-2.219Q43.37,30.089,41.693,30.089Z" transform="translate(-5410.818 -10130.984)" fill="#12263f"/>
      <path id="Trazado_907170" data-name="Trazado 907170" d="M-83.119.183A4.889,4.889,0,0,1-86.8-1.285a5.272,5.272,0,0,1-1.421-3.827,5.649,5.649,0,0,1,1.443-4.028,5,5,0,0,1,3.823-1.538,4.767,4.767,0,0,1,3.636,1.472,5.428,5.428,0,0,1,1.388,3.882,5.559,5.559,0,0,1-1.439,3.992A4.94,4.94,0,0,1-83.119.183Zm.1-8.826a2.381,2.381,0,0,0-1.978.934,3.894,3.894,0,0,0-.732,2.472,3.822,3.822,0,0,0,.732,2.468,2.347,2.347,0,0,0,1.919.908,2.37,2.37,0,0,0,1.941-.883,3.78,3.78,0,0,0,.718-2.45,4.1,4.1,0,0,0-.7-2.542A2.269,2.269,0,0,0-83.016-8.643Zm8.95,7.771H-74.1V3.45H-76.41V-7.5H-74.1v1.128h.029a2.721,2.721,0,0,1,2.41-1.311,2.711,2.711,0,0,1,2.252,1,4.257,4.257,0,0,1,.795,2.721,4.614,4.614,0,0,1-.927,3.01A3.021,3.021,0,0,1-72,.183,2.335,2.335,0,0,1-74.066-.872Zm-.066-3.076v.6a1.909,1.909,0,0,0,.41,1.267,1.335,1.335,0,0,0,1.077.491A1.419,1.419,0,0,0-71.418-2.2a2.953,2.953,0,0,0,.436-1.732q0-1.978-1.538-1.978a1.444,1.444,0,0,0-1.161.538A2.147,2.147,0,0,0-74.132-3.948Zm13.762.857h-4.893q.117,1.633,2.058,1.633a4.018,4.018,0,0,0,2.175-.586v1.67a5.715,5.715,0,0,1-2.7.557,3.8,3.8,0,0,1-2.82-1.007,3.8,3.8,0,0,1-1-2.809,4.014,4.014,0,0,1,1.084-2.959A3.611,3.611,0,0,1-63.8-7.683a3.278,3.278,0,0,1,2.538.974,3.751,3.751,0,0,1,.9,2.644Zm-2.146-1.421q0-1.611-1.3-1.611a1.245,1.245,0,0,0-.963.461,2.094,2.094,0,0,0-.494,1.15Zm8.416-.9a2.008,2.008,0,0,0-.974-.227,1.4,1.4,0,0,0-1.179.553,2.412,2.412,0,0,0-.425,1.505V0h-2.314V-7.5h2.314v1.392h.029a2,2,0,0,1,1.978-1.523,1.49,1.49,0,0,1,.571.088ZM-46.783,0h-2.19V-1.077H-49A2.444,2.444,0,0,1-51.237.183a2.337,2.337,0,0,1-1.718-.619,2.218,2.218,0,0,1-.626-1.652q0-2.183,2.585-2.52l2.036-.271q0-1.23-1.333-1.23a4.55,4.55,0,0,0-2.549.8V-7.053a5.734,5.734,0,0,1,1.322-.439,6.949,6.949,0,0,1,1.527-.19q3.208,0,3.208,3.2Zm-2.175-3.047v-.505l-1.362.176q-1.128.146-1.128,1.018a.841.841,0,0,0,.275.648,1.055,1.055,0,0,0,.743.253,1.37,1.37,0,0,0,1.062-.45A1.627,1.627,0,0,0-48.959-3.047Zm9.69,2.776a4.576,4.576,0,0,1-2.263.454,3.828,3.828,0,0,1-2.8-1.047,3.617,3.617,0,0,1-1.069-2.7,3.985,3.985,0,0,1,1.146-3.014,4.236,4.236,0,0,1,3.065-1.1,3.933,3.933,0,0,1,1.919.352v1.963a2.638,2.638,0,0,0-1.619-.542,2.133,2.133,0,0,0-1.578.582,2.173,2.173,0,0,0-.582,1.608,2.137,2.137,0,0,0,.557,1.564,2.046,2.046,0,0,0,1.531.568,3.055,3.055,0,0,0,1.692-.542Zm2.688-8.416a1.352,1.352,0,0,1-.959-.348,1.121,1.121,0,0,1-.374-.853,1.081,1.081,0,0,1,.374-.85,1.4,1.4,0,0,1,.959-.33,1.393,1.393,0,0,1,.963.33,1.086,1.086,0,0,1,.37.85,1.116,1.116,0,0,1-.37.864A1.375,1.375,0,0,1-36.581-8.687ZM-35.438,0h-2.314V-7.5h2.314Zm5.522.183A4.032,4.032,0,0,1-32.864-.868a3.81,3.81,0,0,1-1.073-2.853,3.811,3.811,0,0,1,1.113-2.911,4.207,4.207,0,0,1,3.01-1.051,3.983,3.983,0,0,1,2.93,1.051,3.736,3.736,0,0,1,1.062,2.78A3.966,3.966,0,0,1-26.917-.9,4.076,4.076,0,0,1-29.916.183Zm.059-6.094a1.544,1.544,0,0,0-1.274.564,2.487,2.487,0,0,0-.454,1.6q0,2.161,1.743,2.161,1.663,0,1.663-2.219Q-28.18-5.911-29.857-5.911Zm2.483-5.142-2.292,2.366h-1.67l1.9-2.366ZM-17.084,0h-2.307V-4.167q0-1.743-1.245-1.743a1.235,1.235,0,0,0-.989.461,1.758,1.758,0,0,0-.388,1.172V0h-2.314V-7.5h2.314v1.187h.029a2.652,2.652,0,0,1,2.41-1.37q2.49,0,2.49,3.091ZM-9.4-10.5-14.52,1.743h-2.065l5.1-12.246ZM-6.01-3.618V0H-8.375V-10.5h3.706Q-.7-10.5-.7-7.156A3.212,3.212,0,0,1-1.838-4.6a4.512,4.512,0,0,1-3.043.978Zm0-5.068v3.274h.93q1.89,0,1.89-1.655,0-1.619-1.89-1.619ZM3.739.183A4.032,4.032,0,0,1,.791-.868,3.81,3.81,0,0,1-.282-3.721,3.811,3.811,0,0,1,.831-6.632a4.207,4.207,0,0,1,3.01-1.051,3.983,3.983,0,0,1,2.93,1.051,3.736,3.736,0,0,1,1.062,2.78A3.966,3.966,0,0,1,6.738-.9,4.076,4.076,0,0,1,3.739.183ZM3.8-5.911a1.544,1.544,0,0,0-1.274.564,2.487,2.487,0,0,0-.454,1.6q0,2.161,1.743,2.161,1.663,0,1.663-2.219Q5.475-5.911,3.8-5.911ZM8.844-.2V-2.073a4.928,4.928,0,0,0,1.139.513,3.776,3.776,0,0,0,1.073.168,2.3,2.3,0,0,0,.97-.168.544.544,0,0,0,.355-.513.474.474,0,0,0-.161-.366,1.5,1.5,0,0,0-.414-.256,4.7,4.7,0,0,0-.553-.2q-.3-.088-.579-.2a5.544,5.544,0,0,1-.787-.363,2.276,2.276,0,0,1-.571-.45A1.77,1.77,0,0,1,8.965-4.5a2.367,2.367,0,0,1-.121-.8,2.055,2.055,0,0,1,.275-1.084,2.243,2.243,0,0,1,.732-.743A3.347,3.347,0,0,1,10.9-7.548a5.461,5.461,0,0,1,1.227-.135,6.807,6.807,0,0,1,1.011.077,7.544,7.544,0,0,1,1.011.223V-5.6a3.652,3.652,0,0,0-.941-.385,3.97,3.97,0,0,0-.985-.128,2.183,2.183,0,0,0-.428.04,1.411,1.411,0,0,0-.355.117.652.652,0,0,0-.242.2.455.455,0,0,0-.088.275.507.507,0,0,0,.132.352,1.145,1.145,0,0,0,.344.253,3.4,3.4,0,0,0,.472.19q.26.084.516.172a6.713,6.713,0,0,1,.835.352,2.67,2.67,0,0,1,.641.447,1.755,1.755,0,0,1,.41.6,2.135,2.135,0,0,1,.143.82,2.14,2.14,0,0,1-.289,1.139,2.316,2.316,0,0,1-.769.769,3.488,3.488,0,0,1-1.106.432,6.131,6.131,0,0,1-1.3.135A6.7,6.7,0,0,1,8.844-.2Zm11.624.11a3.421,3.421,0,0,1-1.545.271q-2.446,0-2.446-2.542V-5.793H15.26V-7.5h1.216V-9.119l2.307-.659V-7.5h1.685v1.707H18.783v3.032q0,1.172.93,1.172a1.568,1.568,0,0,0,.754-.212Zm4.709-3.105H21.171V-4.812h4.006ZM29.506-.872h-.029V3.45H27.162V-7.5h2.314v1.128h.029a2.721,2.721,0,0,1,2.41-1.311,2.711,2.711,0,0,1,2.252,1,4.257,4.257,0,0,1,.795,2.721,4.614,4.614,0,0,1-.927,3.01A3.021,3.021,0,0,1,31.571.183,2.335,2.335,0,0,1,29.506-.872ZM29.44-3.948v.6a1.909,1.909,0,0,0,.41,1.267,1.335,1.335,0,0,0,1.077.491A1.419,1.419,0,0,0,32.153-2.2a2.953,2.953,0,0,0,.436-1.732q0-1.978-1.538-1.978a1.444,1.444,0,0,0-1.161.538A2.147,2.147,0,0,0,29.44-3.948ZM41.356-5.413a2.008,2.008,0,0,0-.974-.227,1.4,1.4,0,0,0-1.179.553,2.412,2.412,0,0,0-.425,1.505V0H36.464V-7.5h2.314v1.392h.029a2,2,0,0,1,1.978-1.523,1.49,1.49,0,0,1,.571.088Zm4.592,5.6A4.032,4.032,0,0,1,43-.868a3.81,3.81,0,0,1-1.073-2.853,3.811,3.811,0,0,1,1.113-2.911,4.207,4.207,0,0,1,3.01-1.051,3.983,3.983,0,0,1,2.93,1.051,3.736,3.736,0,0,1,1.062,2.78A3.966,3.966,0,0,1,48.948-.9,4.076,4.076,0,0,1,45.948.183Zm.059-6.094a1.544,1.544,0,0,0-1.274.564,2.487,2.487,0,0,0-.454,1.6q0,2.161,1.743,2.161,1.663,0,1.663-2.219Q47.684-5.911,46.007-5.911ZM58.685-7.5,55.638.6q-1.1,2.922-3.311,2.922a4.241,4.241,0,0,1-1.384-.19V1.487a1.946,1.946,0,0,0,1,.271A1.253,1.253,0,0,0,53.192.916l.4-.93L50.541-7.5H53.1l1.4,4.563a5.93,5.93,0,0,1,.205,1h.029a7,7,0,0,1,.242-.989L56.393-7.5Zm7.522,4.409H61.315q.117,1.633,2.058,1.633a4.018,4.018,0,0,0,2.175-.586v1.67a5.715,5.715,0,0,1-2.7.557,3.8,3.8,0,0,1-2.82-1.007,3.8,3.8,0,0,1-1-2.809,4.014,4.014,0,0,1,1.084-2.959,3.611,3.611,0,0,1,2.666-1.091,3.278,3.278,0,0,1,2.538.974,3.751,3.751,0,0,1,.9,2.644ZM64.061-4.512q0-1.611-1.3-1.611a1.245,1.245,0,0,0-.963.461,2.094,2.094,0,0,0-.494,1.15ZM73.268-.271A4.576,4.576,0,0,1,71,.183a3.828,3.828,0,0,1-2.8-1.047,3.617,3.617,0,0,1-1.069-2.7,3.985,3.985,0,0,1,1.146-3.014,4.236,4.236,0,0,1,3.065-1.1,3.933,3.933,0,0,1,1.919.352v1.963a2.638,2.638,0,0,0-1.619-.542,2.133,2.133,0,0,0-1.578.582,2.173,2.173,0,0,0-.582,1.608,2.137,2.137,0,0,0,.557,1.564,2.046,2.046,0,0,0,1.531.568,3.055,3.055,0,0,0,1.692-.542Zm6.05.183a3.421,3.421,0,0,1-1.545.271q-2.446,0-2.446-2.542V-5.793H74.11V-7.5h1.216V-9.119l2.307-.659V-7.5h1.685v1.707H77.633v3.032q0,1.172.93,1.172a1.568,1.568,0,0,0,.754-.212Zm4.819.271A4.032,4.032,0,0,1,81.189-.868a3.81,3.81,0,0,1-1.073-2.853,3.811,3.811,0,0,1,1.113-2.911,4.207,4.207,0,0,1,3.01-1.051,3.983,3.983,0,0,1,2.93,1.051,3.736,3.736,0,0,1,1.062,2.78A3.966,3.966,0,0,1,87.136-.9,4.076,4.076,0,0,1,84.137.183ZM84.2-5.911a1.544,1.544,0,0,0-1.274.564,2.487,2.487,0,0,0-.454,1.6q0,2.161,1.743,2.161,1.663,0,1.663-2.219Q85.873-5.911,84.2-5.911Z" transform="translate(-5373.794 -10184.296)" fill="#12263f"/>
    </g>
    <g id="Rectángulo_401460" data-name="Rectángulo 401460" transform="translate(-5303.083 -10016.101)" fill="none" stroke="#ffd75e" stroke-width="1">
      <rect width="110.69" height="45.552" rx="16" stroke="none"/>
      <rect x="0.5" y="0.5" width="109.69" height="44.552" rx="15.5" fill="none"/>
    </g>
    <g id="Rectángulo_401604" data-name="Rectángulo 401604" transform="translate(-5469.332 -10148.674)" fill="none" stroke="#adecd1" stroke-width="2">
      <rect width="117.029" height="61.376" rx="16" stroke="none"/>
      <rect x="1" y="1" width="115.029" height="59.376" rx="15" fill="none"/>
    </g>
    <g id="Rectángulo_401605" data-name="Rectángulo 401605" transform="translate(-5471.36 -10204.848)" fill="none" stroke="#a0c9f6" stroke-width="2">
      <rect width="199.333" height="30.348" rx="15.174" stroke="none"/>
      <rect x="1" y="1" width="197.333" height="28.348" rx="14.174" fill="none"/>
    </g>
    <g id="Grupo_1099806" data-name="Grupo 1099806" transform="translate(-5360.784 -9987.235) rotate(-90)">
      <path id="Trazado_873496" data-name="Trazado 873496" d="M0,0V55.981" transform="translate(6.089)" fill="none" stroke="#ffd75e" stroke-width="2"/>
      <g id="Grupo_1099075" data-name="Grupo 1099075" transform="translate(0 46.971)">
        <g id="Grupo_1099074" data-name="Grupo 1099074" clip-path="url(#clip-path-6)">
          <path id="Trazado_873497" data-name="Trazado 873497" d="M11.8,0A12.132,12.132,0,0,0,5.9,10.415,12.132,12.132,0,0,0,0,0" transform="translate(0.189 0.315)" fill="none" stroke="#ffd75e" stroke-miterlimit="10" stroke-width="2"/>
        </g>
      </g>
    </g>
    <g id="Grupo_1099807" data-name="Grupo 1099807" transform="translate(-5370.674 -10067.937) rotate(180)">
      <path id="Trazado_873496-2" data-name="Trazado 873496" d="M0,0V17.642" transform="translate(6.089)" fill="none" stroke="#adecd1" stroke-width="2"/>
      <g id="Grupo_1099075-2" data-name="Grupo 1099075" transform="translate(0 8.631)">
        <g id="Grupo_1099074-2" data-name="Grupo 1099074" transform="translate(0 0)" clip-path="url(#clip-path-7)">
          <path id="Trazado_873497-2" data-name="Trazado 873497" d="M11.8,0A12.132,12.132,0,0,0,5.9,10.415,12.132,12.132,0,0,0,0,0" transform="translate(0.189 0.315)" fill="none" stroke="#adecd1" stroke-miterlimit="10" stroke-width="2"/>
        </g>
      </g>
    </g>
    <g id="Grupo_1099808" data-name="Grupo 1099808" transform="translate(-5303.083 -10129.39) rotate(180)">
      <path id="Trazado_873496-3" data-name="Trazado 873496" d="M0,0V36.848" transform="translate(6.089)" fill="none" stroke="#a0c9f6" stroke-width="2"/>
      <g id="Grupo_1099075-3" data-name="Grupo 1099075" transform="translate(0 27.838)">
        <g id="Grupo_1099074-3" data-name="Grupo 1099074" clip-path="url(#clip-path-8)">
          <path id="Trazado_873497-3" data-name="Trazado 873497" d="M11.8,0A12.132,12.132,0,0,0,5.9,10.415,12.132,12.132,0,0,0,0,0" transform="translate(0.189 0.315)" fill="none" stroke="#a0c9f6" stroke-miterlimit="10" stroke-width="2"/>
        </g>
      </g>
    </g>
    <g id="Grupo_1099804" data-name="Grupo 1099804" transform="translate(-5409.273 -10177.579) rotate(-3)">
      <g id="Grupo_1099803" data-name="Grupo 1099803" transform="translate(0 0)" clip-path="url(#clip-path-9)">
        <path id="Trazado_874410" data-name="Trazado 874410" d="M22.169,2.06c5.083,2.836,4.564,6.072-1.431,9.056-6.063,3.019-12.187,3.09-17.269.254s-4.576-6.041,1.487-9.06C10.952-.675,17.086-.776,22.169,2.06M9.431,8.4c3.552,1.982,6.026,2.319,8.444,1.116,2.385-1.187,1.886-2.508-1.666-4.49-3.573-1.994-6.026-2.32-8.41-1.133C5.379,5.1,5.856,6.407,9.431,8.4" transform="translate(0 165.819)" fill="#fff"/>
        <path id="Trazado_874411" data-name="Trazado 874411" d="M10.831,0l15.56,8.682-6.233,3.1L7.927,4.96,3.329,7.25,0,5.392Z" transform="translate(16.561 157.076)" fill="#fff"/>
        <path id="Trazado_874412" data-name="Trazado 874412" d="M22.478,2.461c4.892,3.075,4.167,6.281-2.01,8.973-6.248,2.722-12.367,2.5-17.259-.576S-.972,4.607,5.276,1.884c6.177-2.692,12.309-2.5,17.2.577M9.352,8.181c3.419,2.149,5.867,2.605,8.36,1.521,2.457-1.072,2.044-2.414-1.376-4.563C12.9,2.976,10.467,2.533,8.011,3.6c-2.492,1.085-2.1,2.414,1.341,4.577" transform="translate(52.502 112.494)" fill="#fff"/>
        <path id="Trazado_874413" data-name="Trazado 874413" d="M14.3,4.128c-.812-.511-2.3-.362-4.09.418A11.4,11.4,0,0,0,5.306,8.708L0,7.95A19.712,19.712,0,0,1,7.913,2.091C12.9-.081,18.093-.663,20.464.828c1.624,1.021,1.276,2.97.226,5.224l-1.976,4.136L29.243,5.6l3.141,1.974L13.643,15.742l-2.621-1.61,3.352-7.419c.514-1.135.57-2.183-.071-2.585" transform="translate(71.642 102.705)" fill="#fff"/>
        <path id="Trazado_874414" data-name="Trazado 874414" d="M22.478,2.461c4.893,3.075,4.167,6.282-2.01,8.974-6.248,2.722-12.366,2.5-17.259-.576S-.972,4.607,5.276,1.885c6.177-2.693,12.309-2.5,17.2.576M9.352,8.181c3.419,2.149,5.867,2.605,8.36,1.521,2.457-1.071,2.044-2.414-1.376-4.563C12.9,2.976,10.467,2.533,8.011,3.6c-2.491,1.086-2.1,2.416,1.341,4.579" transform="translate(114.188 60.46)" fill="#fff"/>
        <path id="Trazado_874415" data-name="Trazado 874415" d="M28.661,5.9c2.884,1.813,1,4.774-5.109,7.436A41.181,41.181,0,0,1,12.028,16.4l-.417-3.025a22.95,22.95,0,0,0,8.458-1.707c2.7-1.178,3.528-2.266,2.352-3-1.2-.752-3.325-.484-6.062.709l-4.141,1.8L10.123,9.862l2.4-4.618L3.047,9.374,0,7.495,17.2,0l2.266,1.424L16.59,6.679l1.336-.468c4.259-1.469,8.449-1.749,10.735-.311" transform="translate(132.015 49.516)" fill="#fff"/>
      </g>
    </g>
  </g>
</svg>
