<svg xmlns="http://www.w3.org/2000/svg" xmlns:xlink="http://www.w3.org/1999/xlink" width="1030.006" height="155.764" viewBox="0 0 1030.006 155.764">
  <defs>
    <clipPath id="clip-path">
      <path id="Trazado_875162" data-name="Trazado 875162" d="M14.826,0H1015.18c8.188,0,14.826,2.613,14.826,5.837V149.927c0,3.224-6.638,5.837-14.826,5.837H14.826C6.638,155.764,0,153.151,0,149.927V5.837C0,2.613,6.638,0,14.826,0Z" fill="#f6f6f6"/>
    </clipPath>
    <clipPath id="clip-path-2">
      <path id="Trazado_875143" data-name="Trazado 875143" d="M45.914,49.89,1036.127,7.044,997.3,984.792,7.086,1027.638Z" fill="#fff"/>
    </clipPath>
    <clipPath id="clip-path-3">
      <path id="Trazado_875148" data-name="Trazado 875148" d="M592.648,21.364C403.435,69.475,222.54,183.313,92.351,347.118,59.2,388.844,28.822,434.705,13.5,486.262S-.2,596.118,27.156,637.43c35.318,53.335,102.422,66.813,172.426,80.513-22.241,11.744-33.1,42.872-27.3,67.6,12.4,52.852,69.557,61.553,117.619,57.893C450.083,831.227,602.093,737.972,734.2,627.845,803.6,569.987,870.228,505.887,920.415,428.1c32.974-51.106,61.232-125.086,19.109-169.871-19.431-20.662-54.645-24.169-78.132.1,37.782-44.219,41.55-113.709,16.356-162.463S803.389,17.991,751.611,8.7A269.59,269.59,0,0,0,692.368,5.1c-33.2,1.421-66.791,7.894-99.72,16.267" fill="#fff"/>
    </clipPath>
    <clipPath id="clip-path-4">
      <path id="Trazado_875150" data-name="Trazado 875150" d="M0,0,981.166,30.84l27.947,985.947L27.947,985.947Z" fill="#fff"/>
    </clipPath>
    <clipPath id="clip-path-5">
      <path id="Trazado_875155" data-name="Trazado 875155" d="M547.228,6.051C362.461,40.535,190.432,142.117,72.2,298.031,42.09,337.748,15.021,381.854,3.3,432.849S-2.841,542.926,27.16,586.757C65.888,643.344,133.494,662,204,681.1c-21.3,10.211-29.982,40.879-22.53,66.322,15.924,54.382,73.315,67.463,120.83,67.361,158.358-.349,303.081-83.276,426.873-184.759C794.2,576.707,856.059,516.871,900.642,441.958c29.292-49.216,52.341-121.92,7.432-170.369-20.717-22.352-55.952-28.537-77.642-5.751,34.539-41.892,33.556-111.888,5.2-163.083s-79.2-84.331-131.286-97.6a273.943,273.943,0,0,0-59.121-8.085c-32.9-1.049-65.84,2.981-98,8.982" fill="#fff"/>
    </clipPath>
    <clipPath id="clip-path-6">
      <rect id="Rectángulo_401216" data-name="Rectángulo 401216" width="21.328" height="18.792" fill="none" stroke="#a0c9f6" stroke-width="1"/>
    </clipPath>
    <clipPath id="clip-path-7">
      <rect id="Rectángulo_401216-2" data-name="Rectángulo 401216" width="21.328" height="18.792" fill="none" stroke="#adecd1" stroke-width="1"/>
    </clipPath>
    <clipPath id="clip-path-8">
      <rect id="Rectángulo_401216-3" data-name="Rectángulo 401216" width="21.328" height="18.792" fill="none" stroke="#4e8e69" stroke-width="1"/>
    </clipPath>
  </defs>
  <g id="Grupo_1100354" data-name="Grupo 1100354" transform="translate(-265 -1337.84)">
    <g id="Grupo_1098757" data-name="Grupo 1098757" transform="translate(1295.006 1493.604) rotate(180)" clip-path="url(#clip-path)">
      <path id="Trazado_875141" data-name="Trazado 875141" d="M14.826,0H1015.18c8.188,0,14.826,10.649,14.826,23.785V610.909c0,13.136-6.638,23.785-14.826,23.785H14.826C6.638,634.694,0,624.045,0,610.909V23.785C0,10.649,6.638,0,14.826,0Z" transform="translate(0 -478.93)" fill="#f6f6f6"/>
      <g id="Grupo_1100345" data-name="Grupo 1100345" transform="matrix(-0.927, 0.375, -0.375, -0.927, 1618.574, 175.725)" opacity="0.49" style="isolation: isolate">
        <g id="Grupo_1100342" data-name="Grupo 1100342" transform="translate(0 0)">
          <g id="Grupo_1100341" data-name="Grupo 1100341" clip-path="url(#clip-path-2)">
            <path id="Trazado_875142" data-name="Trazado 875142" d="M861.391,258.331c37.782-44.219,41.541-113.709,16.356-162.463S803.38,17.992,751.611,8.7,645.383,7.951,592.649,21.356c-189.214,48.12-370.117,161.959-500.3,325.764C59.2,388.836,28.813,434.707,13.5,486.263S-.2,596.109,27.156,637.422c35.309,53.336,102.422,66.823,172.425,80.523-22.25,11.744-33.1,42.862-27.3,67.6,12.4,52.852,69.548,61.554,117.61,57.894,160.19-12.209,312.2-105.473,444.295-215.59C803.589,569.988,870.218,505.889,920.4,428.1c32.984-51.116,61.242-125.086,19.119-169.881-19.431-20.652-54.646-24.159-78.133.11" transform="translate(58.707 104.485)" fill="#fff"/>
          </g>
        </g>
        <g id="Grupo_1100344" data-name="Grupo 1100344" transform="translate(58.707 104.486)">
          <g id="Grupo_1100343" data-name="Grupo 1100343" transform="translate(0 0)" clip-path="url(#clip-path-3)">
            <path id="Trazado_875144" data-name="Trazado 875144" d="M3.108,450.754S495.4,534.18,428.5,2.913" transform="translate(-32.534 33.152)" fill="#fff"/>
            <path id="Trazado_875145" data-name="Trazado 875145" d="M4.83,700.475S441.906,841.746,652.6,4.437" transform="translate(-42.438 -8.501)" fill="#fff"/>
            <path id="Trazado_875146" data-name="Trazado 875146" d="M6.881,997.838s285.955,21.3,472.655-386.648S666.935,4.534,666.935,4.534" transform="translate(109.897 -87.99)" fill="#fff"/>
            <path id="Trazado_875147" data-name="Trazado 875147" d="M391.657,2.663S362.713,362.571,4.261,617.89" transform="translate(536.361 175)" fill="#fff"/>
          </g>
        </g>
      </g>
      <ellipse id="Elipse_11597" data-name="Elipse 11597" cx="259.578" cy="292.023" rx="259.578" ry="292.023" transform="translate(14.952 -664.721)" fill="#e8e8e8" opacity="0.37" style="mix-blend-mode: multiply;isolation: isolate"/>
      <ellipse id="Elipse_11598" data-name="Elipse 11598" cx="259.75" cy="292.685" rx="259.75" ry="292.685" transform="translate(-244.945 -260.26)" fill="#fff" opacity="0.65"/>
      <ellipse id="Elipse_11599" data-name="Elipse 11599" cx="259.75" cy="292.685" rx="259.75" ry="292.685" transform="translate(696.206 -634.438)" fill="#fff" opacity="0.65"/>
      <g id="Grupo_1100350" data-name="Grupo 1100350" transform="translate(518.563 315.707) rotate(-165)" opacity="0.3" style="isolation: isolate">
        <g id="Grupo_1100347" data-name="Grupo 1100347" transform="translate(0 0)">
          <g id="Grupo_1100346" data-name="Grupo 1100346" clip-path="url(#clip-path-4)">
            <path id="Trazado_875149" data-name="Trazado 875149" d="M830.432,265.842c34.539-41.892,33.546-111.889,5.2-163.083s-79.205-84.331-131.286-97.6-105.622-8.72-157.117.887C362.461,40.538,190.423,142.12,72.2,298.034,42.09,337.741,15.012,381.857,3.3,432.852S-2.841,542.92,27.16,586.751C65.879,643.337,133.495,662,204,681.1c-21.313,10.211-29.982,40.869-22.53,66.322,15.924,54.382,73.306,67.462,120.821,67.361,158.367-.348,303.09-83.286,426.873-184.759C794.195,576.71,856.05,516.874,900.633,441.962c29.3-49.226,52.35-121.92,7.44-170.379-20.716-22.342-55.951-28.527-77.641-5.741" transform="translate(59.633 116.119)" fill="#fff"/>
          </g>
        </g>
        <g id="Grupo_1100349" data-name="Grupo 1100349" transform="translate(59.633 116.122)">
          <g id="Grupo_1100348" data-name="Grupo 1100348" transform="translate(0 0)" clip-path="url(#clip-path-5)">
            <path id="Trazado_875151" data-name="Trazado 875151" d="M-2.084,419.157S492.838,540.407,390.2-1.907" transform="translate(-37.435 8.093)" fill="#fff"/>
            <path id="Trazado_875152" data-name="Trazado 875152" d="M-3.244,652.525S440.739,828.14,593.155-2.9" transform="translate(-30.248 -15.456)" fill="#fff"/>
            <path id="Trazado_875153" data-name="Trazado 875153" d="M-4.734,952.294S280.9,995.255,438.683,596.658,583.641-2.852,583.641-2.852" transform="translate(139.498 -83.311)" fill="#fff"/>
            <path id="Trazado_875154" data-name="Trazado 875154" d="M340.192-1.662S335.918,360.167-2.94,591.535" transform="translate(550.965 190.908)" fill="#fff"/>
          </g>
        </g>
      </g>
      <g id="Grupo_1100351" data-name="Grupo 1100351" transform="translate(-187.671 -771.041)">
        <path id="Trazado_875156" data-name="Trazado 875156" d="M659.607,388.755S584.919-75.751.124,12.6" transform="translate(569.071 1039.101) rotate(-43)" fill="none" stroke="#e8e8e8" stroke-linecap="round" stroke-linejoin="round" stroke-width="1"/>
        <path id="Trazado_875157" data-name="Trazado 875157" d="M101.2.994S-86.345,156.785,53.416,258.14" transform="translate(1028.349 556.446) rotate(-43)" fill="none" stroke="#e8e8e8" stroke-linecap="round" stroke-linejoin="round" stroke-width="1"/>
        <path id="Trazado_875158" data-name="Trazado 875158" d="M603.329,5.928C574.66,164.463,522.32,184.371,418.247,198.848s-91.2,122.866-252.428,54.634S.872,88.647.872,88.647" transform="translate(0 407.134) rotate(-43)" fill="none" stroke="#e8e8e8" stroke-linecap="round" stroke-linejoin="round" stroke-width="1"/>
        <path id="Trazado_875159" data-name="Trazado 875159" d="M179.846,1.767s98.028,95.685,28.093,153.218S.734,74.559.734,74.559" transform="translate(113.24 308.032) rotate(-43)" fill="none" stroke="#e8e8e8" stroke-linecap="round" stroke-linejoin="round" stroke-width="1"/>
        <path id="Trazado_875160" data-name="Trazado 875160" d="M268.819,171.451C283.507,51.174,150.445-54.284.33,33.544" transform="translate(714.944 981.66) rotate(-43)" fill="none" stroke="#e8e8e8" stroke-linecap="round" stroke-linejoin="round" stroke-width="1"/>
        <path id="Trazado_875161" data-name="Trazado 875161" d="M392.473,14.638c-39.366,13.343-75.584,43.19-87.381,80.1s6.384,78.835,35.582,90.846c-42.71-9.946-85.81-19.943-130.9-21.138s-92.921,7.071-133.266,30.909S4.757,260.369,3.091,302.335C1.158,351.047,37.133,389.484,73.922,420.36,181.3,510.475,313.45,576.446,459.071,607.715c46.26,9.932,98.82,15.529,143.034-8.762,42.258-23.213,66.422-69.879,68.148-113.047s-15.768-83.126-38.8-118.079-51.723-66.141-76.812-98.285c24.268-.684,48.826-1.407,72.886-7.523s47.955-18.28,63.263-37.33c18.27-22.738,21.772-52.561,14.336-77.54s-24.577-45.7-44.085-63.364c-40.26-36.44-92.026-62-148.856-73.492C490.117,5.831,466.9,3.526,443.677,4.9a194.9,194.9,0,0,0-51.2,9.74" transform="translate(368.66 714.876) rotate(-43)" fill="none"/>
      </g>
    </g>
    <rect id="Rectángulo_362544" data-name="Rectángulo 362544" width="140.791" height="73.31" rx="35" transform="translate(344.156 1379.068)" fill="#a0c9f6"/>
    <rect id="Rectángulo_362545" data-name="Rectángulo 362545" width="131.475" height="64.478" rx="30" transform="translate(348.946 1383.593)" fill="#fff"/>
    <rect id="Rectángulo_362544-2" data-name="Rectángulo 362544" width="221.562" height="73.31" rx="35" transform="translate(726.778 1379.068)" fill="#4e8e69"/>
    <rect id="Rectángulo_362545-2" data-name="Rectángulo 362545" width="212.247" height="64.478" rx="30" transform="translate(731.565 1383.593)" fill="#fff"/>
    <rect id="Rectángulo_362544-3" data-name="Rectángulo 362544" width="154.69" height="73.31" rx="35" transform="translate(526.606 1379.533)" fill="#adecd1"/>
    <rect id="Rectángulo_362545-3" data-name="Rectángulo 362545" width="145.375" height="64.478" rx="30" transform="translate(531.396 1384.058)" fill="#fff"/>
    <rect id="Rectángulo_362544-4" data-name="Rectángulo 362544" width="182.791" height="73.31" rx="35" transform="translate(994.005 1375.227)" fill="#b19540"/>
    <rect id="Rectángulo_362545-4" data-name="Rectángulo 362545" width="173.475" height="64.478" rx="30" transform="translate(998.795 1379.751)" fill="#fff"/>
    <g id="Grupo_1100788" data-name="Grupo 1100788">
      <path id="Trazado_907166" data-name="Trazado 907166" d="M22.332,7.852H18.379V10.6h3.633v2.047H18.379V17H15.855V5.8h6.477ZM26.4,17H23.934V5.156H26.4Zm9.68,0H33.621V15.781h-.039A2.792,2.792,0,0,1,31.137,17.2q-2.781,0-2.781-3.367V9h2.461v4.609q0,1.7,1.344,1.7a1.329,1.329,0,0,0,1.063-.465,1.874,1.874,0,0,0,.4-1.262V9h2.461ZM39.41,7.734a1.442,1.442,0,0,1-1.023-.371,1.2,1.2,0,0,1-.4-.91,1.153,1.153,0,0,1,.4-.906,1.671,1.671,0,0,1,2.051,0,1.158,1.158,0,0,1,.395.906,1.191,1.191,0,0,1-.395.922A1.466,1.466,0,0,1,39.41,7.734Zm1.219,9.125a4.349,4.349,0,0,1-.867,2.836,3.041,3.041,0,0,1-2.5,1.063,3.457,3.457,0,0,1-1.18-.234V18.586a1.923,1.923,0,0,0,.914.289q1.164,0,1.164-1.828V9h2.469Zm5.891.336a4.3,4.3,0,0,1-3.145-1.121,4.064,4.064,0,0,1-1.145-3.043,4.065,4.065,0,0,1,1.188-3.105A4.487,4.487,0,0,1,46.629,8.8a4.249,4.249,0,0,1,3.125,1.121,3.985,3.985,0,0,1,1.133,2.965,4.23,4.23,0,0,1-1.168,3.148A4.348,4.348,0,0,1,46.52,17.2Zm.063-6.5a1.647,1.647,0,0,0-1.359.6,2.653,2.653,0,0,0-.484,1.7q0,2.3,1.859,2.3,1.773,0,1.773-2.367Q48.371,10.7,46.582,10.7ZM64.73,17H62.262V15.9H62.23a2.768,2.768,0,0,1-2.477,1.3,3.033,3.033,0,0,1-2.414-1.059,4.382,4.382,0,0,1-.914-2.957A4.77,4.77,0,0,1,57.434,10a3.287,3.287,0,0,1,2.641-1.2A2.246,2.246,0,0,1,62.23,9.914h.031V5.156H64.73Zm-2.422-3.891v-.6a1.893,1.893,0,0,0-.453-1.3,1.6,1.6,0,0,0-2.461.129,2.993,2.993,0,0,0-.461,1.77,2.59,2.59,0,0,0,.445,1.625,1.581,1.581,0,0,0,2.457-.031A2.507,2.507,0,0,0,62.309,13.109ZM74,13.7H68.777q.125,1.742,2.2,1.742a4.286,4.286,0,0,0,2.32-.625V16.6a6.1,6.1,0,0,1-2.883.594A4.058,4.058,0,0,1,67.4,16.121a4.058,4.058,0,0,1-1.07-3,4.281,4.281,0,0,1,1.156-3.156A3.852,3.852,0,0,1,70.332,8.8a3.5,3.5,0,0,1,2.707,1.039A4,4,0,0,1,74,12.664Zm-2.289-1.516q0-1.719-1.391-1.719a1.328,1.328,0,0,0-1.027.492,2.234,2.234,0,0,0-.527,1.227ZM4.488,29.734a1.442,1.442,0,0,1-1.023-.371,1.2,1.2,0,0,1-.4-.91,1.153,1.153,0,0,1,.4-.906A1.49,1.49,0,0,1,4.488,27.2a1.486,1.486,0,0,1,1.027.352,1.158,1.158,0,0,1,.395.906,1.191,1.191,0,0,1-.395.922A1.466,1.466,0,0,1,4.488,29.734ZM5.707,39H3.238V31H5.707Zm9.8,0H13.051V34.555q0-1.859-1.328-1.859a1.318,1.318,0,0,0-1.055.492,1.875,1.875,0,0,0-.414,1.25V39H7.785V31h2.469v1.266h.031a2.829,2.829,0,0,1,2.57-1.461q2.656,0,2.656,3.3Zm9.57-8-2.977,8H19.293l-2.836-8H19.1l1.391,4.93a7.2,7.2,0,0,1,.273,1.422h.031a8.069,8.069,0,0,1,.289-1.375L22.5,31Zm8.086,4.7H27.949q.125,1.742,2.2,1.742a4.286,4.286,0,0,0,2.32-.625V38.6a6.1,6.1,0,0,1-2.883.594,3.724,3.724,0,0,1-4.078-4.07,4.281,4.281,0,0,1,1.156-3.156A3.852,3.852,0,0,1,29.5,30.8a3.5,3.5,0,0,1,2.707,1.039,4,4,0,0,1,.957,2.82Zm-2.289-1.516q0-1.719-1.391-1.719a1.328,1.328,0,0,0-1.027.492,2.234,2.234,0,0,0-.527,1.227Zm8.977-.961a2.142,2.142,0,0,0-1.039-.242,1.5,1.5,0,0,0-1.258.59,2.573,2.573,0,0,0-.453,1.605V39H34.637V31h2.469v1.484h.031a2.136,2.136,0,0,1,2.109-1.625,1.59,1.59,0,0,1,.609.094Zm.719,5.563v-2a5.256,5.256,0,0,0,1.215.547,4.028,4.028,0,0,0,1.145.18,2.455,2.455,0,0,0,1.035-.18.581.581,0,0,0,.379-.547.506.506,0,0,0-.172-.391,1.6,1.6,0,0,0-.441-.273,5.009,5.009,0,0,0-.59-.211q-.32-.094-.617-.211a5.914,5.914,0,0,1-.84-.387,2.427,2.427,0,0,1-.609-.48A1.889,1.889,0,0,1,40.7,34.2a2.525,2.525,0,0,1-.129-.852,2.192,2.192,0,0,1,.293-1.156,2.393,2.393,0,0,1,.781-.793,3.57,3.57,0,0,1,1.117-.453,5.825,5.825,0,0,1,1.309-.145,7.261,7.261,0,0,1,1.078.082,8.047,8.047,0,0,1,1.078.238v1.906a3.9,3.9,0,0,0-1-.41,4.235,4.235,0,0,0-1.051-.137,2.328,2.328,0,0,0-.457.043,1.505,1.505,0,0,0-.379.125.7.7,0,0,0-.258.211.486.486,0,0,0-.094.293.541.541,0,0,0,.141.375,1.221,1.221,0,0,0,.367.27,3.625,3.625,0,0,0,.5.2q.277.09.551.184a7.161,7.161,0,0,1,.891.375,2.848,2.848,0,0,1,.684.477,1.871,1.871,0,0,1,.438.641,2.563,2.563,0,0,1-.156,2.09,2.471,2.471,0,0,1-.82.82,3.72,3.72,0,0,1-1.18.461,6.54,6.54,0,0,1-1.387.145A7.149,7.149,0,0,1,40.574,38.789Zm8.813-9.055a1.442,1.442,0,0,1-1.023-.371,1.2,1.2,0,0,1-.4-.91,1.153,1.153,0,0,1,.4-.906,1.671,1.671,0,0,1,2.051,0,1.158,1.158,0,0,1,.395.906,1.191,1.191,0,0,1-.395.922A1.466,1.466,0,0,1,49.387,29.734ZM50.605,39H48.137V31h2.469Zm5.891.2a4.3,4.3,0,0,1-3.145-1.121,4.064,4.064,0,0,1-1.145-3.043,4.065,4.065,0,0,1,1.188-3.105A4.487,4.487,0,0,1,56.605,30.8a4.249,4.249,0,0,1,3.125,1.121,3.985,3.985,0,0,1,1.133,2.965A4.23,4.23,0,0,1,59.7,38.039,4.348,4.348,0,0,1,56.5,39.2Zm.063-6.5a1.647,1.647,0,0,0-1.359.6,2.653,2.653,0,0,0-.484,1.7q0,2.3,1.859,2.3,1.773,0,1.773-2.367Q58.348,32.7,56.559,32.7ZM70.191,39H67.73V34.555q0-1.859-1.328-1.859a1.318,1.318,0,0,0-1.055.492,1.875,1.875,0,0,0-.414,1.25V39H62.465V31h2.469v1.266h.031a2.829,2.829,0,0,1,2.57-1.461q2.656,0,2.656,3.3Zm9.141-3.3H74.113q.125,1.742,2.2,1.742a4.286,4.286,0,0,0,2.32-.625V38.6a6.1,6.1,0,0,1-2.883.594,3.724,3.724,0,0,1-4.078-4.07,4.281,4.281,0,0,1,1.156-3.156A3.852,3.852,0,0,1,75.668,30.8a3.5,3.5,0,0,1,2.707,1.039,4,4,0,0,1,.957,2.82Zm-2.289-1.516q0-1.719-1.391-1.719a1.328,1.328,0,0,0-1.027.492,2.234,2.234,0,0,0-.527,1.227Zm3.234,4.6v-2a5.256,5.256,0,0,0,1.215.547,4.028,4.028,0,0,0,1.145.18,2.455,2.455,0,0,0,1.035-.18.581.581,0,0,0,.379-.547.506.506,0,0,0-.172-.391,1.6,1.6,0,0,0-.441-.273,5.009,5.009,0,0,0-.59-.211q-.32-.094-.617-.211a5.914,5.914,0,0,1-.84-.387,2.427,2.427,0,0,1-.609-.48,1.889,1.889,0,0,1-.375-.633,2.525,2.525,0,0,1-.129-.852A2.192,2.192,0,0,1,80.57,32.2a2.393,2.393,0,0,1,.781-.793,3.57,3.57,0,0,1,1.117-.453,5.825,5.825,0,0,1,1.309-.145,7.261,7.261,0,0,1,1.078.082,8.047,8.047,0,0,1,1.078.238v1.906a3.9,3.9,0,0,0-1-.41,4.235,4.235,0,0,0-1.051-.137,2.328,2.328,0,0,0-.457.043,1.505,1.505,0,0,0-.379.125.7.7,0,0,0-.258.211.486.486,0,0,0-.094.293.541.541,0,0,0,.141.375,1.221,1.221,0,0,0,.367.27,3.625,3.625,0,0,0,.5.2q.277.09.551.184a7.161,7.161,0,0,1,.891.375,2.848,2.848,0,0,1,.684.477,1.872,1.872,0,0,1,.438.641,2.563,2.563,0,0,1-.156,2.09,2.471,2.471,0,0,1-.82.82,3.72,3.72,0,0,1-1.18.461,6.54,6.54,0,0,1-1.387.145A7.149,7.149,0,0,1,80.277,38.789Z" transform="translate(370.051 1394.878)" fill="#12263f"/>
      <path id="Trazado_907168" data-name="Trazado 907168" d="M15.672,17h-2.75l-.8-2.492H8.14L7.351,17H4.617L8.7,5.8h2.992Zm-4.125-4.43L10.344,8.8A4.907,4.907,0,0,1,10.156,7.8h-.062a4.273,4.273,0,0,1-.2.977l-1.219,3.8ZM24.656,17H22.187V15.9h-.031a2.768,2.768,0,0,1-2.477,1.3,3.033,3.033,0,0,1-2.414-1.059,4.382,4.382,0,0,1-.914-2.957A4.77,4.77,0,0,1,17.359,10,3.287,3.287,0,0,1,20,8.8a2.246,2.246,0,0,1,2.156,1.109h.031V5.156h2.469Zm-2.422-3.891v-.6a1.893,1.893,0,0,0-.453-1.3,1.6,1.6,0,0,0-2.461.129,2.993,2.993,0,0,0-.461,1.77,2.59,2.59,0,0,0,.445,1.625,1.581,1.581,0,0,0,2.457-.031A2.507,2.507,0,0,0,22.234,13.109ZM30.547,17.2A4.3,4.3,0,0,1,27.4,16.074a4.064,4.064,0,0,1-1.145-3.043,4.065,4.065,0,0,1,1.188-3.105A4.487,4.487,0,0,1,30.656,8.8a4.249,4.249,0,0,1,3.125,1.121,3.985,3.985,0,0,1,1.133,2.965,4.23,4.23,0,0,1-1.168,3.148A4.348,4.348,0,0,1,30.547,17.2Zm.063-6.5a1.647,1.647,0,0,0-1.359.6,2.653,2.653,0,0,0-.484,1.7q0,2.3,1.859,2.3,1.773,0,1.773-2.367Q32.4,10.7,30.609,10.7Zm8.406,5.375h-.031V20.68H36.515V9h2.469v1.2h.031a3.142,3.142,0,0,1,4.973-.332,4.54,4.54,0,0,1,.848,2.9,4.922,4.922,0,0,1-.988,3.211A3.222,3.222,0,0,1,41.219,17.2,2.491,2.491,0,0,1,39.015,16.07Zm-.07-3.281v.641a2.037,2.037,0,0,0,.438,1.352,1.424,1.424,0,0,0,1.148.523,1.514,1.514,0,0,0,1.309-.652A3.15,3.15,0,0,0,42.3,12.8q0-2.109-1.641-2.109a1.541,1.541,0,0,0-1.238.574A2.29,2.29,0,0,0,38.945,12.789ZM52.5,16.711a4.881,4.881,0,0,1-2.414.484A4.083,4.083,0,0,1,47.1,16.078,3.859,3.859,0,0,1,45.961,13.2,4.251,4.251,0,0,1,47.183,9.98,4.518,4.518,0,0,1,50.453,8.8,4.2,4.2,0,0,1,52.5,9.18v2.094a2.814,2.814,0,0,0-1.727-.578,2.275,2.275,0,0,0-1.684.621,2.317,2.317,0,0,0-.621,1.715,2.28,2.28,0,0,0,.594,1.668A2.182,2.182,0,0,0,50.7,15.3a3.258,3.258,0,0,0,1.8-.578Zm2.867-8.977a1.442,1.442,0,0,1-1.023-.371,1.2,1.2,0,0,1-.4-.91,1.153,1.153,0,0,1,.4-.906,1.671,1.671,0,0,1,2.051,0,1.158,1.158,0,0,1,.395.906,1.191,1.191,0,0,1-.395.922A1.466,1.466,0,0,1,55.367,7.734ZM56.586,17H54.117V9h2.469Zm5.891.2a4.3,4.3,0,0,1-3.145-1.121,4.064,4.064,0,0,1-1.145-3.043,4.065,4.065,0,0,1,1.188-3.105A4.487,4.487,0,0,1,62.586,8.8a4.249,4.249,0,0,1,3.125,1.121,3.985,3.985,0,0,1,1.133,2.965,4.23,4.23,0,0,1-1.168,3.148A4.348,4.348,0,0,1,62.476,17.2Zm.063-6.5a1.647,1.647,0,0,0-1.359.6A2.653,2.653,0,0,0,60.7,13q0,2.3,1.859,2.3,1.773,0,1.773-2.367Q64.328,10.7,62.539,10.7Zm2.648-5.484L62.742,7.734H60.961l2.031-2.523ZM76.164,17H73.7V12.555q0-1.859-1.328-1.859a1.318,1.318,0,0,0-1.055.492,1.875,1.875,0,0,0-.414,1.25V17H68.437V9h2.469v1.266h.031A2.829,2.829,0,0,1,73.508,8.8q2.656,0,2.656,3.3Zm14.2,0H87.89V15.9h-.031a2.768,2.768,0,0,1-2.477,1.3,3.033,3.033,0,0,1-2.414-1.059,4.382,4.382,0,0,1-.914-2.957A4.77,4.77,0,0,1,83.062,10,3.287,3.287,0,0,1,85.7,8.8a2.246,2.246,0,0,1,2.156,1.109h.031V5.156h2.469Zm-2.422-3.891v-.6a1.893,1.893,0,0,0-.453-1.3,1.6,1.6,0,0,0-2.461.129,2.993,2.993,0,0,0-.461,1.77,2.59,2.59,0,0,0,.445,1.625,1.581,1.581,0,0,0,2.457-.031A2.507,2.507,0,0,0,87.937,13.109Zm11.688.594H94.406q.125,1.742,2.2,1.742a4.286,4.286,0,0,0,2.32-.625V16.6a6.1,6.1,0,0,1-2.883.594,4.058,4.058,0,0,1-3.008-1.074,4.058,4.058,0,0,1-1.07-3,4.281,4.281,0,0,1,1.156-3.156A3.852,3.852,0,0,1,95.961,8.8a3.5,3.5,0,0,1,2.707,1.039,4,4,0,0,1,.957,2.82Zm-2.289-1.516q0-1.719-1.391-1.719a1.328,1.328,0,0,0-1.027.492,2.234,2.234,0,0,0-.527,1.227Zm14.234,4.523a4.881,4.881,0,0,1-2.414.484,4.083,4.083,0,0,1-2.984-1.117,3.859,3.859,0,0,1-1.141-2.883,4.251,4.251,0,0,1,1.223-3.215,4.518,4.518,0,0,1,3.27-1.176,4.2,4.2,0,0,1,2.047.375v2.094a2.814,2.814,0,0,0-1.727-.578,2.275,2.275,0,0,0-1.684.621,2.317,2.317,0,0,0-.621,1.715,2.28,2.28,0,0,0,.594,1.668,2.182,2.182,0,0,0,1.633.605,3.258,3.258,0,0,0,1.8-.578Zm6.836-5.484a2.141,2.141,0,0,0-1.039-.242,1.5,1.5,0,0,0-1.258.59,2.573,2.573,0,0,0-.453,1.605V17h-2.469V9h2.469v1.484h.031A2.136,2.136,0,0,1,117.8,8.859a1.59,1.59,0,0,1,.609.094Zm2.461-3.492a1.442,1.442,0,0,1-1.023-.371,1.2,1.2,0,0,1-.4-.91,1.153,1.153,0,0,1,.4-.906,1.671,1.671,0,0,1,2.051,0,1.158,1.158,0,0,1,.395.906,1.191,1.191,0,0,1-.395.922A1.466,1.466,0,0,1,120.867,7.734ZM122.086,17h-2.469V9h2.469ZM129,16.906a3.649,3.649,0,0,1-1.648.289q-2.609,0-2.609-2.711V10.82h-1.3V9h1.3V7.273l2.461-.7V9H129v1.82h-1.8v3.234q0,1.25.992,1.25a1.673,1.673,0,0,0,.8-.227Zm8.516-3.2H132.3q.125,1.742,2.2,1.742a4.286,4.286,0,0,0,2.32-.625V16.6a6.1,6.1,0,0,1-2.883.594,4.058,4.058,0,0,1-3.008-1.074,4.058,4.058,0,0,1-1.07-3,4.281,4.281,0,0,1,1.156-3.156A3.852,3.852,0,0,1,133.851,8.8a3.5,3.5,0,0,1,2.707,1.039,4,4,0,0,1,.957,2.82Zm-2.289-1.516q0-1.719-1.391-1.719a1.328,1.328,0,0,0-1.027.492,2.234,2.234,0,0,0-.527,1.227Zm8.977-.961a2.142,2.142,0,0,0-1.039-.242,1.5,1.5,0,0,0-1.258.59,2.573,2.573,0,0,0-.453,1.605V17h-2.469V9h2.469v1.484h.031a2.136,2.136,0,0,1,2.109-1.625,1.59,1.59,0,0,1,.609.094Zm2.461-3.492a1.442,1.442,0,0,1-1.023-.371,1.2,1.2,0,0,1-.4-.91,1.153,1.153,0,0,1,.4-.906,1.671,1.671,0,0,1,2.051,0,1.158,1.158,0,0,1,.395.906,1.191,1.191,0,0,1-.395.922A1.466,1.466,0,0,1,146.664,7.734ZM147.883,17h-2.469V9h2.469Zm5.891.2a4.3,4.3,0,0,1-3.145-1.121,4.064,4.064,0,0,1-1.145-3.043,4.065,4.065,0,0,1,1.188-3.105A4.487,4.487,0,0,1,153.883,8.8a4.249,4.249,0,0,1,3.125,1.121,3.985,3.985,0,0,1,1.133,2.965,4.23,4.23,0,0,1-1.168,3.148A4.348,4.348,0,0,1,153.773,17.2Zm.063-6.5a1.647,1.647,0,0,0-1.359.6,2.653,2.653,0,0,0-.484,1.7q0,2.3,1.859,2.3,1.773,0,1.773-2.367Q155.625,10.7,153.836,10.7Zm5.383,6.094v-2a5.256,5.256,0,0,0,1.215.547,4.028,4.028,0,0,0,1.145.18,2.455,2.455,0,0,0,1.035-.18.581.581,0,0,0,.379-.547.506.506,0,0,0-.172-.391,1.6,1.6,0,0,0-.441-.273,5.009,5.009,0,0,0-.59-.211q-.32-.094-.617-.211a5.914,5.914,0,0,1-.84-.387,2.427,2.427,0,0,1-.609-.48,1.889,1.889,0,0,1-.375-.633,2.525,2.525,0,0,1-.129-.852,2.192,2.192,0,0,1,.293-1.156,2.393,2.393,0,0,1,.781-.793,3.57,3.57,0,0,1,1.117-.453,5.825,5.825,0,0,1,1.309-.145,7.261,7.261,0,0,1,1.078.082,8.047,8.047,0,0,1,1.078.238v1.906a3.9,3.9,0,0,0-1-.41,4.235,4.235,0,0,0-1.051-.137,2.328,2.328,0,0,0-.457.043,1.505,1.505,0,0,0-.379.125.7.7,0,0,0-.258.211.486.486,0,0,0-.094.293.541.541,0,0,0,.141.375,1.221,1.221,0,0,0,.367.27,3.625,3.625,0,0,0,.5.2q.277.09.551.184a7.161,7.161,0,0,1,.891.375,2.848,2.848,0,0,1,.684.477,1.871,1.871,0,0,1,.438.641,2.563,2.563,0,0,1-.156,2.09,2.471,2.471,0,0,1-.82.82,3.72,3.72,0,0,1-1.18.461,6.54,6.54,0,0,1-1.387.145A7.149,7.149,0,0,1,159.219,16.789ZM42.855,29.852h-3.2V39H37.129V29.852h-3.18V27.8h8.906ZM46.886,39H44.363V27.8h2.523Zm11.945,0h-2.9l-1.742-2.883q-.2-.328-.375-.586a3.255,3.255,0,0,0-.363-.441,1.445,1.445,0,0,0-.383-.281.972.972,0,0,0-.434-.1h-.68V39H49.433V27.8h4q4.078,0,4.078,3.047a3.155,3.155,0,0,1-.18,1.082,3.006,3.006,0,0,1-.508.895,3.219,3.219,0,0,1-.793.688A4.09,4.09,0,0,1,55,33.961v.031a1.606,1.606,0,0,1,.484.254,3.468,3.468,0,0,1,.453.41,5.723,5.723,0,0,1,.418.5q.2.27.363.527Zm-6.875-9.312V32.8h1.094a1.813,1.813,0,0,0,1.3-.469,1.564,1.564,0,0,0,.5-1.18q0-1.469-1.758-1.469Zm10.016,7.344-1.148,3.953H58.9l.8-3.953ZM77.957,27.8,74.1,39H71.238L67.426,27.8h2.719l2.336,7.8a5.584,5.584,0,0,1,.227,1.117h.047A6.315,6.315,0,0,1,73,35.563l2.32-7.766Zm3.867,7.344V39H79.3V27.8h3.953q4.234,0,4.234,3.57a3.426,3.426,0,0,1-1.215,2.73,4.813,4.813,0,0,1-3.246,1.043Zm0-5.406v3.492h.992q2.016,0,2.016-1.766,0-1.727-2.016-1.727ZM99.207,39H96.66l-4.617-7.039a10.178,10.178,0,0,1-.562-.93h-.031q.062.594.063,1.813V39H89.129V27.8h2.719l4.445,6.82q.3.461.563.914h.031a11.979,11.979,0,0,1-.062-1.539V27.8h2.383Zm4.656-1.969-1.148,3.953h-1.922l.8-3.953ZM110.519,39V27.8H114.6a5.093,5.093,0,0,1,2.883.688,2.211,2.211,0,0,1,1.008,1.938,2.293,2.293,0,0,1-.613,1.586,3.222,3.222,0,0,1-1.566.945v.031a3.1,3.1,0,0,1,1.91.883,2.469,2.469,0,0,1,.715,1.789,2.99,2.99,0,0,1-1.1,2.441,4.61,4.61,0,0,1-3.008.9Zm2.523-9.344v2.656h1.109a1.849,1.849,0,0,0,1.23-.379,1.291,1.291,0,0,0,.449-1.043q0-1.234-1.844-1.234Zm0,4.531v2.953h1.367a2.1,2.1,0,0,0,1.371-.406,1.357,1.357,0,0,0,.5-1.109,1.266,1.266,0,0,0-.488-1.055,2.16,2.16,0,0,0-1.363-.383ZM126.777,27.8l-5.461,13.063h-2.2L124.551,27.8ZM135.9,38.6a7.388,7.388,0,0,1-3.2.594,5.4,5.4,0,0,1-4.055-1.516,5.54,5.54,0,0,1-1.477-4.039,5.919,5.919,0,0,1,1.66-4.359,5.807,5.807,0,0,1,4.309-1.672,8.058,8.058,0,0,1,2.766.414v2.43a4.9,4.9,0,0,0-2.562-.672,3.4,3.4,0,0,0-2.547.992,3.682,3.682,0,0,0-.969,2.688,3.611,3.611,0,0,0,.914,2.59,3.229,3.229,0,0,0,2.461.965,5.249,5.249,0,0,0,2.7-.719Z" transform="translate(752.533 1397.071)" fill="#12263f"/>
      <path id="Trazado_907167" data-name="Trazado 907167" d="M43.282,7.852H39.329V10.6h3.633v2.047H39.329V17H36.805V5.8h6.477ZM47.352,17H44.883V5.156h2.469Zm9.68,0H54.571V15.781h-.039A2.792,2.792,0,0,1,52.087,17.2q-2.781,0-2.781-3.367V9h2.461v4.609q0,1.7,1.344,1.7a1.329,1.329,0,0,0,1.063-.465,1.874,1.874,0,0,0,.4-1.262V9h2.461ZM60.36,7.734a1.442,1.442,0,0,1-1.023-.371,1.2,1.2,0,0,1-.4-.91,1.153,1.153,0,0,1,.4-.906,1.671,1.671,0,0,1,2.051,0,1.158,1.158,0,0,1,.395.906,1.191,1.191,0,0,1-.395.922A1.466,1.466,0,0,1,60.36,7.734Zm1.219,9.125a4.349,4.349,0,0,1-.867,2.836,3.041,3.041,0,0,1-2.5,1.063,3.457,3.457,0,0,1-1.18-.234V18.586a1.923,1.923,0,0,0,.914.289q1.164,0,1.164-1.828V9h2.469Zm5.891.336a4.3,4.3,0,0,1-3.145-1.121,4.064,4.064,0,0,1-1.145-3.043,4.065,4.065,0,0,1,1.188-3.105A4.487,4.487,0,0,1,67.579,8.8,4.249,4.249,0,0,1,70.7,9.926a3.985,3.985,0,0,1,1.133,2.965,4.23,4.23,0,0,1-1.168,3.148A4.348,4.348,0,0,1,67.469,17.2Zm.063-6.5a1.647,1.647,0,0,0-1.359.6,2.653,2.653,0,0,0-.484,1.7q0,2.3,1.859,2.3,1.773,0,1.773-2.367Q69.321,10.7,67.532,10.7ZM85.68,17H83.212V15.9H83.18A2.768,2.768,0,0,1,80.7,17.2a3.033,3.033,0,0,1-2.414-1.059,4.382,4.382,0,0,1-.914-2.957A4.77,4.77,0,0,1,78.383,10a3.287,3.287,0,0,1,2.641-1.2A2.246,2.246,0,0,1,83.18,9.914h.031V5.156H85.68Zm-2.422-3.891v-.6a1.893,1.893,0,0,0-.453-1.3,1.6,1.6,0,0,0-2.461.129,2.993,2.993,0,0,0-.461,1.77,2.59,2.59,0,0,0,.445,1.625,1.581,1.581,0,0,0,2.457-.031A2.507,2.507,0,0,0,83.258,13.109Zm11.688.594H89.727q.125,1.742,2.2,1.742a4.286,4.286,0,0,0,2.32-.625V16.6a6.1,6.1,0,0,1-2.883.594,4.058,4.058,0,0,1-3.008-1.074,4.058,4.058,0,0,1-1.07-3,4.281,4.281,0,0,1,1.156-3.156A3.852,3.852,0,0,1,91.282,8.8a3.5,3.5,0,0,1,2.707,1.039,4,4,0,0,1,.957,2.82Zm-2.289-1.516q0-1.719-1.391-1.719a1.328,1.328,0,0,0-1.027.492,2.234,2.234,0,0,0-.527,1.227ZM26.512,38.07h-.031V42.68H24.012V31h2.469v1.2h.031a3.142,3.142,0,0,1,4.973-.332,4.54,4.54,0,0,1,.848,2.9,4.922,4.922,0,0,1-.988,3.211A3.222,3.222,0,0,1,28.715,39.2,2.491,2.491,0,0,1,26.512,38.07Zm-.07-3.281v.641a2.037,2.037,0,0,0,.438,1.352,1.424,1.424,0,0,0,1.148.523,1.514,1.514,0,0,0,1.309-.652A3.15,3.15,0,0,0,29.8,34.8q0-2.109-1.641-2.109a1.541,1.541,0,0,0-1.238.574A2.29,2.29,0,0,0,26.442,34.789Zm12.711-1.562a2.142,2.142,0,0,0-1.039-.242,1.5,1.5,0,0,0-1.258.59A2.573,2.573,0,0,0,36.4,35.18V39H33.934V31H36.4v1.484h.031a2.136,2.136,0,0,1,2.109-1.625,1.59,1.59,0,0,1,.609.094Zm4.9,5.969a4.3,4.3,0,0,1-3.145-1.121,4.064,4.064,0,0,1-1.145-3.043,4.065,4.065,0,0,1,1.188-3.105A4.487,4.487,0,0,1,44.161,30.8a4.249,4.249,0,0,1,3.125,1.121,3.985,3.985,0,0,1,1.133,2.965,4.23,4.23,0,0,1-1.168,3.148A4.348,4.348,0,0,1,44.051,39.2Zm.063-6.5a1.647,1.647,0,0,0-1.359.6A2.653,2.653,0,0,0,42.27,35q0,2.3,1.859,2.3,1.773,0,1.773-2.367Q45.9,32.7,44.114,32.7ZM57.848,39H55.38V37.9h-.031a2.768,2.768,0,0,1-2.477,1.3,3.033,3.033,0,0,1-2.414-1.059,4.382,4.382,0,0,1-.914-2.957A4.77,4.77,0,0,1,50.551,32a3.287,3.287,0,0,1,2.641-1.2,2.246,2.246,0,0,1,2.156,1.109h.031V27.156h2.469Zm-2.422-3.891v-.6a1.893,1.893,0,0,0-.453-1.3,1.6,1.6,0,0,0-2.461.129,2.993,2.993,0,0,0-.461,1.77,2.59,2.59,0,0,0,.445,1.625,1.581,1.581,0,0,0,2.457-.031A2.507,2.507,0,0,0,55.426,35.109ZM67.528,39H65.067V37.781h-.039A2.792,2.792,0,0,1,62.583,39.2q-2.781,0-2.781-3.367V31h2.461v4.609q0,1.7,1.344,1.7a1.329,1.329,0,0,0,1.063-.465,1.874,1.874,0,0,0,.4-1.262V31h2.461Zm8.141-.289a4.881,4.881,0,0,1-2.414.484,4.083,4.083,0,0,1-2.984-1.117A3.859,3.859,0,0,1,69.13,35.2a4.251,4.251,0,0,1,1.223-3.215,4.518,4.518,0,0,1,3.27-1.176,4.2,4.2,0,0,1,2.047.375v2.094a2.814,2.814,0,0,0-1.727-.578,2.275,2.275,0,0,0-1.684.621,2.317,2.317,0,0,0-.621,1.715,2.28,2.28,0,0,0,.594,1.668,2.182,2.182,0,0,0,1.633.605,3.258,3.258,0,0,0,1.8-.578Zm7.68,0a4.881,4.881,0,0,1-2.414.484,4.083,4.083,0,0,1-2.984-1.117A3.859,3.859,0,0,1,76.809,35.2a4.251,4.251,0,0,1,1.223-3.215A4.518,4.518,0,0,1,81.3,30.8a4.2,4.2,0,0,1,2.047.375v2.094a2.814,2.814,0,0,0-1.727-.578,2.275,2.275,0,0,0-1.684.621,2.317,2.317,0,0,0-.621,1.715,2.28,2.28,0,0,0,.594,1.668,2.182,2.182,0,0,0,1.633.605,3.258,3.258,0,0,0,1.8-.578Zm2.867-8.977a1.442,1.442,0,0,1-1.023-.371,1.2,1.2,0,0,1-.4-.91,1.153,1.153,0,0,1,.4-.906,1.671,1.671,0,0,1,2.051,0,1.158,1.158,0,0,1,.395.906,1.191,1.191,0,0,1-.395.922A1.466,1.466,0,0,1,86.215,29.734ZM87.434,39H84.965V31h2.469Zm5.891.2a4.3,4.3,0,0,1-3.145-1.121,4.064,4.064,0,0,1-1.145-3.043,4.065,4.065,0,0,1,1.188-3.105A4.487,4.487,0,0,1,93.434,30.8a4.249,4.249,0,0,1,3.125,1.121,3.985,3.985,0,0,1,1.133,2.965,4.23,4.23,0,0,1-1.168,3.148A4.348,4.348,0,0,1,93.325,39.2Zm.063-6.5a1.647,1.647,0,0,0-1.359.6,2.653,2.653,0,0,0-.484,1.7q0,2.3,1.859,2.3,1.773,0,1.773-2.367Q95.176,32.7,93.387,32.7Zm2.648-5.484L93.59,29.734H91.809l2.031-2.523ZM107.012,39h-2.461V34.555q0-1.859-1.328-1.859a1.318,1.318,0,0,0-1.055.492,1.875,1.875,0,0,0-.414,1.25V39H99.286V31h2.469v1.266h.031a2.829,2.829,0,0,1,2.57-1.461q2.656,0,2.656,3.3Z" transform="translate(540.501 1398.343)" fill="#12263f"/>
      <path id="Trazado_907169" data-name="Trazado 907169" d="M62,17h-2.75l-.8-2.492H54.473L53.684,17H50.949L55.027,5.8H58.02Zm-4.125-4.43L56.676,8.8A4.907,4.907,0,0,1,56.488,7.8h-.062a4.273,4.273,0,0,1-.2.977l-1.219,3.8ZM70.887,17H68.426V12.555q0-1.859-1.328-1.859a1.318,1.318,0,0,0-1.055.492,1.875,1.875,0,0,0-.414,1.25V17H63.16V9h2.469v1.266h.031A2.829,2.829,0,0,1,68.23,8.8q2.656,0,2.656,3.3ZM79.5,17H77.16V15.852h-.031A2.607,2.607,0,0,1,74.746,17.2a2.492,2.492,0,0,1-1.832-.66,2.366,2.366,0,0,1-.668-1.762q0-2.328,2.758-2.687l2.172-.289q0-1.312-1.422-1.312a4.853,4.853,0,0,0-2.719.852V9.477a6.116,6.116,0,0,1,1.41-.469,7.413,7.413,0,0,1,1.629-.2q3.422,0,3.422,3.414Zm-2.32-3.25v-.539l-1.453.188q-1.2.156-1.2,1.086a.9.9,0,0,0,.293.691,1.126,1.126,0,0,0,.793.27,1.462,1.462,0,0,0,1.133-.48A1.735,1.735,0,0,0,77.176,13.75Zm1.586-8.539L76.316,7.734H74.535l2.031-2.523ZM83.918,17H81.449V5.156h2.469Zm3.328-9.266a1.442,1.442,0,0,1-1.023-.371,1.2,1.2,0,0,1-.4-.91,1.153,1.153,0,0,1,.4-.906,1.671,1.671,0,0,1,2.051,0,1.158,1.158,0,0,1,.395.906,1.191,1.191,0,0,1-.395.922A1.466,1.466,0,0,1,87.246,7.734ZM88.465,17H86V9h2.469Zm1.555-.211v-2a5.256,5.256,0,0,0,1.215.547,4.028,4.028,0,0,0,1.145.18,2.455,2.455,0,0,0,1.035-.18.581.581,0,0,0,.379-.547.506.506,0,0,0-.172-.391,1.6,1.6,0,0,0-.441-.273,5.009,5.009,0,0,0-.59-.211q-.32-.094-.617-.211a5.913,5.913,0,0,1-.84-.387,2.427,2.427,0,0,1-.609-.48,1.889,1.889,0,0,1-.375-.633,2.525,2.525,0,0,1-.129-.852,2.192,2.192,0,0,1,.293-1.156,2.393,2.393,0,0,1,.781-.793,3.57,3.57,0,0,1,1.117-.453A5.825,5.825,0,0,1,93.52,8.8a7.261,7.261,0,0,1,1.078.082,8.047,8.047,0,0,1,1.078.238v1.906a3.9,3.9,0,0,0-1-.41,4.235,4.235,0,0,0-1.051-.137,2.328,2.328,0,0,0-.457.043,1.505,1.505,0,0,0-.379.125.7.7,0,0,0-.258.211.486.486,0,0,0-.094.293.541.541,0,0,0,.141.375,1.221,1.221,0,0,0,.367.27,3.625,3.625,0,0,0,.5.2q.277.09.551.184a7.161,7.161,0,0,1,.891.375,2.848,2.848,0,0,1,.684.477,1.872,1.872,0,0,1,.438.641,2.563,2.563,0,0,1-.156,2.09,2.471,2.471,0,0,1-.82.82,3.72,3.72,0,0,1-1.18.461,6.54,6.54,0,0,1-1.387.145A7.149,7.149,0,0,1,90.02,16.789Zm8.813-9.055a1.442,1.442,0,0,1-1.023-.371,1.2,1.2,0,0,1-.4-.91,1.153,1.153,0,0,1,.4-.906,1.671,1.671,0,0,1,2.051,0,1.158,1.158,0,0,1,.395.906,1.191,1.191,0,0,1-.395.922A1.466,1.466,0,0,1,98.832,7.734ZM100.051,17H97.582V9h2.469Zm1.555-.211v-2a5.256,5.256,0,0,0,1.215.547,4.028,4.028,0,0,0,1.145.18,2.455,2.455,0,0,0,1.035-.18.581.581,0,0,0,.379-.547.506.506,0,0,0-.172-.391,1.6,1.6,0,0,0-.441-.273,5.009,5.009,0,0,0-.59-.211q-.32-.094-.617-.211a5.913,5.913,0,0,1-.84-.387,2.427,2.427,0,0,1-.609-.48,1.889,1.889,0,0,1-.375-.633,2.525,2.525,0,0,1-.129-.852A2.192,2.192,0,0,1,101.9,10.2a2.393,2.393,0,0,1,.781-.793,3.57,3.57,0,0,1,1.117-.453,5.825,5.825,0,0,1,1.309-.145,7.261,7.261,0,0,1,1.078.082,8.047,8.047,0,0,1,1.078.238v1.906a3.9,3.9,0,0,0-1-.41,4.235,4.235,0,0,0-1.051-.137,2.328,2.328,0,0,0-.457.043,1.505,1.505,0,0,0-.379.125.7.7,0,0,0-.258.211.486.486,0,0,0-.094.293.541.541,0,0,0,.141.375,1.221,1.221,0,0,0,.367.27,3.625,3.625,0,0,0,.5.2q.277.09.551.184a7.161,7.161,0,0,1,.891.375,2.848,2.848,0,0,1,.684.477,1.872,1.872,0,0,1,.438.641,2.563,2.563,0,0,1-.156,2.09,2.471,2.471,0,0,1-.82.82,3.72,3.72,0,0,1-1.18.461,6.54,6.54,0,0,1-1.387.145A7.149,7.149,0,0,1,101.605,16.789Z" transform="translate(1006.9 1403.036)" fill="#12263f"/>
    </g>
    <g id="Grupo_1100338" data-name="Grupo 1100338" transform="translate(481.748 1426.387) rotate(-90)">
      <path id="Trazado_873496" data-name="Trazado 873496" d="M0,0V40.334" transform="translate(10.664 0)" fill="none" stroke="#a0c9f6" stroke-width="2"/>
      <g id="Grupo_1099075" data-name="Grupo 1099075" transform="translate(0 24.551)">
        <g id="Grupo_1099074" data-name="Grupo 1099074" clip-path="url(#clip-path-6)">
          <path id="Trazado_873497" data-name="Trazado 873497" d="M20.667,0A21.249,21.249,0,0,0,10.334,18.241,21.248,21.248,0,0,0,0,0" transform="translate(0.33 0.551)" fill="none" stroke="#a0c9f6" stroke-miterlimit="10" stroke-width="2"/>
        </g>
      </g>
    </g>
    <g id="Grupo_1100339" data-name="Grupo 1100339" transform="translate(681.331 1426.961) rotate(-90)">
      <path id="Trazado_873496-2" data-name="Trazado 873496" d="M0,0V40.334" transform="translate(10.664 0)" fill="none" stroke="#adecd1" stroke-width="2"/>
      <g id="Grupo_1099075-2" data-name="Grupo 1099075" transform="translate(0 24.551)">
        <g id="Grupo_1099074-2" data-name="Grupo 1099074" clip-path="url(#clip-path-7)">
          <path id="Trazado_873497-2" data-name="Trazado 873497" d="M20.667,0A21.249,21.249,0,0,0,10.334,18.241,21.248,21.248,0,0,0,0,0" transform="translate(0.33 0.551)" fill="none" stroke="#adecd1" stroke-miterlimit="10" stroke-width="2"/>
        </g>
      </g>
    </g>
    <g id="Grupo_1100340" data-name="Grupo 1100340" transform="translate(948.339 1426.961) rotate(-90)">
      <path id="Trazado_873496-3" data-name="Trazado 873496" d="M0,0V40.334" transform="translate(10.664 0)" fill="none" stroke="#4e8e69" stroke-width="2"/>
      <g id="Grupo_1099075-3" data-name="Grupo 1099075" transform="translate(0 24.551)">
        <g id="Grupo_1099074-3" data-name="Grupo 1099074" clip-path="url(#clip-path-8)">
          <path id="Trazado_873497-3" data-name="Trazado 873497" d="M20.667,0A21.249,21.249,0,0,0,10.334,18.241,21.248,21.248,0,0,0,0,0" transform="translate(0.33 0.551)" fill="none" stroke="#4e8e69" stroke-miterlimit="10" stroke-width="2"/>
        </g>
      </g>
    </g>
  </g>
</svg>
