<svg xmlns="http://www.w3.org/2000/svg" xmlns:xlink="http://www.w3.org/1999/xlink" width="335.667" height="416.937" viewBox="0 0 335.667 416.937">
  <defs>
    <clipPath id="clip-path">
      <path id="Trazado_874381" data-name="Trazado 874381" d="M4.832,0h326c2.668,0,4.832,7,4.832,15.625V401.312c0,8.629-2.163,15.625-4.832,15.625h-326c-2.668,0-4.832-7-4.832-15.625V15.625C0,7,2.163,0,4.832,0Z" transform="translate(0 0)" fill="#f6f6f6"/>
    </clipPath>
    <clipPath id="clip-path-2">
      <path id="Trazado_874362" data-name="Trazado 874362" d="M0,0,780.854,39.7l35.976,633.1L35.976,633.1Z" fill="#fff"/>
    </clipPath>
    <clipPath id="clip-path-3">
      <path id="Trazado_874367" data-name="Trazado 874367" d="M407.387-49.959C260.9-31.586,125.487,30.092,33.615,127.719c-23.392,24.87-44.308,52.617-52.917,85.095s-3.353,70.5,21.121,99.224c31.594,37.09,85.628,50.431,141.972,64.115-16.8,6.118-23.278,25.618-17,42.092,13.424,35.212,59.256,44.769,97.048,45.668C349.8,466.9,463.755,416.639,560.8,354.045c50.985-32.885,99.351-70.018,133.768-117.173,22.613-30.98,39.932-77.156,3.535-109.15-16.789-14.761-44.9-19.444-61.837-5.265,26.888-26.175,25.13-71.1,1.861-104.521s-64.169-55.71-105.786-65.281a271.821,271.821,0,0,0-47.138-6.387c-26.182-1.341-52.328.576-77.821,3.774" fill="#fff"/>
    </clipPath>
    <clipPath id="clip-path-4">
      <path id="Trazado_874369" data-name="Trazado 874369" d="M76.417,107.021,865.655,78.446,839.76,703.953,50.522,732.528Z" fill="#fff"/>
    </clipPath>
    <clipPath id="clip-path-5">
      <path id="Trazado_874374" data-name="Trazado 874374" d="M494.814,64.908c-150.6,31-294.235,104.034-397.182,208.973-26.213,26.731-50.2,56.1-62.143,89.1s-10.358,70.291,11.668,96.685c28.434,34.077,82,42.619,137.885,51.3-17.671,7.538-26.171,27.464-21.414,43.275,10.163,33.795,55.774,39.293,94.073,36.9,127.643-8,248.352-67.832,353.1-138.436,55.031-37.093,107.821-78.176,147.43-128,26.024-32.731,48.171-80.089,14.356-108.688-15.6-13.195-43.692-15.4-62.292.156,29.893-28.331,32.538-72.788,12.2-103.946S662.812,62.5,621.484,56.622a267.31,267.31,0,0,0-47.251-2.237c-26.462.948-53.209,5.128-79.419,10.524" fill="#fff"/>
    </clipPath>
    <clipPath id="clip-path-6">
      <rect id="Rectángulo_401216" data-name="Rectángulo 401216" width="21.328" height="18.792" fill="none" stroke="#a0c9f6" stroke-width="1"/>
    </clipPath>
    <clipPath id="clip-path-7">
      <rect id="Rectángulo_401216-2" data-name="Rectángulo 401216" width="21.328" height="18.792" fill="none" stroke="#adecd1" stroke-width="1"/>
    </clipPath>
    <clipPath id="clip-path-8">
      <rect id="Rectángulo_401216-3" data-name="Rectángulo 401216" width="21.328" height="18.792" fill="none" stroke="#4e8e69" stroke-width="1"/>
    </clipPath>
  </defs>
  <g id="Grupo_1100708" data-name="Grupo 1100708" transform="translate(5523.496 8267.937)">
    <g id="Enmascarar_grupo_1098725" data-name="Enmascarar grupo 1098725" transform="translate(-5523.496 -8267.937)" clip-path="url(#clip-path)">
      <path id="Trazado_874360" data-name="Trazado 874360" d="M5.048,0H345.634c2.788,0,5.048,7.622,5.048,17.024V437.256c0,9.4-2.26,17.024-5.048,17.024H5.048C2.26,454.28,0,446.658,0,437.256V17.024C0,7.622,2.26,0,5.048,0Z" transform="translate(-5.681 -13.815)" fill="#f6f6f6"/>
      <g id="Grupo_1099742" data-name="Grupo 1099742" transform="matrix(-0.927, 0.375, -0.375, -0.927, 966.346, 423.716)" opacity="0.49" style="isolation: isolate">
        <g id="Grupo_1099739" data-name="Grupo 1099739" transform="translate(0 0)">
          <g id="Grupo_1099738" data-name="Grupo 1099738" clip-path="url(#clip-path-2)">
            <path id="Trazado_874361" data-name="Trazado 874361" d="M636.27,122.463c26.888-26.175,25.123-71.1,1.862-104.521s-64.176-55.71-105.786-65.281-84.134-7.738-124.959-2.62C260.9-31.58,125.479,30.1,33.614,127.725,10.222,152.589-10.7,180.342-19.3,212.82s-3.353,70.489,21.121,99.218C33.4,349.127,87.447,362.476,143.79,376.16c-16.81,6.118-23.278,25.611-17,42.092,13.424,35.212,59.248,44.769,97.041,45.668C349.8,466.91,463.754,416.639,560.8,354.051c50.985-32.885,99.351-70.018,133.767-117.173,22.62-30.986,39.94-77.155,3.543-109.156-16.789-14.754-44.9-19.437-61.836-5.259" transform="translate(77.017 140.651)" fill="#fff"/>
          </g>
        </g>
        <g id="Grupo_1099741" data-name="Grupo 1099741" transform="translate(77.017 140.657)">
          <g id="Grupo_1099740" data-name="Grupo 1099740" transform="translate(0 0)" clip-path="url(#clip-path-3)">
            <path id="Trazado_874363" data-name="Trazado 874363" d="M-22.235,227.353s395.354,87.834,306.15-262.172" transform="translate(-31.207 -19)" fill="#fff"/>
            <path id="Trazado_874364" data-name="Trazado 874364" d="M-34.777,355.591S320.818,477.269,430.463-52.792" transform="translate(-10.945 -12.506)" fill="#fff"/>
            <path id="Trazado_874365" data-name="Trazado 874365" d="M-53.955,551.689s227.793,33.36,347.737-219.159S400.723-49.145,400.723-49.145" transform="translate(145.298 -56.404)" fill="#fff"/>
            <path id="Trazado_874366" data-name="Trazado 874366" d="M230.889-28.316s1.645,232.045-264.658,373.6" transform="translate(452.614 102.867)" fill="#fff"/>
          </g>
        </g>
      </g>
      <ellipse id="Elipse_11549" data-name="Elipse 11549" cx="212.618" cy="181.83" rx="212.618" ry="181.83" transform="translate(6.565 -129.498)" fill="#e8e8e8" opacity="0.37" style="mix-blend-mode: multiply;isolation: isolate"/>
      <ellipse id="Elipse_11550" data-name="Elipse 11550" cx="212.758" cy="182.242" rx="212.758" ry="182.242" transform="translate(-206.313 122.341)" fill="#fff" opacity="0.65"/>
      <ellipse id="Elipse_11551" data-name="Elipse 11551" cx="212.758" cy="182.242" rx="212.758" ry="182.242" transform="translate(261.021 -62.643)" fill="#fff" opacity="0.65"/>
      <g id="Grupo_1099747" data-name="Grupo 1099747" transform="translate(161.629 652.122) rotate(-165)" opacity="0.3" style="isolation: isolate">
        <g id="Grupo_1099744" data-name="Grupo 1099744" transform="translate(0 0)">
          <g id="Grupo_1099743" data-name="Grupo 1099743" clip-path="url(#clip-path-4)">
            <path id="Trazado_874368" data-name="Trazado 874368" d="M710.3,216.176c29.893-28.331,32.531-72.788,12.2-103.946S662.8,62.5,621.483,56.621s-84.7-.357-126.669,8.28C344.211,95.906,200.572,168.942,97.632,273.88c-26.213,26.725-50.2,56.1-62.143,89.1s-10.358,70.284,11.668,96.679c28.426,34.077,82,42.626,137.885,51.307-17.678,7.539-26.171,27.458-21.414,43.275,10.163,33.795,55.766,39.294,94.066,36.9,127.65-8,248.36-67.839,353.1-138.436,55.031-37.093,107.821-78.176,147.43-128,26.032-32.737,48.178-80.089,14.363-108.695-15.6-13.188-43.692-15.39-62.292.163" transform="translate(64.691 89.991)" fill="#fff"/>
          </g>
        </g>
        <g id="Grupo_1099746" data-name="Grupo 1099746" transform="translate(64.691 89.991)">
          <g id="Grupo_1099745" data-name="Grupo 1099745" transform="translate(0 0)" clip-path="url(#clip-path-5)">
            <path id="Trazado_874370" data-name="Trazado 874370" d="M22.036,319.5S414.954,372.291,358.864,32.52" transform="translate(-20.783 42.024)" fill="#fff"/>
            <path id="Trazado_874371" data-name="Trazado 874371" d="M34.18,495.587s349.2,89.855,512.843-446.016" transform="translate(-38.374 -0.951)" fill="#fff"/>
            <path id="Trazado_874372" data-name="Trazado 874372" d="M47.431,687.71S275.522,701,422.259,439.815,568.526,51.52,568.526,51.52" transform="translate(72.589 -53.882)" fill="#fff"/>
            <path id="Trazado_874373" data-name="Trazado 874373" d="M334.94,30.352S313.727,260.618,29.268,424.367" transform="translate(428.06 134.143)" fill="#fff"/>
          </g>
        </g>
      </g>
      <g id="Grupo_1099748" data-name="Grupo 1099748" transform="translate(-109.358 -255.813)">
        <path id="Trazado_874375" data-name="Trazado 874375" d="M516.776,333.195S416.913-5.79,0,0" transform="translate(423.192 712.803) rotate(-43)" fill="none" stroke="#e8e8e8" stroke-linecap="round" stroke-linejoin="round" stroke-width="1"/>
        <path id="Trazado_874376" data-name="Trazado 874376" d="M43.623-6.892S-77.592,85.971,34.046,172.034" transform="translate(826.241 398.859) rotate(-43)" fill="none" stroke="#e8e8e8" stroke-linecap="round" stroke-linejoin="round" stroke-width="1"/>
        <path id="Trazado_874377" data-name="Trazado 874377" d="M430.318-.036c-5.33,110.388-41.469,119.475-115.787,119.615S260.2,198.373,136.186,133.857,0,0,0,0" transform="translate(0 353.616) rotate(-43)" fill="none" stroke="#e8e8e8" stroke-linecap="round" stroke-linejoin="round" stroke-width="1"/>
        <path id="Trazado_874378" data-name="Trazado 874378" d="M120.842-19.093S201.554,58.833,156.3,93.06-2.37,15.333-2.37,15.333" transform="translate(76.077 272.722) rotate(-43)" fill="none" stroke="#e8e8e8" stroke-linecap="round" stroke-linejoin="round" stroke-width="1"/>
        <path id="Trazado_874379" data-name="Trazado 874379" d="M207.962,130.831C206.866,46.39,99.7-41.947-.936,6.056" transform="translate(551.051 681.417) rotate(-43)" fill="none" stroke="#e8e8e8" stroke-linecap="round" stroke-linejoin="round" stroke-width="1"/>
        <path id="Trazado_874380" data-name="Trazado 874380" d="M237.049-37.329C209.708-31.659,186.276-13.9,181.307,11.3S193.677,68.218,216.1,79.655c-32.056-11.287-64.4-22.647-97.329-27.918S51.846,47.682,24.821,60.75s-45.847,39.39-42.948,69.192c3.366,34.592,33.312,65.561,63.109,91.212,86.971,74.865,189.6,134.917,298.639,171.512,34.638,11.624,73.435,20.77,103.231,7.758,28.478-12.434,41.49-43.387,38.517-74.041s-19.619-60.9-39.8-88.112-44.121-52.294-65.528-77.7c17.594,1.889,35.394,3.779,52.3,1.77s33.107-8.354,42.38-20.456c11.068-14.445,10.694-35.4,2.836-53.961S455.2,52.88,439.269,38.357A319.424,319.424,0,0,0,323.742-28.7c-16.5-5.349-33.622-9.269-50.385-10.564a129.765,129.765,0,0,0-36.308,1.937" transform="translate(347.301 534.205) rotate(-43)" fill="none"/>
      </g>
    </g>
    <g id="Grupo_1100720" data-name="Grupo 1100720" transform="translate(-588 -50)">
      <rect id="Rectángulo_362544" data-name="Rectángulo 362544" width="230.667" height="47.893" rx="23.946" transform="translate(-4879 -8184.071)" fill="#a0c9f6"/>
      <rect id="Rectángulo_362545" data-name="Rectángulo 362545" width="221.351" height="39.061" rx="19.531" transform="translate(-4874 -8179.547)" fill="#fff"/>
      <rect id="Rectángulo_362544-2" data-name="Rectángulo 362544" width="221.562" height="73.31" rx="35" transform="translate(-4874 -7995.246)" fill="#4e8e69"/>
      <rect id="Rectángulo_362545-2" data-name="Rectángulo 362545" width="212.247" height="64.478" rx="30" transform="translate(-4869 -7990.722)" fill="#fff"/>
      <g id="Grupo_1100719" data-name="Grupo 1100719" transform="translate(614.876 296)">
        <rect id="Rectángulo_362544-3" data-name="Rectángulo 362544" width="239.452" height="52.606" rx="26.303" transform="translate(-5497.876 -8389.606)" fill="#adecd1"/>
        <rect id="Rectángulo_362545-3" data-name="Rectángulo 362545" width="230.137" height="43.775" rx="21.888" transform="translate(-5493.086 -8385.082)" fill="#fff"/>
      </g>
      <rect id="Rectángulo_362544-4" data-name="Rectángulo 362544" width="182.791" height="42.923" rx="21.461" transform="translate(-4855 -7866.923)" fill="#b19540"/>
      <rect id="Rectángulo_362545-4" data-name="Rectángulo 362545" width="173.475" height="34.091" rx="17.046" transform="translate(-4850 -7862.398)" fill="#fff"/>
      <g id="Grupo_1100790" data-name="Grupo 1100790">
        <path id="Trazado_907176" data-name="Trazado 907176" d="M51.273,7.852H47.32V10.6h3.633v2.047H47.32V17H44.8V5.8h6.477ZM55.343,17H52.875V5.156h2.469Zm9.68,0H62.562V15.781h-.039A2.792,2.792,0,0,1,60.078,17.2q-2.781,0-2.781-3.367V9h2.461v4.609q0,1.7,1.344,1.7a1.329,1.329,0,0,0,1.063-.465,1.874,1.874,0,0,0,.4-1.262V9h2.461Zm3.328-9.266a1.442,1.442,0,0,1-1.023-.371,1.2,1.2,0,0,1-.4-.91,1.153,1.153,0,0,1,.4-.906,1.671,1.671,0,0,1,2.051,0,1.158,1.158,0,0,1,.395.906,1.191,1.191,0,0,1-.395.922A1.466,1.466,0,0,1,68.351,7.734Zm1.219,9.125A4.349,4.349,0,0,1,68.7,19.7a3.041,3.041,0,0,1-2.5,1.063,3.457,3.457,0,0,1-1.18-.234V18.586a1.923,1.923,0,0,0,.914.289q1.164,0,1.164-1.828V9H69.57Zm5.891.336a4.3,4.3,0,0,1-3.145-1.121,4.064,4.064,0,0,1-1.145-3.043,4.065,4.065,0,0,1,1.188-3.105A4.487,4.487,0,0,1,75.57,8.8a4.249,4.249,0,0,1,3.125,1.121,3.985,3.985,0,0,1,1.133,2.965,4.23,4.23,0,0,1-1.168,3.148A4.348,4.348,0,0,1,75.46,17.2Zm.063-6.5a1.647,1.647,0,0,0-1.359.6,2.653,2.653,0,0,0-.484,1.7q0,2.3,1.859,2.3,1.773,0,1.773-2.367Q77.312,10.7,75.523,10.7ZM93.671,17H91.2V15.9h-.031a2.768,2.768,0,0,1-2.477,1.3,3.033,3.033,0,0,1-2.414-1.059,4.382,4.382,0,0,1-.914-2.957A4.77,4.77,0,0,1,86.375,10a3.287,3.287,0,0,1,2.641-1.2,2.246,2.246,0,0,1,2.156,1.109H91.2V5.156h2.469ZM91.25,13.109v-.6a1.893,1.893,0,0,0-.453-1.3,1.6,1.6,0,0,0-2.461.129,2.993,2.993,0,0,0-.461,1.77,2.59,2.59,0,0,0,.445,1.625,1.581,1.581,0,0,0,2.457-.031A2.507,2.507,0,0,0,91.25,13.109Zm11.688.594H97.718q.125,1.742,2.2,1.742a4.286,4.286,0,0,0,2.32-.625V16.6a6.1,6.1,0,0,1-2.883.594,4.058,4.058,0,0,1-3.008-1.074,4.058,4.058,0,0,1-1.07-3,4.281,4.281,0,0,1,1.156-3.156A3.852,3.852,0,0,1,99.273,8.8a3.5,3.5,0,0,1,2.707,1.039,4,4,0,0,1,.957,2.82Zm-2.289-1.516q0-1.719-1.391-1.719a1.328,1.328,0,0,0-1.027.492,2.234,2.234,0,0,0-.527,1.227Z" transform="translate(-4837 -8168.262)" fill="#12263f"/>
        <path id="Trazado_907174" data-name="Trazado 907174" d="M15.672,17h-2.75l-.8-2.492H8.14L7.351,17H4.617L8.7,5.8h2.992Zm-4.125-4.43L10.344,8.8A4.907,4.907,0,0,1,10.156,7.8h-.062a4.273,4.273,0,0,1-.2.977l-1.219,3.8ZM24.656,17H22.187V15.9h-.031a2.768,2.768,0,0,1-2.477,1.3,3.033,3.033,0,0,1-2.414-1.059,4.382,4.382,0,0,1-.914-2.957A4.77,4.77,0,0,1,17.359,10,3.287,3.287,0,0,1,20,8.8a2.246,2.246,0,0,1,2.156,1.109h.031V5.156h2.469Zm-2.422-3.891v-.6a1.893,1.893,0,0,0-.453-1.3,1.6,1.6,0,0,0-2.461.129,2.993,2.993,0,0,0-.461,1.77,2.59,2.59,0,0,0,.445,1.625,1.581,1.581,0,0,0,2.457-.031A2.507,2.507,0,0,0,22.234,13.109ZM30.547,17.2A4.3,4.3,0,0,1,27.4,16.074a4.064,4.064,0,0,1-1.145-3.043,4.065,4.065,0,0,1,1.188-3.105A4.487,4.487,0,0,1,30.656,8.8a4.249,4.249,0,0,1,3.125,1.121,3.985,3.985,0,0,1,1.133,2.965,4.23,4.23,0,0,1-1.168,3.148A4.348,4.348,0,0,1,30.547,17.2Zm.063-6.5a1.647,1.647,0,0,0-1.359.6,2.653,2.653,0,0,0-.484,1.7q0,2.3,1.859,2.3,1.773,0,1.773-2.367Q32.4,10.7,30.609,10.7Zm8.406,5.375h-.031V20.68H36.515V9h2.469v1.2h.031a3.142,3.142,0,0,1,4.973-.332,4.54,4.54,0,0,1,.848,2.9,4.922,4.922,0,0,1-.988,3.211A3.222,3.222,0,0,1,41.219,17.2,2.491,2.491,0,0,1,39.015,16.07Zm-.07-3.281v.641a2.037,2.037,0,0,0,.438,1.352,1.424,1.424,0,0,0,1.148.523,1.514,1.514,0,0,0,1.309-.652A3.15,3.15,0,0,0,42.3,12.8q0-2.109-1.641-2.109a1.541,1.541,0,0,0-1.238.574A2.29,2.29,0,0,0,38.945,12.789ZM52.5,16.711a4.881,4.881,0,0,1-2.414.484A4.083,4.083,0,0,1,47.1,16.078,3.859,3.859,0,0,1,45.961,13.2,4.251,4.251,0,0,1,47.183,9.98,4.518,4.518,0,0,1,50.453,8.8,4.2,4.2,0,0,1,52.5,9.18v2.094a2.814,2.814,0,0,0-1.727-.578,2.275,2.275,0,0,0-1.684.621,2.317,2.317,0,0,0-.621,1.715,2.28,2.28,0,0,0,.594,1.668A2.182,2.182,0,0,0,50.7,15.3a3.258,3.258,0,0,0,1.8-.578Zm2.867-8.977a1.442,1.442,0,0,1-1.023-.371,1.2,1.2,0,0,1-.4-.91,1.153,1.153,0,0,1,.4-.906,1.671,1.671,0,0,1,2.051,0,1.158,1.158,0,0,1,.395.906,1.191,1.191,0,0,1-.395.922A1.466,1.466,0,0,1,55.367,7.734ZM56.586,17H54.117V9h2.469Zm5.891.2a4.3,4.3,0,0,1-3.145-1.121,4.064,4.064,0,0,1-1.145-3.043,4.065,4.065,0,0,1,1.188-3.105A4.487,4.487,0,0,1,62.586,8.8a4.249,4.249,0,0,1,3.125,1.121,3.985,3.985,0,0,1,1.133,2.965,4.23,4.23,0,0,1-1.168,3.148A4.348,4.348,0,0,1,62.476,17.2Zm.063-6.5a1.647,1.647,0,0,0-1.359.6A2.653,2.653,0,0,0,60.7,13q0,2.3,1.859,2.3,1.773,0,1.773-2.367Q64.328,10.7,62.539,10.7Zm2.648-5.484L62.742,7.734H60.961l2.031-2.523ZM76.164,17H73.7V12.555q0-1.859-1.328-1.859a1.318,1.318,0,0,0-1.055.492,1.875,1.875,0,0,0-.414,1.25V17H68.437V9h2.469v1.266h.031A2.829,2.829,0,0,1,73.508,8.8q2.656,0,2.656,3.3Zm14.2,0H87.89V15.9h-.031a2.768,2.768,0,0,1-2.477,1.3,3.033,3.033,0,0,1-2.414-1.059,4.382,4.382,0,0,1-.914-2.957A4.77,4.77,0,0,1,83.062,10,3.287,3.287,0,0,1,85.7,8.8a2.246,2.246,0,0,1,2.156,1.109h.031V5.156h2.469Zm-2.422-3.891v-.6a1.893,1.893,0,0,0-.453-1.3,1.6,1.6,0,0,0-2.461.129,2.993,2.993,0,0,0-.461,1.77,2.59,2.59,0,0,0,.445,1.625,1.581,1.581,0,0,0,2.457-.031A2.507,2.507,0,0,0,87.937,13.109Zm11.688.594H94.406q.125,1.742,2.2,1.742a4.286,4.286,0,0,0,2.32-.625V16.6a6.1,6.1,0,0,1-2.883.594,4.058,4.058,0,0,1-3.008-1.074,4.058,4.058,0,0,1-1.07-3,4.281,4.281,0,0,1,1.156-3.156A3.852,3.852,0,0,1,95.961,8.8a3.5,3.5,0,0,1,2.707,1.039,4,4,0,0,1,.957,2.82Zm-2.289-1.516q0-1.719-1.391-1.719a1.328,1.328,0,0,0-1.027.492,2.234,2.234,0,0,0-.527,1.227Zm14.234,4.523a4.881,4.881,0,0,1-2.414.484,4.083,4.083,0,0,1-2.984-1.117,3.859,3.859,0,0,1-1.141-2.883,4.251,4.251,0,0,1,1.223-3.215,4.518,4.518,0,0,1,3.27-1.176,4.2,4.2,0,0,1,2.047.375v2.094a2.814,2.814,0,0,0-1.727-.578,2.275,2.275,0,0,0-1.684.621,2.317,2.317,0,0,0-.621,1.715,2.28,2.28,0,0,0,.594,1.668,2.182,2.182,0,0,0,1.633.605,3.258,3.258,0,0,0,1.8-.578Zm6.836-5.484a2.141,2.141,0,0,0-1.039-.242,1.5,1.5,0,0,0-1.258.59,2.573,2.573,0,0,0-.453,1.605V17h-2.469V9h2.469v1.484h.031A2.136,2.136,0,0,1,117.8,8.859a1.59,1.59,0,0,1,.609.094Zm2.461-3.492a1.442,1.442,0,0,1-1.023-.371,1.2,1.2,0,0,1-.4-.91,1.153,1.153,0,0,1,.4-.906,1.671,1.671,0,0,1,2.051,0,1.158,1.158,0,0,1,.395.906,1.191,1.191,0,0,1-.395.922A1.466,1.466,0,0,1,120.867,7.734ZM122.086,17h-2.469V9h2.469ZM129,16.906a3.649,3.649,0,0,1-1.648.289q-2.609,0-2.609-2.711V10.82h-1.3V9h1.3V7.273l2.461-.7V9H129v1.82h-1.8v3.234q0,1.25.992,1.25a1.673,1.673,0,0,0,.8-.227Zm8.516-3.2H132.3q.125,1.742,2.2,1.742a4.286,4.286,0,0,0,2.32-.625V16.6a6.1,6.1,0,0,1-2.883.594,4.058,4.058,0,0,1-3.008-1.074,4.058,4.058,0,0,1-1.07-3,4.281,4.281,0,0,1,1.156-3.156A3.852,3.852,0,0,1,133.851,8.8a3.5,3.5,0,0,1,2.707,1.039,4,4,0,0,1,.957,2.82Zm-2.289-1.516q0-1.719-1.391-1.719a1.328,1.328,0,0,0-1.027.492,2.234,2.234,0,0,0-.527,1.227Zm8.977-.961a2.142,2.142,0,0,0-1.039-.242,1.5,1.5,0,0,0-1.258.59,2.573,2.573,0,0,0-.453,1.605V17h-2.469V9h2.469v1.484h.031a2.136,2.136,0,0,1,2.109-1.625,1.59,1.59,0,0,1,.609.094Zm2.461-3.492a1.442,1.442,0,0,1-1.023-.371,1.2,1.2,0,0,1-.4-.91,1.153,1.153,0,0,1,.4-.906,1.671,1.671,0,0,1,2.051,0,1.158,1.158,0,0,1,.395.906,1.191,1.191,0,0,1-.395.922A1.466,1.466,0,0,1,146.664,7.734ZM147.883,17h-2.469V9h2.469Zm5.891.2a4.3,4.3,0,0,1-3.145-1.121,4.064,4.064,0,0,1-1.145-3.043,4.065,4.065,0,0,1,1.188-3.105A4.487,4.487,0,0,1,153.883,8.8a4.249,4.249,0,0,1,3.125,1.121,3.985,3.985,0,0,1,1.133,2.965,4.23,4.23,0,0,1-1.168,3.148A4.348,4.348,0,0,1,153.773,17.2Zm.063-6.5a1.647,1.647,0,0,0-1.359.6,2.653,2.653,0,0,0-.484,1.7q0,2.3,1.859,2.3,1.773,0,1.773-2.367Q155.625,10.7,153.836,10.7Zm5.383,6.094v-2a5.256,5.256,0,0,0,1.215.547,4.028,4.028,0,0,0,1.145.18,2.455,2.455,0,0,0,1.035-.18.581.581,0,0,0,.379-.547.506.506,0,0,0-.172-.391,1.6,1.6,0,0,0-.441-.273,5.009,5.009,0,0,0-.59-.211q-.32-.094-.617-.211a5.914,5.914,0,0,1-.84-.387,2.427,2.427,0,0,1-.609-.48,1.889,1.889,0,0,1-.375-.633,2.525,2.525,0,0,1-.129-.852,2.192,2.192,0,0,1,.293-1.156,2.393,2.393,0,0,1,.781-.793,3.57,3.57,0,0,1,1.117-.453,5.825,5.825,0,0,1,1.309-.145,7.261,7.261,0,0,1,1.078.082,8.047,8.047,0,0,1,1.078.238v1.906a3.9,3.9,0,0,0-1-.41,4.235,4.235,0,0,0-1.051-.137,2.328,2.328,0,0,0-.457.043,1.505,1.505,0,0,0-.379.125.7.7,0,0,0-.258.211.486.486,0,0,0-.094.293.541.541,0,0,0,.141.375,1.221,1.221,0,0,0,.367.27,3.625,3.625,0,0,0,.5.2q.277.09.551.184a7.161,7.161,0,0,1,.891.375,2.848,2.848,0,0,1,.684.477,1.871,1.871,0,0,1,.438.641,2.563,2.563,0,0,1-.156,2.09,2.471,2.471,0,0,1-.82.82,3.72,3.72,0,0,1-1.18.461,6.54,6.54,0,0,1-1.387.145A7.149,7.149,0,0,1,159.219,16.789ZM42.855,29.852h-3.2V39H37.129V29.852h-3.18V27.8h8.906ZM46.886,39H44.363V27.8h2.523Zm11.945,0h-2.9l-1.742-2.883q-.2-.328-.375-.586a3.255,3.255,0,0,0-.363-.441,1.445,1.445,0,0,0-.383-.281.972.972,0,0,0-.434-.1h-.68V39H49.433V27.8h4q4.078,0,4.078,3.047a3.155,3.155,0,0,1-.18,1.082,3.006,3.006,0,0,1-.508.895,3.219,3.219,0,0,1-.793.688A4.09,4.09,0,0,1,55,33.961v.031a1.606,1.606,0,0,1,.484.254,3.468,3.468,0,0,1,.453.41,5.723,5.723,0,0,1,.418.5q.2.27.363.527Zm-6.875-9.312V32.8h1.094a1.813,1.813,0,0,0,1.3-.469,1.564,1.564,0,0,0,.5-1.18q0-1.469-1.758-1.469Zm10.016,7.344-1.148,3.953H58.9l.8-3.953ZM77.957,27.8,74.1,39H71.238L67.426,27.8h2.719l2.336,7.8a5.584,5.584,0,0,1,.227,1.117h.047A6.315,6.315,0,0,1,73,35.563l2.32-7.766Zm3.867,7.344V39H79.3V27.8h3.953q4.234,0,4.234,3.57a3.426,3.426,0,0,1-1.215,2.73,4.813,4.813,0,0,1-3.246,1.043Zm0-5.406v3.492h.992q2.016,0,2.016-1.766,0-1.727-2.016-1.727ZM99.207,39H96.66l-4.617-7.039a10.178,10.178,0,0,1-.562-.93h-.031q.062.594.063,1.813V39H89.129V27.8h2.719l4.445,6.82q.3.461.563.914h.031a11.979,11.979,0,0,1-.062-1.539V27.8h2.383Zm4.656-1.969-1.148,3.953h-1.922l.8-3.953ZM110.519,39V27.8H114.6a5.093,5.093,0,0,1,2.883.688,2.211,2.211,0,0,1,1.008,1.938,2.293,2.293,0,0,1-.613,1.586,3.222,3.222,0,0,1-1.566.945v.031a3.1,3.1,0,0,1,1.91.883,2.469,2.469,0,0,1,.715,1.789,2.99,2.99,0,0,1-1.1,2.441,4.61,4.61,0,0,1-3.008.9Zm2.523-9.344v2.656h1.109a1.849,1.849,0,0,0,1.23-.379,1.291,1.291,0,0,0,.449-1.043q0-1.234-1.844-1.234Zm0,4.531v2.953h1.367a2.1,2.1,0,0,0,1.371-.406,1.357,1.357,0,0,0,.5-1.109,1.266,1.266,0,0,0-.488-1.055,2.16,2.16,0,0,0-1.363-.383ZM126.777,27.8l-5.461,13.063h-2.2L124.551,27.8ZM135.9,38.6a7.388,7.388,0,0,1-3.2.594,5.4,5.4,0,0,1-4.055-1.516,5.54,5.54,0,0,1-1.477-4.039,5.919,5.919,0,0,1,1.66-4.359,5.807,5.807,0,0,1,4.309-1.672,8.058,8.058,0,0,1,2.766.414v2.43a4.9,4.9,0,0,0-2.562-.672,3.4,3.4,0,0,0-2.547.992,3.682,3.682,0,0,0-.969,2.688,3.611,3.611,0,0,0,.914,2.59,3.229,3.229,0,0,0,2.461.965,5.249,5.249,0,0,0,2.7-.719Z" transform="translate(-4848 -7977.243)" fill="#12263f"/>
        <path id="Trazado_907175" data-name="Trazado 907175" d="M40.979,7.852H37.026V10.6h3.633v2.047H37.026V17H34.5V5.8h6.477ZM45.049,17H42.581V5.156h2.469Zm9.68,0H52.268V15.781h-.039A2.792,2.792,0,0,1,49.784,17.2Q47,17.2,47,13.828V9h2.461v4.609q0,1.7,1.344,1.7a1.329,1.329,0,0,0,1.063-.465,1.874,1.874,0,0,0,.4-1.262V9h2.461Zm3.328-9.266a1.442,1.442,0,0,1-1.023-.371,1.2,1.2,0,0,1-.4-.91,1.153,1.153,0,0,1,.4-.906,1.671,1.671,0,0,1,2.051,0,1.158,1.158,0,0,1,.395.906,1.191,1.191,0,0,1-.395.922A1.466,1.466,0,0,1,58.057,7.734Zm1.219,9.125a4.349,4.349,0,0,1-.867,2.836,3.041,3.041,0,0,1-2.5,1.063,3.457,3.457,0,0,1-1.18-.234V18.586a1.923,1.923,0,0,0,.914.289q1.164,0,1.164-1.828V9h2.469Zm5.891.336a4.3,4.3,0,0,1-3.145-1.121,4.064,4.064,0,0,1-1.145-3.043,4.065,4.065,0,0,1,1.188-3.105A4.487,4.487,0,0,1,65.276,8.8,4.249,4.249,0,0,1,68.4,9.926a3.985,3.985,0,0,1,1.133,2.965,4.23,4.23,0,0,1-1.168,3.148A4.348,4.348,0,0,1,65.167,17.2Zm.063-6.5a1.647,1.647,0,0,0-1.359.6,2.653,2.653,0,0,0-.484,1.7q0,2.3,1.859,2.3,1.773,0,1.773-2.367Q67.018,10.7,65.229,10.7ZM83.377,17H80.909V15.9h-.031A2.768,2.768,0,0,1,78.4,17.2a3.033,3.033,0,0,1-2.414-1.059,4.382,4.382,0,0,1-.914-2.957A4.77,4.77,0,0,1,76.081,10a3.287,3.287,0,0,1,2.641-1.2,2.246,2.246,0,0,1,2.156,1.109h.031V5.156h2.469Zm-2.422-3.891v-.6a1.893,1.893,0,0,0-.453-1.3,1.6,1.6,0,0,0-2.461.129,2.993,2.993,0,0,0-.461,1.77,2.59,2.59,0,0,0,.445,1.625,1.581,1.581,0,0,0,2.457-.031A2.507,2.507,0,0,0,80.956,13.109Zm11.688.594H87.424q.125,1.742,2.2,1.742a4.286,4.286,0,0,0,2.32-.625V16.6a6.1,6.1,0,0,1-2.883.594,4.058,4.058,0,0,1-3.008-1.074,4.058,4.058,0,0,1-1.07-3,4.281,4.281,0,0,1,1.156-3.156A3.852,3.852,0,0,1,88.979,8.8a3.5,3.5,0,0,1,2.707,1.039,4,4,0,0,1,.957,2.82Zm-2.289-1.516q0-1.719-1.391-1.719a1.328,1.328,0,0,0-1.027.492,2.234,2.234,0,0,0-.527,1.227Zm10.672,3.883h-.031V20.68H98.526V9h2.469v1.2h.031A3.142,3.142,0,0,1,106,9.871a4.54,4.54,0,0,1,.848,2.9,4.922,4.922,0,0,1-.988,3.211,3.222,3.222,0,0,1-2.629,1.211A2.491,2.491,0,0,1,101.026,16.07Zm-.07-3.281v.641a2.037,2.037,0,0,0,.438,1.352,1.424,1.424,0,0,0,1.148.523,1.514,1.514,0,0,0,1.309-.652,3.15,3.15,0,0,0,.465-1.848q0-2.109-1.641-2.109a1.541,1.541,0,0,0-1.238.574A2.29,2.29,0,0,0,100.956,12.789Zm12.711-1.562a2.141,2.141,0,0,0-1.039-.242,1.5,1.5,0,0,0-1.258.59,2.573,2.573,0,0,0-.453,1.605V17h-2.469V9h2.469v1.484h.031a2.136,2.136,0,0,1,2.109-1.625,1.59,1.59,0,0,1,.609.094Zm4.9,5.969a4.3,4.3,0,0,1-3.145-1.121,4.064,4.064,0,0,1-1.145-3.043,4.065,4.065,0,0,1,1.188-3.105A4.487,4.487,0,0,1,118.674,8.8,4.249,4.249,0,0,1,121.8,9.926a3.985,3.985,0,0,1,1.133,2.965,4.23,4.23,0,0,1-1.168,3.148A4.348,4.348,0,0,1,118.565,17.2Zm.063-6.5a1.647,1.647,0,0,0-1.359.6,2.653,2.653,0,0,0-.484,1.7q0,2.3,1.859,2.3,1.773,0,1.773-2.367Q120.417,10.7,118.627,10.7ZM132.362,17h-2.469V15.9h-.031a2.768,2.768,0,0,1-2.477,1.3,3.033,3.033,0,0,1-2.414-1.059,4.382,4.382,0,0,1-.914-2.957A4.77,4.77,0,0,1,125.065,10a3.287,3.287,0,0,1,2.641-1.2,2.246,2.246,0,0,1,2.156,1.109h.031V5.156h2.469Zm-2.422-3.891v-.6a1.893,1.893,0,0,0-.453-1.3,1.6,1.6,0,0,0-2.461.129,2.993,2.993,0,0,0-.461,1.77,2.59,2.59,0,0,0,.445,1.625,1.581,1.581,0,0,0,2.457-.031A2.507,2.507,0,0,0,129.94,13.109ZM142.042,17h-2.461V15.781h-.039A2.792,2.792,0,0,1,137.1,17.2q-2.781,0-2.781-3.367V9h2.461v4.609q0,1.7,1.344,1.7a1.329,1.329,0,0,0,1.063-.465,1.874,1.874,0,0,0,.4-1.262V9h2.461Zm8.141-.289a4.881,4.881,0,0,1-2.414.484,4.083,4.083,0,0,1-2.984-1.117,3.859,3.859,0,0,1-1.141-2.883,4.251,4.251,0,0,1,1.223-3.215,4.518,4.518,0,0,1,3.27-1.176,4.2,4.2,0,0,1,2.047.375v2.094a2.814,2.814,0,0,0-1.727-.578,2.275,2.275,0,0,0-1.684.621,2.317,2.317,0,0,0-.621,1.715,2.28,2.28,0,0,0,.594,1.668,2.182,2.182,0,0,0,1.633.605,3.258,3.258,0,0,0,1.8-.578Zm7.68,0a4.881,4.881,0,0,1-2.414.484,4.083,4.083,0,0,1-2.984-1.117,3.859,3.859,0,0,1-1.141-2.883,4.251,4.251,0,0,1,1.223-3.215,4.518,4.518,0,0,1,3.27-1.176,4.2,4.2,0,0,1,2.047.375v2.094a2.814,2.814,0,0,0-1.727-.578,2.275,2.275,0,0,0-1.684.621,2.317,2.317,0,0,0-.621,1.715,2.28,2.28,0,0,0,.594,1.668,2.182,2.182,0,0,0,1.633.605,3.258,3.258,0,0,0,1.8-.578Zm2.867-8.977a1.442,1.442,0,0,1-1.023-.371,1.2,1.2,0,0,1-.4-.91,1.153,1.153,0,0,1,.4-.906,1.671,1.671,0,0,1,2.051,0,1.158,1.158,0,0,1,.395.906,1.191,1.191,0,0,1-.395.922A1.466,1.466,0,0,1,160.729,7.734ZM161.948,17h-2.469V9h2.469Zm5.891.2a4.3,4.3,0,0,1-3.145-1.121,4.064,4.064,0,0,1-1.145-3.043,4.065,4.065,0,0,1,1.188-3.105A4.487,4.487,0,0,1,167.948,8.8a4.249,4.249,0,0,1,3.125,1.121,3.985,3.985,0,0,1,1.133,2.965,4.23,4.23,0,0,1-1.168,3.148A4.348,4.348,0,0,1,167.838,17.2Zm.063-6.5a1.647,1.647,0,0,0-1.359.6,2.653,2.653,0,0,0-.484,1.7q0,2.3,1.859,2.3,1.773,0,1.773-2.367Q169.69,10.7,167.9,10.7Zm2.648-5.484L168.1,7.734h-1.781l2.031-2.523ZM181.526,17h-2.461V12.555q0-1.859-1.328-1.859a1.318,1.318,0,0,0-1.055.492,1.875,1.875,0,0,0-.414,1.25V17H173.8V9h2.469v1.266h.031A2.829,2.829,0,0,1,178.87,8.8q2.656,0,2.656,3.3Z" transform="translate(-4869.104 -8074.797)" fill="#12263f"/>
        <path id="Trazado_907173" data-name="Trazado 907173" d="M62,17h-2.75l-.8-2.492H54.473L53.684,17H50.949L55.027,5.8H58.02Zm-4.125-4.43L56.676,8.8A4.907,4.907,0,0,1,56.488,7.8h-.062a4.273,4.273,0,0,1-.2.977l-1.219,3.8ZM70.887,17H68.426V12.555q0-1.859-1.328-1.859a1.318,1.318,0,0,0-1.055.492,1.875,1.875,0,0,0-.414,1.25V17H63.16V9h2.469v1.266h.031A2.829,2.829,0,0,1,68.23,8.8q2.656,0,2.656,3.3ZM79.5,17H77.16V15.852h-.031A2.607,2.607,0,0,1,74.746,17.2a2.492,2.492,0,0,1-1.832-.66,2.366,2.366,0,0,1-.668-1.762q0-2.328,2.758-2.687l2.172-.289q0-1.312-1.422-1.312a4.853,4.853,0,0,0-2.719.852V9.477a6.116,6.116,0,0,1,1.41-.469,7.413,7.413,0,0,1,1.629-.2q3.422,0,3.422,3.414Zm-2.32-3.25v-.539l-1.453.188q-1.2.156-1.2,1.086a.9.9,0,0,0,.293.691,1.126,1.126,0,0,0,.793.27,1.462,1.462,0,0,0,1.133-.48A1.735,1.735,0,0,0,77.176,13.75Zm1.586-8.539L76.316,7.734H74.535l2.031-2.523ZM83.918,17H81.449V5.156h2.469Zm3.328-9.266a1.442,1.442,0,0,1-1.023-.371,1.2,1.2,0,0,1-.4-.91,1.153,1.153,0,0,1,.4-.906,1.671,1.671,0,0,1,2.051,0,1.158,1.158,0,0,1,.395.906,1.191,1.191,0,0,1-.395.922A1.466,1.466,0,0,1,87.246,7.734ZM88.465,17H86V9h2.469Zm1.555-.211v-2a5.256,5.256,0,0,0,1.215.547,4.028,4.028,0,0,0,1.145.18,2.455,2.455,0,0,0,1.035-.18.581.581,0,0,0,.379-.547.506.506,0,0,0-.172-.391,1.6,1.6,0,0,0-.441-.273,5.009,5.009,0,0,0-.59-.211q-.32-.094-.617-.211a5.913,5.913,0,0,1-.84-.387,2.427,2.427,0,0,1-.609-.48,1.889,1.889,0,0,1-.375-.633,2.525,2.525,0,0,1-.129-.852,2.192,2.192,0,0,1,.293-1.156,2.393,2.393,0,0,1,.781-.793,3.57,3.57,0,0,1,1.117-.453A5.825,5.825,0,0,1,93.52,8.8a7.261,7.261,0,0,1,1.078.082,8.047,8.047,0,0,1,1.078.238v1.906a3.9,3.9,0,0,0-1-.41,4.235,4.235,0,0,0-1.051-.137,2.328,2.328,0,0,0-.457.043,1.505,1.505,0,0,0-.379.125.7.7,0,0,0-.258.211.486.486,0,0,0-.094.293.541.541,0,0,0,.141.375,1.221,1.221,0,0,0,.367.27,3.625,3.625,0,0,0,.5.2q.277.09.551.184a7.161,7.161,0,0,1,.891.375,2.848,2.848,0,0,1,.684.477,1.872,1.872,0,0,1,.438.641,2.563,2.563,0,0,1-.156,2.09,2.471,2.471,0,0,1-.82.82,3.72,3.72,0,0,1-1.18.461,6.54,6.54,0,0,1-1.387.145A7.149,7.149,0,0,1,90.02,16.789Zm8.813-9.055a1.442,1.442,0,0,1-1.023-.371,1.2,1.2,0,0,1-.4-.91,1.153,1.153,0,0,1,.4-.906,1.671,1.671,0,0,1,2.051,0,1.158,1.158,0,0,1,.395.906,1.191,1.191,0,0,1-.395.922A1.466,1.466,0,0,1,98.832,7.734ZM100.051,17H97.582V9h2.469Zm1.555-.211v-2a5.256,5.256,0,0,0,1.215.547,4.028,4.028,0,0,0,1.145.18,2.455,2.455,0,0,0,1.035-.18.581.581,0,0,0,.379-.547.506.506,0,0,0-.172-.391,1.6,1.6,0,0,0-.441-.273,5.009,5.009,0,0,0-.59-.211q-.32-.094-.617-.211a5.913,5.913,0,0,1-.84-.387,2.427,2.427,0,0,1-.609-.48,1.889,1.889,0,0,1-.375-.633,2.525,2.525,0,0,1-.129-.852A2.192,2.192,0,0,1,101.9,10.2a2.393,2.393,0,0,1,.781-.793,3.57,3.57,0,0,1,1.117-.453,5.825,5.825,0,0,1,1.309-.145,7.261,7.261,0,0,1,1.078.082,8.047,8.047,0,0,1,1.078.238v1.906a3.9,3.9,0,0,0-1-.41,4.235,4.235,0,0,0-1.051-.137,2.328,2.328,0,0,0-.457.043,1.505,1.505,0,0,0-.379.125.7.7,0,0,0-.258.211.486.486,0,0,0-.094.293.541.541,0,0,0,.141.375,1.221,1.221,0,0,0,.367.27,3.625,3.625,0,0,0,.5.2q.277.09.551.184a7.161,7.161,0,0,1,.891.375,2.848,2.848,0,0,1,.684.477,1.872,1.872,0,0,1,.438.641,2.563,2.563,0,0,1-.156,2.09,2.471,2.471,0,0,1-.82.82,3.72,3.72,0,0,1-1.18.461,6.54,6.54,0,0,1-1.387.145A7.149,7.149,0,0,1,101.605,16.789Z" transform="translate(-4843 -7854.89)" fill="#12263f"/>
      </g>
      <g id="Grupo_1100338" data-name="Grupo 1100338" transform="translate(-4774 -8132.434)">
        <path id="Trazado_873496" data-name="Trazado 873496" d="M0,0V40.334" transform="translate(10.664 0)" fill="none" stroke="#a0c9f6" stroke-width="2"/>
        <g id="Grupo_1099075" data-name="Grupo 1099075" transform="translate(0 24.551)">
          <g id="Grupo_1099074" data-name="Grupo 1099074" clip-path="url(#clip-path-6)">
            <path id="Trazado_873497" data-name="Trazado 873497" d="M20.667,0A21.249,21.249,0,0,0,10.334,18.241,21.248,21.248,0,0,0,0,0" transform="translate(0.33 0.551)" fill="none" stroke="#a0c9f6" stroke-miterlimit="10" stroke-width="2"/>
          </g>
        </g>
      </g>
      <g id="Grupo_1100339" data-name="Grupo 1100339" transform="translate(-4774 -8041)">
        <path id="Trazado_873496-2" data-name="Trazado 873496" d="M0,0V40.334" transform="translate(10.664 0)" fill="none" stroke="#adecd1" stroke-width="2"/>
        <g id="Grupo_1099075-2" data-name="Grupo 1099075" transform="translate(0 24.551)">
          <g id="Grupo_1099074-2" data-name="Grupo 1099074" clip-path="url(#clip-path-7)">
            <path id="Trazado_873497-2" data-name="Trazado 873497" d="M20.667,0A21.249,21.249,0,0,0,10.334,18.241,21.248,21.248,0,0,0,0,0" transform="translate(0.33 0.551)" fill="none" stroke="#adecd1" stroke-miterlimit="10" stroke-width="2"/>
          </g>
        </g>
      </g>
      <g id="Grupo_1100340" data-name="Grupo 1100340" transform="translate(-4774 -7912.677)">
        <path id="Trazado_873496-3" data-name="Trazado 873496" d="M0,0V40.334" transform="translate(10.664 0)" fill="none" stroke="#4e8e69" stroke-width="2"/>
        <g id="Grupo_1099075-3" data-name="Grupo 1099075" transform="translate(0 24.551)">
          <g id="Grupo_1099074-3" data-name="Grupo 1099074" clip-path="url(#clip-path-8)">
            <path id="Trazado_873497-3" data-name="Trazado 873497" d="M20.667,0A21.249,21.249,0,0,0,10.334,18.241,21.248,21.248,0,0,0,0,0" transform="translate(0.33 0.551)" fill="none" stroke="#4e8e69" stroke-miterlimit="10" stroke-width="2"/>
          </g>
        </g>
      </g>
    </g>
  </g>
</svg>
