<svg xmlns="http://www.w3.org/2000/svg" xmlns:xlink="http://www.w3.org/1999/xlink" width="820" height="180.949" viewBox="0 0 820 180.949">
  <defs>
    <clipPath id="clip-path">
      <path id="Trazado_872907" data-name="Trazado 872907" d="M11.5,0H787.452c6.351,0,11.5,2.945,11.5,6.578V168.944c0,3.633-5.149,6.578-11.5,6.578H11.5c-6.351,0-11.5-2.945-11.5-6.578V6.578C0,2.945,5.149,0,11.5,0Z" transform="translate(0)" fill="#adecd1"/>
    </clipPath>
    <clipPath id="clip-path-2">
      <path id="Trazado_891828" data-name="Trazado 891828" d="M12.325,0H843.971C850.778,0,856.3,7.076,856.3,15.806V405.953c0,8.729-5.518,15.806-12.326,15.806H12.325C5.518,421.758,0,414.682,0,405.953V15.806C0,7.076,5.518,0,12.325,0Z" transform="translate(0)" fill="#ebfcf5"/>
    </clipPath>
    <clipPath id="clip-path-3">
      <rect id="Rectángulo_401651" data-name="Rectángulo 401651" width="121.396" height="374.767" fill="#a0c9f6"/>
    </clipPath>
    <clipPath id="clip-path-6">
      <path id="Trazado_891829" data-name="Trazado 891829" d="M63.662,69.634,770.047,3,709.666,768.17,3.28,834.8Z" fill="#adecd1"/>
    </clipPath>
    <clipPath id="clip-path-7">
      <path id="Trazado_891821" data-name="Trazado 891821" d="M438.91,19C302.6,62.916,170.005,157.907,71.838,290.237c-25,33.708-48.159,70.554-60.791,111.345s-13.435,86.283,4.659,117.642c23.358,40.486,70.679,48.768,120.056,57.128-16.226,9.919-25,34.6-21.7,53.725,7.061,40.875,47.458,45.76,81.8,41.291,114.443-14.9,225.782-92.843,323.515-183.3,51.344-47.525,100.924-99.832,139.257-162.283,25.185-41.03,47.779-99.772,19.291-133.35-13.141-15.492-38.093-17.053-55.627,2.694,28.378-35.811,33.387-90.225,17.083-127.47S589.052,9.3,552.5,3.783a172.991,172.991,0,0,0-42.055-.834C486.763,5.171,462.633,11.352,438.91,19" fill="#adecd1"/>
    </clipPath>
    <clipPath id="clip-path-8">
      <path id="Trazado_891830" data-name="Trazado 891830" d="M76.178,83.324,921.433,3.592l-72.252,915.6L3.925,998.919Z" fill="#a0c9f6"/>
    </clipPath>
    <clipPath id="clip-path-9">
      <path id="Trazado_891827" data-name="Trazado 891827" d="M525.2,22.73C362.085,75.285,203.427,188.95,85.961,347.3,56.05,387.63,28.335,431.719,13.219,480.529S-2.857,583.775,18.795,621.3c27.95,48.445,84.574,58.356,143.658,68.359-19.416,11.869-29.918,41.4-25.963,64.287,8.45,48.911,56.787,54.755,97.877,49.409,136.941-17.83,270.17-111.1,387.116-219.338,61.438-56.867,120.765-119.458,166.634-194.187,30.136-49.1,57.172-119.387,23.083-159.565-15.724-18.537-45.582-20.405-66.562,3.224,33.957-42.851,39.95-107.963,20.441-152.53S704.855,11.134,661.119,4.527a207,207,0,0,0-50.322-1c-28.34,2.659-57.213,10.055-85.6,19.2" fill="#a0c9f6"/>
    </clipPath>
    <clipPath id="clip-path-10">
      <rect id="Rectángulo_401571" data-name="Rectángulo 401571" width="35.997" height="33.789" fill="#ff8e6b"/>
    </clipPath>
    <clipPath id="clip-path-11">
      <rect id="Rectángulo_401690" data-name="Rectángulo 401690" width="79.048" height="81" fill="#4e8e69"/>
    </clipPath>
  </defs>
  <g id="Grupo_1100795" data-name="Grupo 1100795" transform="translate(-390 -11338)">
    <g id="Enmascarar_grupo_1098767" data-name="Enmascarar grupo 1098767" transform="translate(390 11338)" clip-path="url(#clip-path)">
      <g id="Enmascarar_grupo_1098766" data-name="Enmascarar grupo 1098766" transform="translate(-25.772 -35.357)" clip-path="url(#clip-path-2)">
        <path id="Trazado_891739" data-name="Trazado 891739" d="M12.325,0H843.971C850.778,0,856.3,7.076,856.3,15.806V405.953c0,8.729-5.518,15.806-12.326,15.806H12.325C5.518,421.758,0,414.682,0,405.953V15.806C0,7.076,5.518,0,12.325,0Z" transform="translate(0)" fill="#ecf5fd"/>
        <ellipse id="Elipse_11603" data-name="Elipse 11603" cx="215.846" cy="277.137" rx="215.846" ry="277.137" transform="translate(150.126 334.476)" fill="#adecd1" opacity="0.37" style="mix-blend-mode: multiply;isolation: isolate"/>
        <ellipse id="Elipse_11604" data-name="Elipse 11604" cx="215.846" cy="277.137" rx="215.846" ry="277.137" transform="translate(365.972 -391.815)" fill="#a0c9f6" opacity="0.37" style="mix-blend-mode: multiply;isolation: isolate"/>
        <g id="Grupo_1100480" data-name="Grupo 1100480" transform="translate(-44.416 129.772)" style="isolation: isolate">
          <g id="Grupo_1100479" data-name="Grupo 1100479" clip-path="url(#clip-path-3)">
            <g id="Grupo_1100478" data-name="Grupo 1100478">
              <g id="Grupo_1100477" data-name="Grupo 1100477" clip-path="url(#clip-path-3)">
                <g id="Grupo_1100476" data-name="Grupo 1100476" opacity="0.65" style="mix-blend-mode: soft-light;isolation: isolate">
                  <g id="Grupo_1100475" data-name="Grupo 1100475">
                    <g id="Grupo_1100474" data-name="Grupo 1100474" clip-path="url(#clip-path-3)">
                      <path id="Trazado_891740" data-name="Trazado 891740" d="M23.921,12.665c-.034-.147-.235-.082-.337-.165-3.558-2.9-6.091,3.684-9.327,5.812-.521.343-1.14-.052-1.256-.788a6.476,6.476,0,0,0-.379-1.394c-1.015-2.531-3.484-3.419-5.458-2.194q-.844,2.4-1.587,5.31c.8-.773,1.618-1.553,2.36-2.184.556-.473,1.312.016,1.337.869a6.9,6.9,0,0,0,3.582,6.325.978.978,0,0,0,1.272-.112c2.458-2.3,5.253-3.637,7.5-6.191a.763.763,0,0,1,1.318.3,8.458,8.458,0,0,0,2.2,3.062,5.9,5.9,0,0,0,1.531.84.812.812,0,0,0,.327.3,3.223,3.223,0,0,0,1.918.2.826.826,0,0,0,.2-.068,32.55,32.55,0,0,0,3.137-2.12,64.489,64.489,0,0,0-2.359-6.028c-2.038,1.158-5.048,2.337-5.984-1.772" transform="translate(-1.959 -1.979)" fill="#a0c9f6"/>
                      <path id="Trazado_891741" data-name="Trazado 891741" d="M43.784,43.184c-2.739,3.691-3.89-1.1-6.028.52v5.818a16.8,16.8,0,0,1,1.316,1.049,1.965,1.965,0,0,0,1.911.342c1.828-.6,3.339.89,4.459,1.695.983.579,1.751,2.714,2.981,1.821.161-.129.313-.273.468-.412q-.259-3.426-.65-6.656a1.246,1.246,0,0,1-.645-1,2.545,2.545,0,0,0-.553-1.349c-1.059-.78-1.9-2.382-3.26-1.832" transform="translate(-13.263 -7.242)" fill="#a0c9f6"/>
                      <path id="Trazado_891742" data-name="Trazado 891742" d="M33.922,76.947c-2.934-.09-5.224,1.807-7.448,3.946-.228.22-.848,0-1.638-.952-.091-.433-.512-.644-.808-.341-.548.561-.736,1.732-1.284,2.053-.309.22-.417.217-.631-.187-3.216-7.408-8.01-5.313-11.551-.009-.246.369-.706.278-.853-.169A7.3,7.3,0,0,0,5.76,77.032c-1.888-1.3-3.391-.1-4.723,1.506q.276,3.436.628,6.862c1.414-1.665,2.863-4.007,4.089-5.024.278-.23.651-.055.754.349a8.9,8.9,0,0,0,5.47,6.232.424.424,0,0,0,.434-.087c2.248-1.973,3.581-5.649,6.377-6.761a.441.441,0,0,1,.53.21c1.074,1.659,2.931,4.178,4.8,5.282a.436.436,0,0,0,.147.054s0,.021,0,.023c1.192,1.128,3.366,1.5,4.1.271,1.644-1.66,3.321-4.177,5.353-5.029.309-.13.632.158.658.575a6.673,6.673,0,0,0,2.789,5.345,1.4,1.4,0,0,0,.578.347q-.219-4.053-.459-8.094a6.9,6.9,0,0,0-3.257-2.133.494.494,0,0,0-.1-.013" transform="translate(-0.364 -12.859)" fill="#a0c9f6"/>
                      <path id="Trazado_891743" data-name="Trazado 891743" d="M47.6,93.422a2.549,2.549,0,0,0-.554-1.349c-1.058-.779-1.9-2.382-3.259-1.832-2.739,3.691-3.89-1.1-6.028.52V96.58a16.655,16.655,0,0,1,1.316,1.048,1.965,1.965,0,0,0,1.911.342c1.828-.6,3.339.89,4.459,1.695.983.58,1.751,2.714,2.98,1.821a18.378,18.378,0,0,0,2.692-2.8q-.174-3.577-.363-7.148c-.483.748-.928,1.615-1.382,2.445-.51.933-1.622.563-1.774-.561" transform="translate(-13.263 -15.153)" fill="#a0c9f6"/>
                      <path id="Trazado_891744" data-name="Trazado 891744" d="M39.971,127.073a1.146,1.146,0,0,0-.344-.7,7.127,7.127,0,0,0-3.436-2.324.555.555,0,0,0-.1-.013c-2.934-.09-5.224,1.807-7.448,3.946-.228.22-.848,0-1.638-.952-.092-.433-.512-.644-.808-.341-.548.561-.736,1.732-1.284,2.053-.309.22-.417.217-.631-.187-3.216-7.408-8.01-5.313-11.551-.009-.246.369-.706.279-.853-.168a7.3,7.3,0,0,0-3.949-4.256,3.31,3.31,0,0,0-.727-.378q.173,1.878.326,3.76c.009.1.017.2.025.3.125-.125.249-.24.37-.341.278-.23.651-.055.754.349a8.9,8.9,0,0,0,5.471,6.232.424.424,0,0,0,.434-.087c2.248-1.973,3.581-5.649,6.377-6.76a.44.44,0,0,1,.53.21c1.074,1.659,2.93,4.178,4.8,5.282a.435.435,0,0,0,.147.054s0,.021,0,.023c1.192,1.129,3.366,1.5,4.1.271,1.645-1.66,3.322-4.177,5.353-5.029.309-.13.632.159.658.575a6.669,6.669,0,0,0,2.789,5.345c.686.66,1.468.44,2.289-.225q-.129-3.506-.265-7.01c-.17.225-.339.45-.5.669-.283.372-.79.214-.876-.293" transform="translate(-2.528 -20.805)" fill="#a0c9f6"/>
                      <path id="Trazado_891745" data-name="Trazado 891745" d="M49.37,140.976c-.51.934-1.622.563-1.774-.561a2.554,2.554,0,0,0-.554-1.349c-1.059-.779-1.9-2.382-3.26-1.831-2.738,3.691-3.89-1.1-6.027.52v5.818c.2.1.771.6,1.316,1.048a1.966,1.966,0,0,0,1.912.342c1.827-.6,3.338.891,4.459,1.695.983.58,1.752,2.714,2.981,1.822a19.58,19.58,0,0,0,2.976-3.149,2.767,2.767,0,0,1,1.258-.923q-.132-3.8-.271-7.6c-1.224.678-2.1,2.5-3.015,4.171" transform="translate(-13.263 -23.001)" fill="#a0c9f6"/>
                      <path id="Trazado_891746" data-name="Trazado 891746" d="M42.3,174.424c-.283.372-.79.215-.876-.293a1.15,1.15,0,0,0-.344-.7,7.136,7.136,0,0,0-3.436-2.324.64.64,0,0,0-.1-.013c-2.935-.09-5.225,1.807-7.448,3.946-.228.22-.848,0-1.639-.952-.091-.433-.512-.644-.808-.341-.548.561-.736,1.732-1.284,2.053-.309.22-.418.217-.631-.187-3.216-7.407-8.01-5.312-11.551-.009-.247.369-.706.279-.853-.168a6.542,6.542,0,0,0-1.993-2.964q.141,2.791.278,5.584a8.718,8.718,0,0,0,3.984,3.049.424.424,0,0,0,.434-.087c2.247-1.973,3.58-5.648,6.377-6.76a.44.44,0,0,1,.53.21c1.074,1.658,2.931,4.178,4.8,5.282a.427.427,0,0,0,.147.054s0,.021,0,.023c1.191,1.128,3.366,1.5,4.1.271,1.645-1.66,3.321-4.177,5.353-5.029.309-.131.632.158.658.574a6.669,6.669,0,0,0,2.789,5.345c1.033.992,2.28,0,3.554-1.52l-.234-7.308c-.635.688-1.229,1.508-1.8,2.261" transform="translate(-3.982 -28.719)" fill="#a0c9f6"/>
                      <path id="Trazado_891747" data-name="Trazado 891747" d="M49.37,187.978c-.51.934-1.622.563-1.774-.561a2.554,2.554,0,0,0-.554-1.349c-1.059-.779-1.9-2.382-3.26-1.831-2.738,3.691-3.89-1.1-6.027.52v5.818c.2.1.771.6,1.316,1.048a1.967,1.967,0,0,0,1.912.342c1.827-.6,3.338.891,4.459,1.695.983.58,1.752,2.714,2.981,1.822a19.575,19.575,0,0,0,2.976-3.148,2.456,2.456,0,0,1,2.533-.982q-.126-3.9-.251-7.8c-1.96-.258-3.106,2.223-4.309,4.426" transform="translate(-13.263 -30.857)" fill="#a0c9f6"/>
                      <path id="Trazado_891748" data-name="Trazado 891748" d="M43.168,221.482c-.283.372-.79.215-.876-.293a1.15,1.15,0,0,0-.344-.7,7.136,7.136,0,0,0-3.436-2.324.637.637,0,0,0-.1-.013c-2.935-.09-5.225,1.807-7.448,3.946-.228.22-.848,0-1.639-.952-.091-.433-.512-.644-.808-.341-.548.561-.736,1.732-1.284,2.053-.309.22-.418.217-.631-.187-3.216-7.407-8.01-5.313-11.551-.008-.247.368-.706.278-.853-.169a6.815,6.815,0,0,0-.392-.928q.072,2.558.139,5.118a8.614,8.614,0,0,0,2.523,1.479.424.424,0,0,0,.434-.087c2.247-1.973,3.58-5.648,6.377-6.76a.439.439,0,0,1,.53.21c1.074,1.658,2.931,4.177,4.8,5.282a.443.443,0,0,0,.147.053s0,.021,0,.023c1.191,1.129,3.366,1.5,4.1.271,1.645-1.66,3.321-4.177,5.353-5.029.309-.131.632.158.658.574a6.668,6.668,0,0,0,2.789,5.345c1.379,1.324,3.14-.888,4.834-3.164q-.129-3.377-.252-6.755a13.665,13.665,0,0,0-3.064,3.352" transform="translate(-4.848 -36.631)" fill="#a0c9f6"/>
                      <path id="Trazado_891749" data-name="Trazado 891749" d="M49.37,235.035c-.51.934-1.622.563-1.774-.561a2.554,2.554,0,0,0-.554-1.349c-1.059-.779-1.9-2.382-3.26-1.831-2.738,3.69-3.89-1.1-6.027.52v5.818c.2.1.771.6,1.316,1.048a1.967,1.967,0,0,0,1.912.342c1.827-.6,3.338.891,4.459,1.695.983.58,1.752,2.714,2.981,1.822A19.545,19.545,0,0,0,51.4,239.39a2.393,2.393,0,0,1,4,.063q-.171-3.988-.329-7.979c-.32-.245-.663-.5-1.05-.8-2.173-.616-3.38,2.03-4.653,4.359" transform="translate(-13.263 -38.768)" fill="#a0c9f6"/>
                      <path id="Trazado_891750" data-name="Trazado 891750" d="M40.983,286.079c1.828-.6,3.339.89,4.459,1.695.983.579,1.751,2.714,2.98,1.822a19.583,19.583,0,0,0,2.976-3.149,2.417,2.417,0,0,1,4.166.306,6.537,6.537,0,0,0,2.085,2.184q-.29-4.284-.553-8.581a17.111,17.111,0,0,0-3.074-2.623c-2.174-.616-3.38,2.029-4.653,4.359-.51.933-1.622.563-1.774-.561a2.549,2.549,0,0,0-.554-1.349c-1.058-.779-1.9-2.382-3.259-1.832-2.739,3.691-3.89-1.1-6.028.521v5.818a16.664,16.664,0,0,1,1.316,1.048,1.965,1.965,0,0,0,1.911.342" transform="translate(-13.263 -46.68)" fill="#a0c9f6"/>
                      <path id="Trazado_891751" data-name="Trazado 891751" d="M40.983,333.137c1.828-.6,3.339.89,4.459,1.694.983.58,1.751,2.714,2.98,1.822A19.585,19.585,0,0,0,51.4,333.5a2.417,2.417,0,0,1,4.166.306c1.268,2.126,3.524,3.428,5.478,2.631q-.368-3.461-.707-6.936c-.946.643-2.181.19-2.7-1.157-.494-1.275-1.575-2.011-3.609-3.558-2.174-.616-3.38,2.029-4.653,4.359-.51.933-1.622.563-1.774-.561a2.549,2.549,0,0,0-.554-1.349c-1.058-.779-1.9-2.382-3.259-1.832-2.739,3.691-3.89-1.1-6.028.52v5.819a16.652,16.652,0,0,1,1.316,1.048,1.965,1.965,0,0,0,1.911.342" transform="translate(-13.263 -54.592)" fill="#a0c9f6"/>
                      <path id="Trazado_891752" data-name="Trazado 891752" d="M40.983,380.194c1.828-.6,3.339.89,4.459,1.695.983.58,1.751,2.714,2.98,1.822a19.583,19.583,0,0,0,2.976-3.149,2.417,2.417,0,0,1,4.166.306c1.329,2.228,3.742,3.556,5.755,2.508a1.215,1.215,0,0,0,1-1.111,1.329,1.329,0,0,1,.663-1.062,4.524,4.524,0,0,0,.747-.745,2.893,2.893,0,0,1,1.7-1.076c-.27-2.264-.545-4.455-.817-6.544-1.38.092-2.586,1.5-3.708,3.149-.941,1.378-2.635,1.059-3.271-.581-.494-1.275-1.575-2.011-3.609-3.558-2.174-.616-3.38,2.029-4.653,4.359-.51.933-1.622.563-1.774-.561a2.549,2.549,0,0,0-.554-1.349c-1.058-.779-1.9-2.382-3.259-1.831-2.739,3.69-3.89-1.1-6.028.52V378.8a16.659,16.659,0,0,1,1.316,1.048,1.965,1.965,0,0,0,1.911.342" transform="translate(-13.263 -62.504)" fill="#a0c9f6"/>
                      <path id="Trazado_891753" data-name="Trazado 891753" d="M40.983,427.252c1.828-.6,3.339.89,4.459,1.695.983.579,1.751,2.714,2.98,1.822A19.583,19.583,0,0,0,51.4,427.62a2.417,2.417,0,0,1,4.166.306c1.329,2.228,3.742,3.556,5.755,2.508a1.215,1.215,0,0,0,1-1.111,1.329,1.329,0,0,1,.663-1.062,4.522,4.522,0,0,0,.747-.745,2.554,2.554,0,0,1,4.027-.25q.076-2.766.066-5.569a4.171,4.171,0,0,0-.645-.446c-2.537-2.822-4.508-.794-6.275,1.8-.941,1.378-2.635,1.059-3.271-.581-.494-1.275-1.575-2.011-3.609-3.558-2.174-.616-3.38,2.029-4.653,4.359-.51.933-1.622.563-1.774-.561a2.549,2.549,0,0,0-.554-1.349c-1.058-.779-1.9-2.383-3.259-1.832-2.739,3.691-3.89-1.1-6.028.52v5.819a16.632,16.632,0,0,1,1.316,1.048,1.965,1.965,0,0,0,1.911.342" transform="translate(-13.263 -70.415)" fill="#a0c9f6"/>
                      <path id="Trazado_891754" data-name="Trazado 891754" d="M58.6,444.5q.368-2.6.614-5.311a13.668,13.668,0,0,1-2.68,2.636c-.522.343-1.14-.052-1.256-.788a6.425,6.425,0,0,0-.38-1.394c-1.059-2.643-3.706-3.5-5.718-2.026-5.728,4.2-8.714-.72-10.335-1.367a.761.761,0,0,0-.158-.044,6.014,6.014,0,0,0-3.522.73c-.093-.7-6.507,5.6-7.954-.759-.034-.147-.235-.082-.337-.165-3.558-2.9-6.091,3.684-9.327,5.812-.521.343-1.14-.052-1.256-.788a6.462,6.462,0,0,0-.379-1.394,4.916,4.916,0,0,0-.967-1.537q0,4.431,0,8.852a6.826,6.826,0,0,0,1.2.81.98.98,0,0,0,1.273-.112c2.457-2.3,5.253-3.637,7.5-6.191a.763.763,0,0,1,1.319.3,8.447,8.447,0,0,0,2.2,3.061,5.847,5.847,0,0,0,1.531.841.812.812,0,0,0,.327.3,3.216,3.216,0,0,0,1.918.2.792.792,0,0,0,.2-.067c1.423-.69,2.61-1.983,4.056-2.631,1.231-.759,5.249,1.582,7.231,2.6.732.361,4.038-3.389,6.509-5.49.555-.473,1.312.016,1.337.869a8.038,8.038,0,0,0,1.076,3.986,36.462,36.462,0,0,0,4.515-.776c.487-.053.973-.106,1.459-.153" transform="translate(-5.249 -73.185)" fill="#a0c9f6"/>
                      <path id="Trazado_891755" data-name="Trazado 891755" d="M10.53,7.984a3.256,3.256,0,0,0,2.239-.277,1.215,1.215,0,0,0,1-1.111,1.332,1.332,0,0,1,.663-1.063,4.485,4.485,0,0,0,.747-.745,2.607,2.607,0,0,1,4.468.32C20.73,6.83,22.154,8,23.518,6.812a8.988,8.988,0,0,1,3.194-2.519A14.344,14.344,0,0,0,22.881.979,2.664,2.664,0,0,1,20.273.063c-3.479-.5-6.9,1.957-9.743,7.921" transform="translate(-3.699 0)" fill="#a0c9f6"/>
                      <path id="Trazado_891756" data-name="Trazado 891756" d="M5.824,33.319c.278-.23.651-.055.754.349A8.9,8.9,0,0,0,12.048,39.9a.424.424,0,0,0,.434-.087c2.248-1.973,3.58-5.648,6.377-6.76a.441.441,0,0,1,.531.21c1.072,1.659,2.93,4.178,4.8,5.282a.452.452,0,0,0,.147.053s0,.021,0,.023c1.192,1.128,3.366,1.5,4.1.271,1.589-1.6,3.209-4,5.148-4.932q-.435-2.046-.922-3.969c-2.317.413-4.241,2.04-6.116,3.844-.229.22-.849,0-1.639-.952-.091-.433-.512-.644-.807-.341-.548.561-.737,1.732-1.284,2.053-.309.22-.418.217-.632-.187C18.967,27,14.172,29.094,10.632,34.4c-.246.369-.706.279-.853-.168a7.3,7.3,0,0,0-3.949-4.256,2.617,2.617,0,0,0-3.427.194Q1.733,34.183,1.235,38.9c1.567-1.65,3.217-4.445,4.589-5.582" transform="translate(-0.434 -4.947)" fill="#a0c9f6"/>
                      <path id="Trazado_891757" data-name="Trazado 891757" d="M16.355,46.012a4.146,4.146,0,0,0-1.374-1.222c-2.536-2.821-4.508-.794-6.275,1.8-.941,1.378-2.634,1.059-3.27-.581-.494-1.275-1.576-2.011-3.609-3.558a2.118,2.118,0,0,0-1.108-.029c-.074.754-.146,1.512-.212,2.293C.345,46.6.231,48.488.152,50.369a2.4,2.4,0,0,1,3.216,1.1C4.7,53.694,7.11,55.022,9.123,53.974a1.213,1.213,0,0,0,1-1.111,1.331,1.331,0,0,1,.663-1.062,4.514,4.514,0,0,0,.747-.745A2.606,2.606,0,0,1,16,51.375c1.082,1.722,2.507,2.892,3.871,1.7a9.639,9.639,0,0,1,3.524-2.7c.345-.28.731-.643,1.142-1.033V43.571a24.391,24.391,0,0,0-4.16,3.09,2.647,2.647,0,0,1-4.023-.648" transform="translate(-0.053 -7.121)" fill="#a0c9f6"/>
                      <path id="Trazado_891758" data-name="Trazado 891758" d="M21.962,59.722c-.034-.147-.235-.082-.337-.165-3.558-2.9-6.091,3.684-9.327,5.812-.521.343-1.14-.052-1.256-.788a6.476,6.476,0,0,0-.379-1.394c-1.059-2.643-3.707-3.5-5.718-2.026A6.975,6.975,0,0,1,0,62.809q.067,3.27.248,6.526c1.315-.88,3.78-3.558,5.729-5.217.556-.473,1.312.016,1.337.869A6.9,6.9,0,0,0,10.9,71.312a.98.98,0,0,0,1.272-.112c2.458-2.3,5.253-3.637,7.5-6.191a.763.763,0,0,1,1.318.3,8.458,8.458,0,0,0,2.2,3.062,5.9,5.9,0,0,0,1.531.84.812.812,0,0,0,.327.3,3.216,3.216,0,0,0,1.918.2.791.791,0,0,0,.2-.067c1.423-.69,2.61-1.983,4.056-2.631.892-.55,3.243.526,5.225,1.547q-.227-3.506-.472-7A20.929,20.929,0,0,0,33.6,59.795a.775.775,0,0,0-.159-.044,6.018,6.018,0,0,0-3.522.73c-.093-.7-6.507,5.6-7.955-.759" transform="translate(0 -9.891)" fill="#a0c9f6"/>
                      <path id="Trazado_891759" data-name="Trazado 891759" d="M17.111,93.076a4.146,4.146,0,0,0-1.374-1.222c-2.536-2.821-4.508-.794-6.275,1.8-.941,1.378-2.634,1.059-3.27-.581C5.7,91.793,4.616,91.057,2.582,89.51a2.483,2.483,0,0,0-.278-.055q.429,4.054.909,8.1a2.953,2.953,0,0,1,.91.975c1.329,2.227,3.742,3.555,5.755,2.508a1.215,1.215,0,0,0,1-1.112,1.331,1.331,0,0,1,.663-1.062,4.513,4.513,0,0,0,.747-.745,2.606,2.606,0,0,1,4.468.319c1.082,1.722,2.507,2.892,3.871,1.7a9.639,9.639,0,0,1,3.524-2.7c.345-.28.731-.643,1.142-1.033V90.635a24.391,24.391,0,0,0-4.16,3.09,2.647,2.647,0,0,1-4.023-.648" transform="translate(-0.809 -15.04)" fill="#a0c9f6"/>
                      <path id="Trazado_891760" data-name="Trazado 891760" d="M23.825,106.78c-.034-.147-.235-.082-.337-.165-3.558-2.9-6.091,3.684-9.327,5.812-.521.343-1.14-.052-1.256-.788a6.476,6.476,0,0,0-.379-1.394c-1.059-2.643-3.707-3.5-5.718-2.026a10.734,10.734,0,0,1-1.5.933q.228,1.973.446,3.948c.714-.686,1.432-1.364,2.091-1.925.556-.473,1.312.016,1.337.869a6.9,6.9,0,0,0,3.582,6.325.98.98,0,0,0,1.272-.111c2.458-2.3,5.253-3.638,7.5-6.192a.763.763,0,0,1,1.318.3,8.448,8.448,0,0,0,2.2,3.061,5.869,5.869,0,0,0,1.531.841.812.812,0,0,0,.327.3,3.216,3.216,0,0,0,1.918.2.791.791,0,0,0,.2-.067c1.423-.69,2.61-1.983,4.056-2.631,1.232-.759,5.249,1.582,7.231,2.6a.245.245,0,0,0,.084.01q-.144-3.476-.3-6.949c-2.227-.586-3.678-2.488-4.643-2.874a.776.776,0,0,0-.159-.044,6.018,6.018,0,0,0-3.522.73c-.093-.7-6.507,5.6-7.955-.76" transform="translate(-1.863 -17.803)" fill="#a0c9f6"/>
                      <path id="Trazado_891761" data-name="Trazado 891761" d="M19.45,140.343a4.146,4.146,0,0,0-1.374-1.222c-2.536-2.821-4.508-.794-6.275,1.8a1.684,1.684,0,0,1-2.837.167q.252,3.67.487,7.348a3.356,3.356,0,0,0,2.768-.126,1.213,1.213,0,0,0,1-1.111,1.331,1.331,0,0,1,.663-1.062,4.513,4.513,0,0,0,.747-.745,2.606,2.606,0,0,1,4.468.319c1.082,1.722,2.507,2.892,3.871,1.7a9.646,9.646,0,0,1,3.524-2.7c.345-.28.731-.643,1.142-1.033V137.9a24.392,24.392,0,0,0-4.16,3.09,2.647,2.647,0,0,1-4.023-.648" transform="translate(-3.149 -23.161)" fill="#a0c9f6"/>
                      <path id="Trazado_891762" data-name="Trazado 891762" d="M25.494,153.837c-.034-.147-.235-.082-.337-.165-3.558-2.9-6.091,3.684-9.327,5.812-.521.343-1.14-.052-1.256-.788A6.476,6.476,0,0,0,14.2,157.3a3.886,3.886,0,0,0-4.14-2.7c.071,1.174.147,2.345.215,3.52a1.079,1.079,0,0,1,.576.981,6.9,6.9,0,0,0,3.582,6.325.98.98,0,0,0,1.272-.111c2.458-2.3,5.253-3.638,7.5-6.192a.763.763,0,0,1,1.318.3,8.447,8.447,0,0,0,2.2,3.061,5.845,5.845,0,0,0,1.531.841.812.812,0,0,0,.327.3,3.223,3.223,0,0,0,1.918.2.828.828,0,0,0,.2-.068c1.423-.69,2.61-1.983,4.056-2.631,1.232-.759,5.249,1.582,7.231,2.6.243.12.776-.22,1.464-.8q-.1-2.986-.2-5.97c-3.09.1-4.963-2.579-6.128-3.045a.773.773,0,0,0-.159-.044,6.012,6.012,0,0,0-3.522.73c-.093-.7-6.507,5.6-7.955-.759" transform="translate(-3.532 -25.715)" fill="#a0c9f6"/>
                      <path id="Trazado_891763" data-name="Trazado 891763" d="M20.633,187.4a4.135,4.135,0,0,0-1.374-1.221c-2.536-2.822-4.508-.794-6.275,1.794a2.1,2.1,0,0,1-.654.631q.149,3.52.282,7.046a3.2,3.2,0,0,0,.789-.287,1.215,1.215,0,0,0,1-1.112,1.331,1.331,0,0,1,.663-1.062,4.513,4.513,0,0,0,.747-.745,2.606,2.606,0,0,1,4.468.319c1.082,1.722,2.507,2.892,3.871,1.7a9.639,9.639,0,0,1,3.524-2.7c.345-.28.731-.643,1.142-1.033v-5.779a24.353,24.353,0,0,0-4.16,3.09,2.648,2.648,0,0,1-4.023-.649" transform="translate(-4.331 -31.073)" fill="#a0c9f6"/>
                      <path id="Trazado_891764" data-name="Trazado 891764" d="M26.52,200.894c-.034-.146-.235-.081-.337-.165-3.558-2.9-6.091,3.684-9.327,5.812-.521.343-1.14-.052-1.256-.787a6.484,6.484,0,0,0-.379-1.4,4.351,4.351,0,0,0-2.245-2.451q.159,4.357.3,8.722a6.445,6.445,0,0,0,2.182,1.854.982.982,0,0,0,1.272-.111c2.458-2.3,5.253-3.638,7.5-6.192a.763.763,0,0,1,1.318.3,8.472,8.472,0,0,0,2.2,3.062,5.872,5.872,0,0,0,1.531.839.82.82,0,0,0,.327.3,3.229,3.229,0,0,0,1.918.2.762.762,0,0,0,.2-.068c1.423-.689,2.61-1.983,4.056-2.63,1.232-.76,5.249,1.581,7.231,2.6.376.185,1.432-.717,2.7-1.92q-.088-2.517-.173-5.038c-3.857,1.015-6.074-2.331-7.39-2.856a.833.833,0,0,0-.159-.045,6.025,6.025,0,0,0-3.522.731c-.093-.7-6.507,5.6-7.955-.76" transform="translate(-4.558 -33.626)" fill="#a0c9f6"/>
                      <path id="Trazado_891765" data-name="Trazado 891765" d="M33.273,274.18c1.645-1.661,3.321-4.177,5.353-5.029.309-.131.632.158.657.574a6.67,6.67,0,0,0,2.79,5.345c1.851,1.779,4.392-2.821,6.536-5.384q-.138-2.477-.269-4.955c-1.894-.228-3.381,1.974-4.749,3.773-.283.37-.79.214-.876-.294a1.145,1.145,0,0,0-.344-.7,7.126,7.126,0,0,0-3.436-2.325.568.568,0,0,0-.105-.013c-2.934-.09-5.224,1.808-7.447,3.946-.228.22-.848,0-1.639-.953-.091-.432-.512-.643-.808-.34-.548.56-.736,1.732-1.284,2.053-.309.22-.418.216-.631-.189-3.216-7.406-8.01-5.312-11.551-.008a.452.452,0,0,1-.462.222q.025,2.161.046,4.326a8.667,8.667,0,0,0,1.833.954.424.424,0,0,0,.434-.088c2.247-1.973,3.58-5.649,6.377-6.761a.441.441,0,0,1,.53.211c1.074,1.657,2.931,4.178,4.8,5.281a.386.386,0,0,0,.147.053c0,.006,0,.022,0,.023,1.191,1.13,3.366,1.5,4.1.272" transform="translate(-5.273 -44.506)" fill="#a0c9f6"/>
                      <path id="Trazado_891766" data-name="Trazado 891766" d="M15.061,241.309a1.331,1.331,0,0,1,.663-1.062,4.512,4.512,0,0,0,.747-.745,2.606,2.606,0,0,1,4.468.319c1.082,1.722,2.507,2.892,3.87,1.7a9.653,9.653,0,0,1,3.524-2.7c.345-.28.731-.643,1.142-1.033v-5.779a24.392,24.392,0,0,0-4.16,3.09,2.647,2.647,0,0,1-4.023-.648,4.146,4.146,0,0,0-1.374-1.222c-2.27-2.526-4.088-1.163-5.711,1.007q.093,4.023.173,8.052a1.093,1.093,0,0,0,.681-.987" transform="translate(-4.991 -38.985)" fill="#a0c9f6"/>
                      <path id="Trazado_891767" data-name="Trazado 891767" d="M17.3,259.43c2.457-2.3,5.253-3.637,7.5-6.191a.763.763,0,0,1,1.319.3,8.451,8.451,0,0,0,2.2,3.062,5.848,5.848,0,0,0,1.531.84.814.814,0,0,0,.327.3,3.222,3.222,0,0,0,1.918.2.825.825,0,0,0,.2-.068c1.423-.69,2.61-1.982,4.056-2.63,1.231-.76,5.249,1.582,7.231,2.6.52.257,2.342-1.565,4.241-3.395q-.1-2.078-.2-4.158c-4.8,2.479-7.423-1.67-8.9-2.261a.813.813,0,0,0-.158-.044,6.027,6.027,0,0,0-3.522.73c-.093-.7-6.507,5.6-7.954-.76-.034-.147-.235-.082-.337-.164-3.558-2.9-6.091,3.684-9.327,5.811-.521.343-1.14-.052-1.256-.787a6.449,6.449,0,0,0-.379-1.394,4.777,4.777,0,0,0-1.18-1.749q.081,4.5.145,9a6.785,6.785,0,0,0,1.268.868.98.98,0,0,0,1.273-.111" transform="translate(-5.135 -41.538)" fill="#a0c9f6"/>
                      <path id="Trazado_891768" data-name="Trazado 891768" d="M33.4,321.237c1.645-1.661,3.321-4.177,5.353-5.029.309-.13.632.158.657.575a6.672,6.672,0,0,0,2.79,5.345c2.162,2.077,5.264-4.547,7.577-6.464.278-.23.65-.055.754.349a9.439,9.439,0,0,0,1.128,2.657q-.244-2.745-.475-5.5a10.829,10.829,0,0,0-1.4-.854c-2.547-1.756-4.394,1.047-6.063,3.242-.283.371-.79.214-.876-.293a1.149,1.149,0,0,0-.344-.7,7.13,7.13,0,0,0-3.436-2.324.508.508,0,0,0-.105-.013c-2.934-.09-5.224,1.807-7.447,3.946-.228.22-.848,0-1.639-.952-.091-.433-.512-.644-.808-.341-.548.561-.736,1.732-1.284,2.053-.309.22-.418.217-.631-.188-3.216-7.407-8.01-5.312-11.551-.008a.519.519,0,0,1-.224.194q0,2.241,0,4.481a8.549,8.549,0,0,0,1.637.826.424.424,0,0,0,.434-.087c2.247-1.973,3.58-5.649,6.377-6.761a.441.441,0,0,1,.53.21c1.074,1.658,2.931,4.178,4.8,5.282a.435.435,0,0,0,.147.054c0,.005,0,.021,0,.023,1.191,1.128,3.366,1.5,4.1.271" transform="translate(-5.401 -52.417)" fill="#a0c9f6"/>
                      <path id="Trazado_891769" data-name="Trazado 891769" d="M16.052,287.3a4.516,4.516,0,0,0,.747-.745,2.606,2.606,0,0,1,4.468.319c1.082,1.722,2.507,2.892,3.87,1.7a9.647,9.647,0,0,1,3.524-2.7c.345-.28.731-.643,1.142-1.033v-5.779a24.391,24.391,0,0,0-4.16,3.09,2.647,2.647,0,0,1-4.023-.648,4.146,4.146,0,0,0-1.374-1.222c-1.992-2.216-3.635-1.436-5.105.254q.038,4.193.066,8.387a1.248,1.248,0,0,0,.183-.568,1.331,1.331,0,0,1,.663-1.062" transform="translate(-5.319 -46.897)" fill="#a0c9f6"/>
                      <path id="Trazado_891770" data-name="Trazado 891770" d="M17.54,306.488c2.457-2.3,5.253-3.637,7.5-6.191a.763.763,0,0,1,1.319.3,8.451,8.451,0,0,0,2.2,3.062,5.871,5.871,0,0,0,1.531.841.812.812,0,0,0,.327.3,3.222,3.222,0,0,0,1.918.2.793.793,0,0,0,.2-.068c1.423-.69,2.61-1.982,4.056-2.63,1.231-.759,5.249,1.582,7.231,2.6.729.36,4.012-3.358,6.479-5.465q-.126-1.707-.25-3.414a3.89,3.89,0,0,0-.754.432c-5.728,4.2-8.714-.719-10.335-1.367a.815.815,0,0,0-.158-.044,6.021,6.021,0,0,0-3.522.731c-.093-.7-6.507,5.594-7.954-.759-.034-.148-.235-.082-.337-.165-3.558-2.9-6.091,3.684-9.327,5.811-.521.343-1.14-.051-1.256-.787a6.463,6.463,0,0,0-.379-1.394,5.056,5.056,0,0,0-.743-1.287q.022,4.4.036,8.808a6.826,6.826,0,0,0,.939.6.98.98,0,0,0,1.273-.111" transform="translate(-5.372 -49.45)" fill="#a0c9f6"/>
                      <path id="Trazado_891771" data-name="Trazado 891771" d="M33.359,368.294c1.645-1.661,3.321-4.177,5.353-5.03.309-.13.632.159.657.575a6.672,6.672,0,0,0,2.79,5.345c2.162,2.077,5.264-4.547,7.577-6.464.278-.23.65-.055.754.349a8.9,8.9,0,0,0,5.47,6.232.425.425,0,0,0,.435-.087c.036-.032.071-.069.107-.1-.317-2.4-.627-4.654-.913-6.736q-.537.664-1.045,1.424c-.246.368-.705.278-.853-.169a7.3,7.3,0,0,0-3.949-4.256c-2.547-1.756-4.394,1.047-6.063,3.242-.283.371-.79.214-.876-.293a1.149,1.149,0,0,0-.344-.7,7.13,7.13,0,0,0-3.436-2.324.5.5,0,0,0-.105-.013c-2.934-.09-5.224,1.807-7.447,3.946-.228.22-.848,0-1.639-.952-.091-.433-.512-.644-.808-.341-.548.561-.736,1.732-1.284,2.053-.309.22-.418.217-.631-.187-3.216-7.408-8.01-5.313-11.551-.009a.488.488,0,0,1-.287.211q-.008,2.206-.016,4.411a8.567,8.567,0,0,0,1.72.878.424.424,0,0,0,.434-.087c2.247-1.973,3.58-5.649,6.377-6.761a.441.441,0,0,1,.53.21c1.074,1.658,2.931,4.178,4.8,5.282a.416.416,0,0,0,.147.053c0,.006,0,.022,0,.023,1.191,1.129,3.366,1.5,4.1.272" transform="translate(-5.359 -60.329)" fill="#a0c9f6"/>
                      <path id="Trazado_891772" data-name="Trazado 891772" d="M15.471,335.423a1.331,1.331,0,0,1,.663-1.062,4.514,4.514,0,0,0,.747-.745,2.606,2.606,0,0,1,4.468.319c1.082,1.722,2.507,2.892,3.87,1.7a9.644,9.644,0,0,1,3.524-2.7c.345-.28.731-.643,1.142-1.033v-5.779a24.391,24.391,0,0,0-4.16,3.09,2.647,2.647,0,0,1-4.023-.648,4.146,4.146,0,0,0-1.374-1.222c-1.921-2.137-3.519-1.49-4.948.075q0,4.2-.006,8.4a1.372,1.372,0,0,0,.1-.4" transform="translate(-5.4 -54.808)" fill="#a0c9f6"/>
                      <path id="Trazado_891773" data-name="Trazado 891773" d="M17.551,353.545c2.457-2.3,5.253-3.637,7.5-6.191a.763.763,0,0,1,1.319.3,8.45,8.45,0,0,0,2.2,3.062,5.847,5.847,0,0,0,1.531.84.82.82,0,0,0,.327.3,3.229,3.229,0,0,0,1.918.2.822.822,0,0,0,.2-.068c1.423-.69,2.61-1.982,4.056-2.63,1.231-.759,5.249,1.582,7.231,2.6.732.362,4.038-3.388,6.509-5.49.555-.472,1.312.016,1.337.87a6.971,6.971,0,0,0,3.113,6.05c-.1-.747-.189-1.467-.27-2.129q-.462-3.822-.885-7.661a3.458,3.458,0,0,0-4.327-.087c-5.728,4.2-8.714-.719-10.335-1.367a.811.811,0,0,0-.158-.044,6.027,6.027,0,0,0-3.522.73c-.093-.7-6.507,5.6-7.954-.759-.034-.147-.235-.082-.337-.164-3.558-2.9-6.091,3.683-9.327,5.811-.521.343-1.14-.051-1.256-.787a6.449,6.449,0,0,0-.379-1.394,5.065,5.065,0,0,0-.7-1.229q-.01,4.37-.023,8.737a6.893,6.893,0,0,0,.957.616.98.98,0,0,0,1.273-.111" transform="translate(-5.382 -57.362)" fill="#a0c9f6"/>
                      <path id="Trazado_891774" data-name="Trazado 891774" d="M16.064,381.419a4.514,4.514,0,0,0,.747-.745,2.606,2.606,0,0,1,4.468.319c1.082,1.722,2.507,2.892,3.87,1.7a9.647,9.647,0,0,1,3.524-2.7c.345-.28.731-.643,1.142-1.033v-5.779a24.392,24.392,0,0,0-4.16,3.09,2.647,2.647,0,0,1-4.023-.648,4.146,4.146,0,0,0-1.374-1.222c-1.966-2.187-3.593-1.456-5.048.188q-.018,4.261-.036,8.518a1.2,1.2,0,0,0,.227-.634,1.331,1.331,0,0,1,.663-1.062" transform="translate(-5.33 -62.72)" fill="#a0c9f6"/>
                      <path id="Trazado_891775" data-name="Trazado 891775" d="M17.466,400.6c2.457-2.3,5.253-3.637,7.5-6.191a.763.763,0,0,1,1.319.3,8.451,8.451,0,0,0,2.2,3.062,5.848,5.848,0,0,0,1.531.84.808.808,0,0,0,.327.3,3.222,3.222,0,0,0,1.918.2.792.792,0,0,0,.2-.068c1.423-.69,2.61-1.982,4.056-2.63,1.231-.759,5.249,1.582,7.231,2.6.732.362,4.038-3.388,6.509-5.489.555-.473,1.312.015,1.337.869a6.9,6.9,0,0,0,3.582,6.324.98.98,0,0,0,1.273-.111,28.03,28.03,0,0,1,2.634-2.128q-.217-2.823-.476-5.579a10.76,10.76,0,0,1-2.028,1.876c-.522.343-1.14-.051-1.256-.787a6.412,6.412,0,0,0-.38-1.394c-1.059-2.644-3.706-3.5-5.718-2.026-5.728,4.2-8.714-.719-10.335-1.367a.81.81,0,0,0-.158-.044,6.021,6.021,0,0,0-3.522.731c-.093-.7-6.507,5.594-7.954-.76-.034-.147-.235-.082-.337-.164-3.558-2.9-6.091,3.684-9.327,5.811-.521.343-1.14-.051-1.256-.787a6.449,6.449,0,0,0-.379-1.394,4.962,4.962,0,0,0-.843-1.4q-.018,4.4-.037,8.785a6.8,6.8,0,0,0,1.113.739.98.98,0,0,0,1.273-.111" transform="translate(-5.297 -65.274)" fill="#a0c9f6"/>
                      <path id="Trazado_891776" data-name="Trazado 891776" d="M17.321,416.272c2.248-1.973,3.581-5.649,6.377-6.761a.441.441,0,0,1,.53.21c1.074,1.658,2.93,4.178,4.8,5.282a.416.416,0,0,0,.147.053c0,.006,0,.022,0,.024,1.192,1.128,3.366,1.5,4.1.271,1.645-1.661,3.322-4.177,5.353-5.029.309-.13.632.158.658.575a6.669,6.669,0,0,0,2.789,5.345c2.162,2.077,5.265-4.547,7.577-6.464.278-.23.651-.055.754.349a8.907,8.907,0,0,0,5.471,6.232.424.424,0,0,0,.434-.087,30.445,30.445,0,0,0,3.368-4.213q-.108-2.871-.282-5.723a11.216,11.216,0,0,0-4.937,4.522c-.246.369-.706.278-.853-.169a7.3,7.3,0,0,0-3.949-4.256c-2.547-1.756-4.394,1.047-6.063,3.242-.283.371-.79.214-.876-.293a1.146,1.146,0,0,0-.344-.7,7.127,7.127,0,0,0-3.436-2.324.488.488,0,0,0-.1-.013c-2.934-.09-5.224,1.807-7.448,3.946-.228.22-.848,0-1.638-.953-.092-.433-.512-.644-.808-.341-.548.561-.736,1.732-1.284,2.053-.309.22-.417.217-.631-.188-3.216-7.407-8.01-5.312-11.551-.008a.452.452,0,0,1-.446.222q-.008,2.147-.014,4.292a8.578,8.578,0,0,0,1.877.987.424.424,0,0,0,.434-.087" transform="translate(-5.273 -68.241)" fill="#a0c9f6"/>
                      <path id="Trazado_891777" data-name="Trazado 891777" d="M15.326,429.538a1.331,1.331,0,0,1,.663-1.062,4.515,4.515,0,0,0,.747-.745,2.606,2.606,0,0,1,4.468.319c1.082,1.722,2.507,2.892,3.87,1.7a9.644,9.644,0,0,1,3.524-2.7c.345-.28.731-.643,1.142-1.033v-5.779a24.391,24.391,0,0,0-4.16,3.09,2.647,2.647,0,0,1-4.023-.648,4.146,4.146,0,0,0-1.374-1.222c-2.036-2.265-3.708-1.4-5.2.364q-.013,4.251-.021,8.494a1.119,1.119,0,0,0,.367-.786" transform="translate(-5.255 -70.632)" fill="#a0c9f6"/>
                      <path id="Trazado_891778" data-name="Trazado 891778" d="M140.432,80.968c-.306,0-.81-.3-1.417-1.027-.092-.433-.512-.644-.808-.341-.548.561-.736,1.732-1.284,2.053-.309.22-.417.217-.631-.188-3.216-7.407-8.01-5.312-11.551-.008-.246.369-.706.278-.853-.169a7.3,7.3,0,0,0-3.949-4.256c-2.547-1.756-4.394,1.046-6.063,3.242-.282.371-.79.214-.876-.293a1.149,1.149,0,0,0-.344-.7,7.127,7.127,0,0,0-3.436-2.324.494.494,0,0,0-.1-.013,7.907,7.907,0,0,0-5.017,1.831q.243,3,.544,5.989c1.309-1.5,2.68-3.179,4.269-3.846.31-.13.632.158.658.575a6.669,6.669,0,0,0,2.789,5.345c2.162,2.077,5.265-4.547,7.577-6.464.278-.23.651-.055.754.349a8.909,8.909,0,0,0,5.471,6.232.424.424,0,0,0,.434-.087c2.248-1.973,3.58-5.649,6.377-6.761a.441.441,0,0,1,.53.21c1.074,1.658,2.93,4.178,4.8,5.282a.417.417,0,0,0,.147.053c0,.006,0,.022,0,.024a3.919,3.919,0,0,0,2.308,1.023q-.155-2.87-.323-5.734" transform="translate(-36.568 -12.858)" fill="#a0c9f6"/>
                      <path id="Trazado_891779" data-name="Trazado 891779" d="M157.956,90.819v5.818c.2.1.771.6,1.316,1.048a1.961,1.961,0,0,0,.869.413q-.181-3.687-.376-7.365a1.511,1.511,0,0,0-1.809.086" transform="translate(-55.488 -15.211)" fill="#a0c9f6"/>
                      <path id="Trazado_891780" data-name="Trazado 891780" d="M141.183,127c-.091-.433-.512-.644-.808-.342-.548.562-.736,1.734-1.284,2.054-.309.221-.417.217-.631-.188-3.217-7.407-8.01-5.312-11.552-.008-.246.368-.705.277-.853-.17a7.3,7.3,0,0,0-3.949-4.255c-2.547-1.756-4.394,1.046-6.063,3.24-.283.372-.791.215-.877-.292a1.142,1.142,0,0,0-.344-.7,7.139,7.139,0,0,0-3.436-2.326.558.558,0,0,0-.1-.012,6.367,6.367,0,0,0-1.014.051q.192,2.07.357,4.145a4.872,4.872,0,0,1,.453-.222c.309-.13.632.158.657.575a6.672,6.672,0,0,0,2.79,5.345c2.162,2.076,5.264-4.547,7.576-6.464.278-.23.651-.054.754.349a8.909,8.909,0,0,0,5.47,6.234.428.428,0,0,0,.434-.088c2.248-1.974,3.581-5.649,6.377-6.761a.442.442,0,0,1,.53.211c1.074,1.657,2.931,4.178,4.8,5.282a.47.47,0,0,0,.147.052c0,.006,0,.022,0,.023,1.157,1.1,3.238,1.473,4.026.369q-.123-3.294-.251-6.583c-.531.448-1.052.933-1.569,1.429-.228.22-.847,0-1.638-.952" transform="translate(-38.736 -20.77)" fill="#a0c9f6"/>
                      <path id="Trazado_891781" data-name="Trazado 891781" d="M137.861,106.78c-.034-.147-.235-.082-.337-.165-3.558-2.9-6.091,3.684-9.327,5.812-.521.343-1.14-.052-1.256-.788a6.476,6.476,0,0,0-.379-1.394c-1.059-2.643-3.707-3.5-5.718-2.026-5.728,4.2-8.713-.72-10.334-1.367a.776.776,0,0,0-.159-.044,4.86,4.86,0,0,0-2.4.271q.4,3.419.778,6.841c1.626-.037,4.906,1.858,6.635,2.745.732.361,4.038-3.389,6.508-5.49.555-.473,1.312.016,1.336.869a6.9,6.9,0,0,0,3.582,6.325.98.98,0,0,0,1.272-.111c2.458-2.3,5.253-3.638,7.5-6.192a.763.763,0,0,1,1.318.3,8.447,8.447,0,0,0,2.2,3.061,5.869,5.869,0,0,0,1.531.841.812.812,0,0,0,.327.3,3.216,3.216,0,0,0,1.918.2.791.791,0,0,0,.2-.067c.077-.037.151-.083.227-.124q-.158-3.786-.328-7.564c-1.941.92-4.3,1.317-5.107-2.232" transform="translate(-37.924 -17.803)" fill="#a0c9f6"/>
                      <path id="Trazado_891782" data-name="Trazado 891782" d="M157.956,137.877V143.7c.2.1.771.6,1.316,1.048a1.961,1.961,0,0,0,1.911.342,2.739,2.739,0,0,1,.549-.117q-.109-3.117-.221-6.232c-1.229-.318-2.193-1.891-3.556-.859" transform="translate(-55.488 -23.123)" fill="#a0c9f6"/>
                      <path id="Trazado_891783" data-name="Trazado 891783" d="M142.6,174.055c-.091-.433-.512-.644-.808-.341-.548.561-.736,1.732-1.284,2.053-.309.22-.417.217-.631-.188-3.217-7.407-8.01-5.312-11.552-.008-.246.369-.705.278-.853-.169a7.3,7.3,0,0,0-3.949-4.256c-2.547-1.756-4.394,1.047-6.063,3.242-.283.371-.791.214-.877-.293a1.144,1.144,0,0,0-.344-.7,9.14,9.14,0,0,0-1.934-1.671q.206,4.035.394,8.08a6.387,6.387,0,0,0,1.243,1.147c2.162,2.077,5.264-4.547,7.576-6.464.278-.23.651-.055.754.349a8.907,8.907,0,0,0,5.47,6.232.424.424,0,0,0,.434-.087c2.248-1.974,3.581-5.649,6.377-6.761a.441.441,0,0,1,.53.21c1.074,1.658,2.931,4.178,4.8,5.282a.417.417,0,0,0,.147.053c0,.006,0,.022,0,.023,1.192,1.129,3.366,1.5,4.1.272.4-.4.792-.847,1.194-1.309q-.1-3.095-.2-6.189a22.906,22.906,0,0,0-2.887,2.441c-.228.22-.847,0-1.638-.952" transform="translate(-40.155 -28.682)" fill="#a0c9f6"/>
                      <path id="Trazado_891784" data-name="Trazado 891784" d="M139.655,153.837c-.034-.147-.235-.082-.337-.165-3.558-2.9-6.091,3.684-9.327,5.812-.521.343-1.14-.052-1.256-.788a6.476,6.476,0,0,0-.38-1.394c-1.059-2.643-3.707-3.5-5.718-2.026-4.931,3.617-7.829.475-9.574-.883q.227,3.732.436,7.472c1.337.6,2.727,1.378,3.663,1.858.732.361,4.038-3.389,6.508-5.49.555-.473,1.312.016,1.336.869a6.9,6.9,0,0,0,3.582,6.325.98.98,0,0,0,1.272-.111c2.458-2.3,5.253-3.638,7.5-6.192a.763.763,0,0,1,1.318.3,8.448,8.448,0,0,0,2.2,3.061,5.845,5.845,0,0,0,1.531.841.812.812,0,0,0,.327.3,3.223,3.223,0,0,0,1.918.2.828.828,0,0,0,.2-.068,10.394,10.394,0,0,0,1.607-1.024q-.121-3.736-.245-7.469c-1.992,1.21-5.538,3.1-6.569-1.427" transform="translate(-39.718 -25.715)" fill="#a0c9f6"/>
                      <path id="Trazado_891785" data-name="Trazado 891785" d="M157.956,184.934v5.818c.2.1.771.6,1.316,1.048a1.965,1.965,0,0,0,1.911.342,2.815,2.815,0,0,1,1.83.031q-.107-3.3-.213-6.59c-1.942,1.175-3.043-2.012-4.845-.649" transform="translate(-55.488 -31.035)" fill="#a0c9f6"/>
                      <path id="Trazado_891786" data-name="Trazado 891786" d="M143.467,221.112c-.091-.433-.512-.644-.808-.341-.548.561-.736,1.732-1.284,2.053-.309.22-.417.217-.631-.188-3.217-7.407-8.01-5.312-11.552-.008-.246.368-.705.278-.853-.169a7.3,7.3,0,0,0-3.949-4.256c-2.547-1.756-4.394,1.046-6.063,3.242-.283.371-.791.214-.877-.293a1.148,1.148,0,0,0-.344-.7c-.109-.122-.222-.242-.337-.36q.116,4.028.216,8.063c2.152,1.574,5.149-4.745,7.4-6.61.278-.23.651-.055.754.349a8.907,8.907,0,0,0,5.47,6.232.424.424,0,0,0,.434-.087c2.248-1.974,3.581-5.649,6.377-6.761a.441.441,0,0,1,.53.21c1.074,1.658,2.931,4.178,4.8,5.282a.417.417,0,0,0,.147.053c0,.006,0,.022,0,.023,1.192,1.129,3.366,1.5,4.1.272.806-.814,1.62-1.832,2.479-2.76q-.1-2.743-.2-5.488a17.362,17.362,0,0,0-4.165,3.191c-.228.22-.847,0-1.638-.953" transform="translate(-41.02 -36.594)" fill="#a0c9f6"/>
                      <path id="Trazado_891787" data-name="Trazado 891787" d="M140.709,200.894c-.034-.146-.235-.081-.337-.165-3.558-2.9-6.091,3.684-9.327,5.812-.521.343-1.14-.052-1.256-.787a6.484,6.484,0,0,0-.379-1.4c-1.059-2.642-3.707-3.5-5.718-2.026-3.425,2.511-5.869,1.763-7.627.616q.122,3.41.232,6.824c.723.374,1.393.737,1.92,1.007.732.36,4.038-3.39,6.508-5.491.555-.472,1.312.016,1.336.869a6.9,6.9,0,0,0,3.582,6.326.982.982,0,0,0,1.272-.111c2.458-2.3,5.253-3.638,7.5-6.192a.763.763,0,0,1,1.318.3,8.472,8.472,0,0,0,2.2,3.062,5.872,5.872,0,0,0,1.531.839.82.82,0,0,0,.327.3,3.229,3.229,0,0,0,1.918.2.762.762,0,0,0,.2-.068,23.741,23.741,0,0,0,2.855-1.932q-.127-3.634-.248-7.268c-.95.27-6.482,5.127-7.814-.72" transform="translate(-40.773 -33.626)" fill="#a0c9f6"/>
                      <path id="Trazado_891788" data-name="Trazado 891788" d="M157.956,231.947v5.818c.2.1.771.6,1.316,1.049a1.963,1.963,0,0,0,1.911.341,3.637,3.637,0,0,1,3.3.824q-.185-4.295-.355-8.6c-.047.014-.093.026-.141.045-2.739,3.691-3.89-1.1-6.028.52" transform="translate(-55.488 -38.902)" fill="#a0c9f6"/>
                      <path id="Trazado_891789" data-name="Trazado 891789" d="M151.393,265.326c-2.2.485-4.047,2.061-5.85,3.8-.228.22-.848,0-1.638-.952-.092-.433-.512-.645-.808-.342-.548.561-.736,1.732-1.284,2.053-.309.22-.417.217-.631-.187-3.216-7.408-8.01-5.313-11.551-.009-.246.369-.706.279-.853-.168a7.3,7.3,0,0,0-3.949-4.256c-2.547-1.757-4.394,1.046-6.063,3.241a.451.451,0,0,1-.749.008q.042,3.478.077,6.955c2.075.1,4.705-5.182,6.73-6.86.278-.23.651-.055.754.349a8.9,8.9,0,0,0,5.471,6.232.424.424,0,0,0,.434-.087c2.248-1.973,3.58-5.648,6.377-6.76a.44.44,0,0,1,.53.21c1.074,1.659,2.93,4.178,4.8,5.281a.436.436,0,0,0,.147.054s0,.021,0,.023c1.192,1.129,3.366,1.5,4.1.271,1.325-1.338,2.671-3.228,4.2-4.359q-.125-2.246-.245-4.494" transform="translate(-41.458 -44.506)" fill="#a0c9f6"/>
                      <path id="Trazado_891790" data-name="Trazado 891790" d="M163.983,278.471c-2.739,3.691-3.89-1.1-6.028.52v5.819a16.531,16.531,0,0,1,1.316,1.048,1.965,1.965,0,0,0,1.911.342c1.828-.6,3.339.89,4.459,1.694a4.895,4.895,0,0,1,1.063,1.081q-.329-4.874-.625-9.762c-.618-.6-1.26-1.081-2.1-.742" transform="translate(-55.488 -46.8)" fill="#a0c9f6"/>
                      <path id="Trazado_891791" data-name="Trazado 891791" d="M154.166,312.581a4.379,4.379,0,0,0-.933-.334.508.508,0,0,0-.105-.013c-2.934-.09-5.224,1.807-7.447,3.946-.229.22-.848,0-1.639-.953-.091-.433-.512-.644-.808-.341-.548.561-.736,1.732-1.284,2.053-.309.22-.417.217-.631-.187-3.216-7.408-8.01-5.313-11.552-.009-.246.368-.705.278-.853-.169a7.3,7.3,0,0,0-3.949-4.255c-2.547-1.757-4.394,1.046-6.063,3.241a.455.455,0,0,1-.494.185q0,3.387.006,6.771c2.045-.2,4.581-5.224,6.545-6.853.278-.23.651-.055.754.349a8.9,8.9,0,0,0,5.471,6.232.424.424,0,0,0,.434-.087c2.247-1.973,3.58-5.649,6.377-6.76a.44.44,0,0,1,.53.21c1.074,1.659,2.931,4.178,4.8,5.282a.436.436,0,0,0,.147.054s0,.021,0,.023c1.191,1.128,3.366,1.5,4.1.271,1.645-1.66,3.321-4.177,5.353-5.029.309-.13.633.158.657.575a7.206,7.206,0,0,0,1.288,3.866q-.367-4.027-.7-8.067" transform="translate(-41.596 -52.417)" fill="#a0c9f6"/>
                      <path id="Trazado_891792" data-name="Trazado 891792" d="M167.8,328.709a2.549,2.549,0,0,0-.554-1.349c-1.058-.779-1.9-2.382-3.259-1.832-2.739,3.691-3.89-1.1-6.028.52v5.819a16.664,16.664,0,0,1,1.316,1.048,1.965,1.965,0,0,0,1.911.342c1.828-.6,3.339.89,4.459,1.695.983.58,1.751,2.714,2.98,1.822a14.163,14.163,0,0,0,1.368-1.28q-.313-2.982-.607-5.973c-.555.587-1.452.191-1.587-.811" transform="translate(-55.488 -54.712)" fill="#a0c9f6"/>
                      <path id="Trazado_891793" data-name="Trazado 891793" d="M158.526,361.718c-.23.3-.457.606-.68.9-.283.372-.79.215-.876-.293a1.15,1.15,0,0,0-.344-.7,7.133,7.133,0,0,0-3.436-2.324.635.635,0,0,0-.1-.013c-2.934-.09-5.225,1.807-7.448,3.946-.228.22-.848,0-1.639-.952-.091-.433-.512-.645-.808-.342-.548.561-.736,1.732-1.284,2.054-.309.22-.418.217-.631-.188-3.216-7.407-8.01-5.312-11.551-.009-.246.369-.706.279-.853-.168a7.3,7.3,0,0,0-3.949-4.256c-2.547-1.757-4.394,1.047-6.063,3.241a.449.449,0,0,1-.549.165q-.013,3.4-.026,6.8c2.06-.057,4.64-5.2,6.634-6.857.278-.23.651-.055.754.349a8.9,8.9,0,0,0,5.471,6.232.422.422,0,0,0,.434-.087c2.248-1.973,3.58-5.648,6.377-6.76a.442.442,0,0,1,.53.21c1.074,1.659,2.93,4.178,4.8,5.282a.453.453,0,0,0,.147.053s0,.022,0,.023c1.192,1.129,3.366,1.5,4.1.272,1.645-1.661,3.322-4.178,5.353-5.03.309-.13.632.158.657.575a6.669,6.669,0,0,0,2.79,5.344c.9.869,1.974.213,3.081-.982-.309-2.309-.608-4.482-.883-6.484" transform="translate(-41.552 -60.329)" fill="#a0c9f6"/>
                      <path id="Trazado_891794" data-name="Trazado 891794" d="M169.57,376.208c-.51.934-1.622.563-1.774-.561a2.554,2.554,0,0,0-.554-1.349c-1.059-.779-1.9-2.382-3.26-1.831-2.739,3.69-3.89-1.1-6.027.52v5.818c.2.1.771.6,1.316,1.048a1.967,1.967,0,0,0,1.912.342c1.827-.6,3.338.891,4.459,1.695.983.58,1.752,2.714,2.98,1.822a19.556,19.556,0,0,0,2.976-3.149,2.409,2.409,0,0,1,2.93-.844c-.329-2.776-.667-5.442-1-7.953-1.75.062-2.83,2.373-3.96,4.442" transform="translate(-55.488 -62.505)" fill="#a0c9f6"/>
                      <path id="Trazado_891795" data-name="Trazado 891795" d="M161.183,427.252c1.828-.6,3.339.89,4.459,1.695.983.579,1.751,2.714,2.98,1.822a19.582,19.582,0,0,0,2.976-3.149,2.417,2.417,0,0,1,4.166.306,6.975,6.975,0,0,0,.99,1.289c.107-2.689.143-5.416.126-8.156a26.8,26.8,0,0,0-2.658-2.152c-2.173-.616-3.38,2.029-4.653,4.359-.51.933-1.622.563-1.774-.561a2.548,2.548,0,0,0-.554-1.349c-1.058-.779-1.9-2.383-3.259-1.832-2.739,3.691-3.89-1.1-6.028.52v5.819a16.634,16.634,0,0,1,1.316,1.048,1.965,1.965,0,0,0,1.911.342" transform="translate(-55.488 -70.415)" fill="#a0c9f6"/>
                      <path id="Trazado_891796" data-name="Trazado 891796" d="M169.838,439.614c.042-.435.075-.875.112-1.314-5.058,2.927-7.779-1.439-9.3-2.046a.827.827,0,0,0-.159-.044,6.024,6.024,0,0,0-3.522.73c-.093-.7-6.507,5.6-7.955-.759-.034-.147-.235-.082-.337-.164-3.425-2.8-5.9,3.2-8.968,5.554,8.3-.518,16.623-1.017,25.039-1.633,1.7-.117,3.4-.23,5.088-.324" transform="translate(-49.079 -73.185)" fill="#a0c9f6"/>
                      <path id="Trazado_891797" data-name="Trazado 891797" d="M113.367,8.253a.977.977,0,0,0,.6-.21,19.552,19.552,0,0,0,2.976-3.149,2.417,2.417,0,0,1,4.166.307c1.329,2.227,3.742,3.555,5.755,2.507a1.213,1.213,0,0,0,1-1.111,1.331,1.331,0,0,1,.664-1.062,4.485,4.485,0,0,0,.747-.745,3.351,3.351,0,0,1,.435-.445A14.3,14.3,0,0,0,125.791.953a1.743,1.743,0,0,1-2.448-.87c-3.568-.576-7.075,1.95-9.977,8.17" transform="translate(-39.825 -0.001)" fill="#a0c9f6"/>
                      <path id="Trazado_891798" data-name="Trazado 891798" d="M115.505,22.741c.732.361,4.038-3.388,6.508-5.49.555-.472,1.312.016,1.336.869a6.9,6.9,0,0,0,3.582,6.325.979.979,0,0,0,1.272-.111c2.1-1.965,4.443-3.233,6.485-5.15q-1.005-2.781-2.118-5.144c-1.377,1.516-2.73,3.472-4.237,4.463-.521.343-1.14-.052-1.256-.787a6.432,6.432,0,0,0-.379-1.4c-1.059-2.643-3.707-3.5-5.718-2.026-5.728,4.2-8.713-.719-10.334-1.367a.73.73,0,0,0-.092-.026,60.37,60.37,0,0,0-2.208,7.212c1.3-.643,5.212,1.629,7.159,2.627" transform="translate(-38.061 -2.169)" fill="#a0c9f6"/>
                      <path id="Trazado_891799" data-name="Trazado 891799" d="M124.848,34.4c-.246.369-.705.278-.853-.168a7.3,7.3,0,0,0-3.949-4.256c-2.547-1.757-4.394,1.046-6.063,3.241-.283.371-.791.215-.877-.293a1.146,1.146,0,0,0-.344-.7,7.133,7.133,0,0,0-3.436-2.324.554.554,0,0,0-.1-.013,7.125,7.125,0,0,0-3.865,1.067q-.534,3.338-.954,7.145c1.414-1.583,2.886-3.512,4.615-4.238.31-.13.632.159.658.576a6.671,6.671,0,0,0,2.789,5.344c2.162,2.078,5.265-4.547,7.577-6.463.278-.231.651-.056.754.348a8.907,8.907,0,0,0,5.471,6.232.423.423,0,0,0,.434-.087c2.248-1.974,3.58-5.65,6.377-6.761a.442.442,0,0,1,.53.21,21.573,21.573,0,0,0,3.8,4.554c-.187-1.051-.382-2.087-.589-3.1-.163.064-.264-.015-.42-.312-3.216-7.407-8.01-5.311-11.551-.008" transform="translate(-36.675 -4.947)" fill="#a0c9f6"/>
                      <path id="Trazado_891800" data-name="Trazado 891800" d="M130.513,46.012a4.138,4.138,0,0,0-1.373-1.222c-2.537-2.821-4.508-.794-6.275,1.8-.941,1.378-2.635,1.059-3.271-.581-.494-1.275-1.575-2.011-3.609-3.558-2.173-.615-3.38,2.03-4.653,4.359-.51.934-1.622.563-1.774-.56A2.543,2.543,0,0,0,109,44.9c-1.059-.78-1.9-2.382-3.259-1.832-.863,1.163-1.569,1.483-2.2,1.428-.007.073-.014.143-.02.217q-.258,3.025-.372,6.028c1.733-.428,3.172.977,4.248,1.749.983.58,1.751,2.714,2.98,1.822a19.545,19.545,0,0,0,2.976-3.148,2.417,2.417,0,0,1,4.167.306c1.328,2.227,3.742,3.555,5.755,2.507a1.215,1.215,0,0,0,1-1.111,1.329,1.329,0,0,1,.663-1.062,4.486,4.486,0,0,0,.747-.745,2.607,2.607,0,0,1,4.468.319c1.082,1.722,2.507,2.892,3.87,1.7a9.639,9.639,0,0,1,3.524-2.7c.237-.193.5-.432.769-.684q-.293-2.826-.679-5.5a35.159,35.159,0,0,0-3.109,2.457,2.647,2.647,0,0,1-4.023-.648" transform="translate(-36.238 -7.121)" fill="#a0c9f6"/>
                      <path id="Trazado_891801" data-name="Trazado 891801" d="M103.258,69.1a23.182,23.182,0,0,1,3.138-2.092c1.232-.759,5.25,1.582,7.231,2.6.732.362,4.038-3.388,6.508-5.49.555-.473,1.312.015,1.337.869a6.894,6.894,0,0,0,3.582,6.324.98.98,0,0,0,1.273-.111c2.457-2.3,5.253-3.637,7.5-6.191a.763.763,0,0,1,1.319.3,8.436,8.436,0,0,0,2.2,3.062,5.878,5.878,0,0,0,1.53.841.814.814,0,0,0,.328.3,3.131,3.131,0,0,0,.333.115q-.226-3.528-.47-7.045c-1.274.067-2.43-.583-2.949-2.858-.033-.148-.235-.082-.336-.165-3.558-2.9-6.091,3.684-9.327,5.812-.522.342-1.14-.052-1.257-.788a6.39,6.39,0,0,0-.38-1.394c-1.059-2.644-3.706-3.5-5.718-2.026-5.729,4.2-8.714-.719-10.334-1.367a.789.789,0,0,0-.16-.043,6.012,6.012,0,0,0-3.522.73c-.034-.256-.913.423-2.086,1.076.033,2.523.123,5.037.257,7.545" transform="translate(-36.183 -9.891)" fill="#a0c9f6"/>
                      <path id="Trazado_891802" data-name="Trazado 891802" d="M131.377,93.069A4.138,4.138,0,0,0,130,91.847c-2.537-2.821-4.508-.794-6.275,1.8-.941,1.378-2.635,1.059-3.271-.581-.494-1.274-1.575-2.011-3.609-3.558-2.173-.615-3.38,2.03-4.653,4.359-.51.934-1.622.563-1.774-.56a2.543,2.543,0,0,0-.554-1.349c-1.059-.78-1.9-2.382-3.259-1.832a4.838,4.838,0,0,1-1,1.041q.385,3.539.8,7.073a19.906,19.906,0,0,1,1.849,1.31c.983.579,1.751,2.714,2.98,1.821a19.546,19.546,0,0,0,2.976-3.148,2.417,2.417,0,0,1,4.167.306c1.328,2.227,3.742,3.555,5.755,2.508a1.217,1.217,0,0,0,1-1.112,1.329,1.329,0,0,1,.663-1.062,4.485,4.485,0,0,0,.747-.745,2.607,2.607,0,0,1,4.468.319c1.082,1.722,2.507,2.892,3.87,1.7a9.639,9.639,0,0,1,3.524-2.7c.345-.28.732-.643,1.142-1.033V90.627a24.443,24.443,0,0,0-4.16,3.09,2.647,2.647,0,0,1-4.023-.648" transform="translate(-37.101 -15.033)" fill="#a0c9f6"/>
                      <path id="Trazado_891803" data-name="Trazado 891803" d="M133.541,140.127a4.137,4.137,0,0,0-1.373-1.222c-2.537-2.821-4.508-.794-6.275,1.8-.941,1.378-2.635,1.059-3.271-.581-.494-1.275-1.575-2.011-3.609-3.558-2.173-.616-3.38,2.03-4.653,4.359-.51.934-1.622.563-1.774-.56a2.543,2.543,0,0,0-.554-1.349c-.088-.065-.173-.136-.258-.21q.343,4.859.646,9.733a.89.89,0,0,0,.992-.11,19.546,19.546,0,0,0,2.976-3.148,2.417,2.417,0,0,1,4.167.306c1.328,2.227,3.742,3.555,5.755,2.507a1.215,1.215,0,0,0,1-1.111,1.329,1.329,0,0,1,.663-1.062,4.486,4.486,0,0,0,.747-.745,2.607,2.607,0,0,1,4.468.319c1.082,1.722,2.507,2.892,3.87,1.7a9.646,9.646,0,0,1,3.524-2.7c.345-.28.732-.643,1.142-1.033v-5.779a24.442,24.442,0,0,0-4.16,3.09,2.647,2.647,0,0,1-4.023-.648" transform="translate(-39.265 -22.945)" fill="#a0c9f6"/>
                      <path id="Trazado_891804" data-name="Trazado 891804" d="M134.8,187.184a4.126,4.126,0,0,0-1.373-1.221c-2.537-2.822-4.508-.794-6.275,1.794-.941,1.378-2.635,1.059-3.271-.581-.494-1.274-1.575-2.011-3.609-3.558-2.173-.615-3.38,2.03-4.653,4.359a1.116,1.116,0,0,1-.266.324q.134,3.164.259,6.333a24.073,24.073,0,0,0,2.035-2.3,2.417,2.417,0,0,1,4.167.306c1.328,2.227,3.742,3.555,5.755,2.508a1.217,1.217,0,0,0,1-1.112,1.329,1.329,0,0,1,.663-1.062,4.483,4.483,0,0,0,.747-.745,2.607,2.607,0,0,1,4.468.319c1.082,1.722,2.507,2.892,3.87,1.7a9.639,9.639,0,0,1,3.524-2.7c.345-.28.732-.643,1.142-1.033v-5.779a24.4,24.4,0,0,0-4.16,3.09,2.648,2.648,0,0,1-4.023-.649" transform="translate(-40.521 -30.856)" fill="#a0c9f6"/>
                      <path id="Trazado_891805" data-name="Trazado 891805" d="M122.466,239.7c1.329,2.228,3.742,3.556,5.755,2.508a1.215,1.215,0,0,0,1-1.112,1.33,1.33,0,0,1,.663-1.062,4.513,4.513,0,0,0,.747-.745,2.606,2.606,0,0,1,4.468.319c1.082,1.722,2.507,2.892,3.87,1.7a9.645,9.645,0,0,1,3.524-2.7c.346-.28.732-.643,1.142-1.032V231.8a24.356,24.356,0,0,0-4.16,3.09,2.648,2.648,0,0,1-4.024-.649,4.126,4.126,0,0,0-1.373-1.221c-2.536-2.822-4.508-.794-6.275,1.794-.941,1.378-2.635,1.059-3.271-.581-.494-1.275-1.575-2.011-3.609-3.559-1.639-.463-2.728.926-3.709,2.635q.085,3.6.158,7.2c.315-.364.625-.735.927-1.117a2.417,2.417,0,0,1,4.166.306" transform="translate(-41.177 -38.768)" fill="#a0c9f6"/>
                      <path id="Trazado_891806" data-name="Trazado 891806" d="M125.289,252.348c.555-.473,1.312.016,1.337.869a6.9,6.9,0,0,0,3.582,6.325.981.981,0,0,0,1.273-.111c2.457-2.3,5.253-3.638,7.5-6.192a.763.763,0,0,1,1.319.3,8.433,8.433,0,0,0,2.2,3.061,5.854,5.854,0,0,0,1.53.841.813.813,0,0,0,.328.3,3.214,3.214,0,0,0,1.918.2.8.8,0,0,0,.2-.067c1.423-.69,2.61-1.983,4.056-2.631a1.018,1.018,0,0,1,.367-.12q-.17-3.468-.328-6.939a9.868,9.868,0,0,0-1.347.529c-.093-.7-6.507,5.6-7.955-.759-.033-.147-.235-.082-.336-.165-3.558-2.9-6.091,3.684-9.327,5.812-.522.343-1.14-.052-1.257-.788a6.4,6.4,0,0,0-.379-1.394c-1.059-2.643-3.706-3.5-5.718-2.026-2.795,2.05-4.935,1.926-6.584,1.189q.059,3.367.11,6.734c.366.194.706.374,1,.524.732.361,4.038-3.389,6.509-5.49" transform="translate(-41.337 -41.538)" fill="#a0c9f6"/>
                      <path id="Trazado_891807" data-name="Trazado 891807" d="M122.8,286.754c1.329,2.228,3.742,3.555,5.755,2.508a1.215,1.215,0,0,0,1-1.112,1.331,1.331,0,0,1,.663-1.062,4.514,4.514,0,0,0,.747-.745,2.606,2.606,0,0,1,4.468.319c1.082,1.722,2.507,2.892,3.87,1.7a9.644,9.644,0,0,1,3.524-2.7c.346-.28.732-.642,1.142-1.033v-5.779a24.4,24.4,0,0,0-4.16,3.09,2.648,2.648,0,0,1-4.024-.649,4.127,4.127,0,0,0-1.373-1.221c-2.536-2.822-4.508-.794-6.275,1.794-.941,1.378-2.635,1.059-3.271-.581-.494-1.275-1.575-2.011-3.609-3.559-1.307-.37-2.264.443-3.1,1.654q.036,3.781.064,7.563c.136-.167.274-.333.409-.5a2.417,2.417,0,0,1,4.166.306" transform="translate(-41.508 -46.68)" fill="#a0c9f6"/>
                      <path id="Trazado_891808" data-name="Trazado 891808" d="M125.521,299.405c.555-.473,1.312.016,1.337.869a6.9,6.9,0,0,0,3.582,6.325.981.981,0,0,0,1.273-.112c2.457-2.3,5.253-3.637,7.5-6.191a.763.763,0,0,1,1.319.3,8.433,8.433,0,0,0,2.2,3.061,5.854,5.854,0,0,0,1.53.841.814.814,0,0,0,.328.3,3.22,3.22,0,0,0,1.918.2.8.8,0,0,0,.2-.067c1.423-.69,2.61-1.983,4.056-2.631.54-.333,1.613-.07,2.817.415q-.295-3.827-.565-7.665l-.038-.01a6.019,6.019,0,0,0-3.522.73c-.093-.7-6.507,5.6-7.955-.759-.033-.147-.235-.082-.336-.165-3.558-2.9-6.091,3.684-9.327,5.812-.522.343-1.14-.052-1.257-.788a6.39,6.39,0,0,0-.38-1.394c-1.059-2.643-3.706-3.5-5.718-2.026-2.559,1.877-4.57,1.931-6.156,1.362q.017,3.372.029,6.744c.233.123.454.24.651.341.732.361,4.038-3.389,6.509-5.49" transform="translate(-41.569 -49.45)" fill="#a0c9f6"/>
                      <path id="Trazado_891809" data-name="Trazado 891809" d="M122.887,333.811c1.329,2.228,3.742,3.556,5.755,2.508a1.215,1.215,0,0,0,1-1.112,1.33,1.33,0,0,1,.663-1.062,4.513,4.513,0,0,0,.747-.745,2.606,2.606,0,0,1,4.468.319c1.082,1.722,2.507,2.892,3.87,1.7a9.644,9.644,0,0,1,3.524-2.7c.346-.28.732-.643,1.142-1.032v-5.78A24.354,24.354,0,0,0,139.9,329a2.648,2.648,0,0,1-4.024-.649,4.126,4.126,0,0,0-1.373-1.221c-2.536-2.822-4.508-.794-6.275,1.794-.941,1.378-2.635,1.059-3.271-.581-.494-1.275-1.575-2.011-3.609-3.559-1.22-.344-2.134.336-2.928,1.412q0,3.841,0,7.68c.1-.126.206-.25.307-.377a2.417,2.417,0,0,1,4.166.306" transform="translate(-41.598 -54.592)" fill="#a0c9f6"/>
                      <path id="Trazado_891810" data-name="Trazado 891810" d="M125.532,346.463c.555-.473,1.312.016,1.337.869a6.9,6.9,0,0,0,3.582,6.325.98.98,0,0,0,1.273-.111c2.457-2.3,5.253-3.637,7.5-6.192a.763.763,0,0,1,1.319.3,8.432,8.432,0,0,0,2.2,3.061,5.855,5.855,0,0,0,1.53.841.813.813,0,0,0,.328.3,3.214,3.214,0,0,0,1.918.2.8.8,0,0,0,.2-.067c1.423-.69,2.61-1.983,4.056-2.631,1.155-.712,4.762,1.3,6.84,2.394-.02-.163-.043-.337-.062-.495q-.4-3.3-.771-6.609c-1.669-.785-2.824-2.181-3.635-2.506a.775.775,0,0,0-.159-.044,6.019,6.019,0,0,0-3.522.73c-.093-.7-6.507,5.6-7.955-.76-.033-.147-.235-.082-.336-.165-3.558-2.9-6.091,3.684-9.327,5.812-.522.343-1.14-.052-1.257-.788a6.4,6.4,0,0,0-.38-1.394c-1.059-2.643-3.706-3.5-5.718-2.026-2.538,1.861-4.536,1.931-6.117,1.376q-.008,3.364-.018,6.726c.236.125.461.243.66.345.732.361,4.038-3.389,6.508-5.49" transform="translate(-41.58 -57.362)" fill="#a0c9f6"/>
                      <path id="Trazado_891811" data-name="Trazado 891811" d="M147.443,415.352c1.645-1.661,3.322-4.177,5.353-5.029.309-.13.632.158.657.575a6.672,6.672,0,0,0,2.79,5.345c1.818,1.747,4.3-2.659,6.42-5.245q-.108-2.562-.265-5.105c-1.84-.129-3.3,2.021-4.637,3.783-.283.371-.79.214-.876-.293a1.149,1.149,0,0,0-.344-.7,7.127,7.127,0,0,0-3.436-2.324.489.489,0,0,0-.1-.013c-2.934-.09-5.225,1.807-7.448,3.946-.228.22-.848,0-1.638-.953-.092-.433-.512-.644-.808-.341-.548.561-.736,1.732-1.284,2.053-.309.22-.418.217-.631-.188-3.216-7.407-8.01-5.312-11.551-.008-.246.369-.706.278-.853-.169a7.3,7.3,0,0,0-3.949-4.256c-2.547-1.756-4.394,1.047-6.063,3.242a.448.448,0,0,1-.708.052q-.013,3.454-.023,6.9c2.084.212,4.745-5.157,6.789-6.851.278-.23.651-.055.754.349a8.909,8.909,0,0,0,5.471,6.232.424.424,0,0,0,.434-.087c2.248-1.973,3.58-5.649,6.377-6.761a.442.442,0,0,1,.53.21c1.074,1.658,2.93,4.178,4.8,5.282a.416.416,0,0,0,.147.053c0,.006,0,.022,0,.024,1.192,1.128,3.366,1.5,4.1.271" transform="translate(-41.467 -68.241)" fill="#a0c9f6"/>
                      <path id="Trazado_891812" data-name="Trazado 891812" d="M122.82,380.868c1.329,2.227,3.742,3.555,5.755,2.508a1.216,1.216,0,0,0,1-1.112,1.33,1.33,0,0,1,.663-1.062,4.512,4.512,0,0,0,.747-.744,2.606,2.606,0,0,1,4.468.319c1.082,1.722,2.507,2.892,3.87,1.7a9.644,9.644,0,0,1,3.524-2.7c.346-.28.732-.643,1.142-1.033v-5.779a24.354,24.354,0,0,0-4.16,3.09,2.648,2.648,0,0,1-4.024-.649,4.138,4.138,0,0,0-1.373-1.222c-2.536-2.821-4.508-.793-6.275,1.8-.941,1.378-2.635,1.059-3.271-.581-.494-1.274-1.575-2.011-3.609-3.558-1.269-.359-2.208.4-3.023,1.547q-.016,3.85-.032,7.7c.143-.176.289-.349.43-.528a2.417,2.417,0,0,1,4.166.306" transform="translate(-41.531 -62.503)" fill="#a0c9f6"/>
                      <path id="Trazado_891813" data-name="Trazado 891813" d="M125.449,393.52c.555-.473,1.312.016,1.337.869a6.9,6.9,0,0,0,3.582,6.325.981.981,0,0,0,1.273-.112c2.457-2.3,5.253-3.637,7.5-6.191a.763.763,0,0,1,1.319.3,8.433,8.433,0,0,0,2.2,3.061,5.855,5.855,0,0,0,1.53.841.813.813,0,0,0,.328.3,3.214,3.214,0,0,0,1.918.2.794.794,0,0,0,.2-.067c1.423-.69,2.61-1.983,4.056-2.631,1.233-.76,5.25,1.582,7.231,2.6.5.245,2.18-1.4,3.982-3.146q-.18-2.12-.382-4.194c-4.523,2.011-7.026-1.9-8.459-2.474a.829.829,0,0,0-.159-.043,6.012,6.012,0,0,0-3.522.73c-.093-.7-6.507,5.6-7.955-.759-.033-.148-.235-.082-.336-.165-3.558-2.9-6.091,3.684-9.327,5.812-.522.343-1.14-.052-1.257-.788a6.389,6.389,0,0,0-.379-1.394c-1.059-2.643-3.706-3.5-5.718-2.026-2.616,1.918-4.658,1.932-6.261,1.323q-.015,3.35-.028,6.7c.3.156.57.3.813.426.732.361,4.038-3.389,6.509-5.49" transform="translate(-41.497 -65.273)" fill="#a0c9f6"/>
                      <path id="Trazado_891814" data-name="Trazado 891814" d="M122.743,427.926c1.329,2.228,3.742,3.556,5.755,2.508a1.215,1.215,0,0,0,1-1.112,1.33,1.33,0,0,1,.663-1.062,4.514,4.514,0,0,0,.747-.745,2.606,2.606,0,0,1,4.468.319c1.082,1.722,2.507,2.892,3.87,1.7a9.644,9.644,0,0,1,3.524-2.7c.346-.28.732-.643,1.142-1.032v-5.78a24.4,24.4,0,0,0-4.16,3.09,2.648,2.648,0,0,1-4.024-.649,4.127,4.127,0,0,0-1.373-1.221c-2.536-2.822-4.508-.794-6.275,1.794-.941,1.378-2.635,1.06-3.271-.581-.494-1.275-1.575-2.011-3.609-3.559-1.35-.382-2.326.494-3.177,1.769q-.012,3.827-.019,7.647.289-.347.572-.7a2.417,2.417,0,0,1,4.166.306" transform="translate(-41.454 -70.415)" fill="#a0c9f6"/>
                      <path id="Trazado_891815" data-name="Trazado 891815" d="M130.463,441.368a6.426,6.426,0,0,0-.38-1.394c-1.059-2.644-3.707-3.5-5.718-2.026-2.68,1.965-4.76,1.934-6.38,1.278q0,1.8,0,3.6c1.912-.136,3.823-.258,5.735-.384.577-.55,1.149-1.081,1.683-1.535.555-.472,1.312.016,1.336.869,0,.156.014.309.025.461q1.987-.128,3.977-.253a1.24,1.24,0,0,1-.273-.614" transform="translate(-41.446 -73.511)" fill="#a0c9f6"/>
                    </g>
                  </g>
                </g>
              </g>
            </g>
          </g>
        </g>
        <g id="Grupo_1100485" data-name="Grupo 1100485" transform="matrix(-0.927, 0.375, -0.375, -0.927, 607.845, 251.856)" opacity="0.12" style="mix-blend-mode: multiply;isolation: isolate">
          <g id="Grupo_1100482" data-name="Grupo 1100482" transform="translate(0 0)">
            <g id="Grupo_1100481" data-name="Grupo 1100481" clip-path="url(#clip-path-6)">
              <path id="Trazado_891816" data-name="Trazado 891816" d="M622.3,195.126c28.378-35.811,33.38-90.225,17.083-127.47S589.045,9.306,552.5,3.783,476.9,6.75,438.91,18.988C302.6,62.916,170,157.908,71.838,290.237c-25,33.7-48.165,70.554-60.791,111.345s-13.434,86.275,4.66,117.634c23.351,40.486,70.678,48.776,120.056,57.135-16.233,9.92-25,34.594-21.7,53.725,7.061,40.875,47.451,45.76,81.79,41.292,114.449-14.9,225.79-92.852,323.515-183.3,51.344-47.524,100.924-99.832,139.257-162.283,25.192-41.038,47.786-99.773,19.3-133.358-13.142-15.484-38.094-17.045-55.627,2.7" transform="translate(53.229 89.713)" fill="#adecd1"/>
            </g>
          </g>
          <g id="Grupo_1100484" data-name="Grupo 1100484" transform="translate(53.229 89.714)">
            <g id="Grupo_1100483" data-name="Grupo 1100483" transform="translate(0 0)" clip-path="url(#clip-path-7)">
              <path id="Trazado_891817" data-name="Trazado 891817" d="M1.436,365.357s347.676,48.7,317.831-364.113" transform="translate(-20.871 35.821)" fill="#adecd1"/>
              <path id="Trazado_891818" data-name="Trazado 891818" d="M2.229,567.357S308.659,663.092,486.687,1.9" transform="translate(-34.455 -3.354)" fill="#adecd1"/>
              <path id="Trazado_891819" data-name="Trazado 891819" d="M3.144,800.081S206,807.148,352.575,482.192,506.3,1.973,506.3,1.973" transform="translate(67.246 -71.033)" fill="#adecd1"/>
              <path id="Trazado_891820" data-name="Trazado 891820" d="M298.331,1.163S265.677,283.308,1.944,494.773" transform="translate(374.1 128.712)" fill="#adecd1"/>
            </g>
          </g>
        </g>
        <g id="Grupo_1100490" data-name="Grupo 1100490" transform="matrix(-0.927, 0.375, -0.375, -0.927, 1154.455, 820.033)" opacity="0.46" style="mix-blend-mode: soft-light;isolation: isolate">
          <g id="Grupo_1100487" data-name="Grupo 1100487" transform="translate(0 0)">
            <g id="Grupo_1100486" data-name="Grupo 1100486" clip-path="url(#clip-path-8)">
              <path id="Trazado_891822" data-name="Trazado 891822" d="M744.637,233.487c33.957-42.851,39.943-107.962,20.441-152.53S704.847,11.135,661.119,4.527,570.656,8.077,525.2,22.721C362.085,75.285,203.419,188.951,85.961,347.3,56.051,387.621,28.327,431.72,13.219,480.53S-2.856,583.766,18.8,621.29c27.942,48.445,84.573,58.365,143.658,68.368-19.424,11.87-29.917,41.395-25.963,64.287,8.45,48.911,56.78,54.756,97.869,49.41,136.949-17.83,270.178-111.106,387.116-219.338,61.438-56.867,120.765-119.458,166.634-194.187,30.145-49.106,57.18-119.387,23.092-159.576-15.725-18.528-45.583-20.4-66.563,3.233" transform="translate(63.693 107.35)" fill="#a0c9f6"/>
            </g>
          </g>
          <g id="Grupo_1100489" data-name="Grupo 1100489" transform="translate(63.693 107.351)">
            <g id="Grupo_1100488" data-name="Grupo 1100488" transform="translate(0 0)" clip-path="url(#clip-path-9)">
              <path id="Trazado_891823" data-name="Trazado 891823" d="M1.718,437.184S417.744,495.453,382.032,1.489" transform="translate(-24.974 42.863)" fill="#a0c9f6"/>
              <path id="Trazado_891824" data-name="Trazado 891824" d="M2.668,678.9S369.339,793.451,582.366,2.27" transform="translate(-41.228 -4.013)" fill="#a0c9f6"/>
              <path id="Trazado_891825" data-name="Trazado 891825" d="M3.762,957.371S246.5,965.828,421.889,576.987,605.83,2.361,605.83,2.361" transform="translate(80.466 -84.998)" fill="#a0c9f6"/>
              <path id="Trazado_891826" data-name="Trazado 891826" d="M356.981,1.391S317.907,339,2.326,592.042" transform="translate(447.645 154.016)" fill="#a0c9f6"/>
            </g>
          </g>
        </g>
      </g>
    </g>
    <g id="Grupo_1100167" data-name="Grupo 1100167" transform="translate(1105 11485.16)">
      <g id="Grupo_1100166" data-name="Grupo 1100166" clip-path="url(#clip-path-10)">
        <path id="Trazado_874976" data-name="Trazado 874976" d="M0,36.1H36a18.035,18.035,0,0,0-36,0" transform="translate(0 -2.308)" fill="#ff8e6b"/>
        <path id="Trazado_874977" data-name="Trazado 874977" d="M0,16.894H36a18.035,18.035,0,0,0-36,0" transform="translate(0 0)" fill="#ff8e6b"/>
      </g>
    </g>
    <g id="Grupo_1100646" data-name="Grupo 1100646" transform="translate(1130.952 11364)">
      <g id="Grupo_1100645" data-name="Grupo 1100645" clip-path="url(#clip-path-11)">
        <rect id="Rectángulo_401687" data-name="Rectángulo 401687" width="79.049" height="81" fill="#4e8e69"/>
        <g id="Grupo_1100644" data-name="Grupo 1100644" transform="translate(2)">
          <g id="Grupo_1100643" data-name="Grupo 1100643" clip-path="url(#clip-path-11)" style="mix-blend-mode: multiply;isolation: isolate">
            <g id="Grupo_1100642" data-name="Grupo 1100642" opacity="0.65" style="mix-blend-mode: soft-light;isolation: isolate">
              <g id="Grupo_1100641" data-name="Grupo 1100641">
                <g id="Grupo_1100640" data-name="Grupo 1100640" clip-path="url(#clip-path-11)">
                  <path id="Trazado_892527" data-name="Trazado 892527" d="M144.508,157.361c-2.219-.008-4.488-.235-6.583.558-.3-.216.034-.39-.04-.568h-9.361c-1.852,2.708-3.988,5.241-6.1,7.771h8.765c-.044-.067-.087-.136-.128-.211,1.2.593,3.994-4.666,5.1-5.638.715-.925,1.059-.919,1.9-.109q3.176,2.981,6.355,5.959h.09Z" transform="translate(-65.46 -84.122)" fill="#4e8e69"/>
                  <path id="Trazado_892528" data-name="Trazado 892528" d="M65.332,162.339c-1.5-1.432-3.466-2.554-4.481-4.385-.1-.362-.687-.153-.785-.576H58.193q4.049,3.888,8.1,7.771h2.2c-1.044-.946-2.094-1.887-3.158-2.811" transform="translate(-31.116 -84.151)" fill="#4e8e69"/>
                  <path id="Trazado_892529" data-name="Trazado 892529" d="M108.325,157.379H101.46c-1.016.788-4.96,7.625-5.776,6.317-.643-.822-2.48-1.385-1.28-2.573a33.743,33.743,0,0,0,2.9-3.744H92.723c-1.512,2.688-1.872,1.667-3.744,0h-.832c2.517,2.68,5.16,5.236,7.825,7.772h6.147c2.089-2.573,4.105-5.2,6.206-7.772" transform="translate(-47.132 -84.151)" fill="#4e8e69"/>
                  <path id="Trazado_892530" data-name="Trazado 892530" d="M150.292,168.984c-.934-1.239-4.106.736-5.976,2.163h8.3q-1.163-1.081-2.327-2.163" transform="translate(-77.166 -90.147)" fill="#4e8e69"/>
                  <path id="Trazado_892531" data-name="Trazado 892531" d="M169.4,0h-.422l.422.428Z" transform="translate(-90.353)" fill="#4e8e69"/>
                  <path id="Trazado_892532" data-name="Trazado 892532" d="M84.395,11.157c-1.438,1.791-2.054,4.728-4.316,5.592-1.77.678-2.284,3.011-3.56,4.312-.861,1.111-1.292,2.655-2.909,3.059a103.758,103.758,0,0,1-7.375,8.8c-2.116,2.063-5.355-4.492-6.45-.693.313.589-.022,1-.423,1.339.193.379.435.228.659.183,2.829-.758,3.86,3.62,6.285,4.277-.1.63.384.955.769,1.256,1.238.967,2.007,2.379,3.238,3.346.494.259-.329.688.173.82.665.164,1.052.777,1.686,1.034,9.385-10.254,18.084-21.273,27.28-31.749,1.6-1.271,4.279-6.68,6.458-5.075.768.155.146,3.7-.032,4.533-1.775,3.718-5.211,6.429-7.74,9.65-3.007,3.433-5.915,6.952-8.878,10.424-4.17,4.7-8.084,9.627-12.3,14.293-1.464,1.015-2.7-1.9-4.271-1.742-.577.952,2.239,3.188,2.9,4.047,1.222.907,1.644,2.465,2.96,3.272,1.116.493,1.032,1.9,1.932,2.584a1.725,1.725,0,0,1,.73.817c2.495,1.636,4.036,4.382,6.208,6.427a31.539,31.539,0,0,0,4.38,3.788c.886-1.08,7.365,6.446,8.206,7.422h10.784V72.6c-3.668-4.678-8.1-8.763-11.879-13.382-1.139.675-1.9,1.744-3.041,2.274.091.482.541.14.673.45-.372.654-1.074-.2-1.514.34.674-1.567,1.983-2.584,2.989-3.9.6-.682.662-.683,1.294-.047,3.781,4.18,7.71,8.272,11.478,12.463V59.284c-1.507-1.676-2.986-3.374-4.417-5.114-.959-1.094-4.737,1.675-6.1,2.141.36-1.957,2.679-3.166,3.762-4.829,1.013-.761,4.725-6.178,6.755-7.928V31.379C102.9,40.787,95.105,50.284,86.917,59.4c-1.525-1.131-1.5-1.108-.308-2.4,5.587-6.187,10.908-12.61,16.4-18.882,2.575-3.052,5.185-6.077,7.779-9.114v-9.32c-.171.2-.348.4-.526.607q-5.6,6.4-11.166,12.834C93.683,39.461,88.283,45.8,82.759,52.041c-1.059,1.186-1.054,1.178-2.416.322-.5-.525-1.541-.382-1.65-1.242,9.063-9.783,17.376-20.272,26.314-30.192,1.48-1.187,3.8-5.337,5.783-6.287V10.9c-3.614-3.567-7.34-7.041-10.63-10.9h-7.6c-2.01,3.254-3.941,7.436-4.741,8.386-.689,1.569-2.709,1.262-3.42,2.772M99.426,1.028c1.282.3,1.339.306,1.132,1.565A18.584,18.584,0,0,1,99.665,6.5c-3.017,5.181-7.618,9.388-11.354,14.074-5.553,6.382-10.963,12.886-16.427,19.344-1.52,2.351-3.63-2.553-5.569-1.907a.884.884,0,0,1,.221-1.094c3.153-3.443,6.148-7.023,9.183-10.57C83.269,18.088,89.99,9.034,97.712.959c.541-.542,1.095,0,1.714.069" transform="translate(-31.74)" fill="#4e8e69"/>
                  <path id="Trazado_892533" data-name="Trazado 892533" d="M116.441,0h-4.394l.658.694c1.085,1.515,2.49-.209,3.736-.694" transform="translate(-59.912)" fill="#4e8e69"/>
                  <path id="Trazado_892534" data-name="Trazado 892534" d="M159.378,107.616q2.3,2.52,4.633,5.013v-7.576c-2.464.321-6.505.661-4.633,2.562" transform="translate(-84.963 -56.173)" fill="#4e8e69"/>
                  <path id="Trazado_892535" data-name="Trazado 892535" d="M91.87,7.95c1.1,1.822,3.181-1.014,4.517-1.611.858-.606.868-.845.131-1.618Q94.208,2.385,91.943,0H84.4c2.474,2.67,4.954,5.334,7.469,7.95" transform="translate(-45.129)" fill="#4e8e69"/>
                  <path id="Trazado_892536" data-name="Trazado 892536" d="M75.379,12.761c.776-.648.741-.683.058-1.453C71.872,7.568,68.364,3.769,64.826,0H55.6c5.049,5.1,9.854,10.56,14.8,15.794.637,1.356,4-2.551,4.986-3.033" transform="translate(-29.727)" fill="#4e8e69"/>
                  <path id="Trazado_892537" data-name="Trazado 892537" d="M68.848,21.44c.949-.815-.581-1.631-1.016-2.3-4.61-4.7-8.861-9.88-13.663-14.326v10.4q4.708,4.906,9.413,9.815c1.344,1.377,3.964-2.914,5.266-3.587" transform="translate(-28.965 -2.573)" fill="#4e8e69"/>
                  <path id="Trazado_892538" data-name="Trazado 892538" d="M60.844,84.743c-1.788-.556-3.522,2.06-4.505,3.3a1.705,1.705,0,0,1-2.255.691c.167-.369.721-.008.85-.492-1.714-1-3.406-1.656-4.593-3.407.691-.058.282-.724.615-1.009.042-.035-.3-.309-.544-.281-.238.183.136.6-.393.713-.5-.6.344-2.438-1.555-1.834.617-1.578-2.242-2.351-2.051-3.587-1.569-.879-2.522-2.441-3.927-3.481.162-.359.739-.4.579-.938-1.175.11-1.745-.693-2.291-1.315.032-.619.524-.2.644-.591-.352-.113-.622-.394-1.027-.416-1.133-.133-1.059-1.794-2.184-2.071-.738-.255-.763-1.067-1.388-1.512-2.153-1.666-3.735-4.1-5.687-5.965-1.515-1.6-2.979-3.248-4.566-4.791-.543-.487-.6-1.337-1.36-1.591V53.882c1.026-.686,1.545-2.171,2.4-3.131-1.111.5-1.461,1.8-2.4,2.507v-.467c-6.7.105-1.5-3.359-5.5-4.446-1.524-.561-3.051-1.116-4.572-1.687-1.171-.44-1.29-.57-1.272-1.8-.038-1.994-4.832-3.285-6.376-4.592-1.263-.427-1.044-1.733-1.966-2.4-1.763-1.395-3.5-2.822-5.31-4.159A2.325,2.325,0,0,1,0,33.559v6.958c8.243,7.569,16.851,14.889,25.205,22.259v-3.07c9.573,10.4,18.685,21.25,28.5,31.411,4.033.191,1.636-.543,3.775-1.379a.963.963,0,0,0,.594-.543c.19-1.232,2.191-1.04,1.889-2.333.358,0,.646.174.914-.168-.854-.827.544-1.33-.031-1.951" transform="translate(0 -17.944)" fill="#4e8e69"/>
                  <path id="Trazado_892539" data-name="Trazado 892539" d="M54.17,42.6c5.682,5.869,2.5,4.744,9.618-1.921-3.119-3.46-6.356-6.71-9.618-9.936Z" transform="translate(-28.965 -16.438)" fill="#4e8e69"/>
                  <path id="Trazado_892540" data-name="Trazado 892540" d="M40.807,105.762h4.16a5.432,5.432,0,0,0-2-1.862c.215-.416.658-.849-.211-.95C36.7,96.84,31.33,89.823,25.206,83.712v.157Q13.54,73.229,1.844,62.622L0,60.949v8.685q4.392,4.008,8.792,8.006c3.526,3.226,7.022,6.483,10.538,9.72,1.425,1.778,4.352-2.164,5.876-2.866v3.379c5.191,5.963,10.661,11.726,15.6,17.889" transform="translate(0 -32.59)" fill="#4e8e69"/>
                  <path id="Trazado_892541" data-name="Trazado 892541" d="M36.083,142.62h5.409a89.821,89.821,0,0,0-8.321-9.569V129.88c-1.566,1.51-1.84,4.527-4.392,4.684a2.112,2.112,0,0,0-1.609,1.148c-1.613,1.952-2.413,5.136-4.7,6.286a2.119,2.119,0,0,0-1.4.955c-1.991,2.549-3.616,5.39-6.172,7.494h4.724c4.436-5.051,9.049-9.961,13.55-14.951v3.795l2.912,3.328" transform="translate(-7.965 -69.447)" fill="#4e8e69"/>
                  <path id="Trazado_892542" data-name="Trazado 892542" d="M98.488,128.11c.088.286.346.147.5,0,.492-.547-.57-.942-1.046-.638.1.334.455.331.548.634" transform="translate(-52.369 -68.105)" fill="#4e8e69"/>
                  <path id="Trazado_892543" data-name="Trazado 892543" d="M99.766,130.864l-.017,0v.007l.015.01c0-.006,0-.009,0-.014" transform="translate(-53.335 -69.972)" fill="#4e8e69"/>
                  <path id="Trazado_892544" data-name="Trazado 892544" d="M101.318,130.665c-.282-.532-1.407-1.38-1.532-.354.5.033.911.492,1.532.354" transform="translate(-53.356 -69.42)" fill="#4e8e69"/>
                  <path id="Trazado_892545" data-name="Trazado 892545" d="M0,151.479v1.009a7.036,7.036,0,0,0,1.279.575c.011-.8-.711-1.136-1.279-1.584" transform="translate(0 -80.996)" fill="#4e8e69"/>
                  <path id="Trazado_892546" data-name="Trazado 892546" d="M1.231,149.935A14.42,14.42,0,0,0,0,148.993v.538c.423.132.734.68,1.231.4" transform="translate(0 -79.667)" fill="#4e8e69"/>
                  <path id="Trazado_892547" data-name="Trazado 892547" d="M.357,157.943a2.871,2.871,0,0,1-.357.141v1.289a2.737,2.737,0,0,0,.529.028c-.582-.485.154-.865-.171-1.459" transform="translate(0 -84.452)" fill="#4e8e69"/>
                  <path id="Trazado_892548" data-name="Trazado 892548" d="M2.749,154.883c0,.007,0,.014,0,.021h.012s0-.008.006-.013l-.019-.007" transform="translate(-1.47 -82.816)" fill="#4e8e69"/>
                  <path id="Trazado_892549" data-name="Trazado 892549" d="M.46,165.04c-.458-1.148,1.106-.7,1.239-1.6a2.521,2.521,0,0,1-1.7.021v2.046a1.994,1.994,0,0,0,.46-.473" transform="translate(0 -87.394)" fill="#4e8e69"/>
                  <path id="Trazado_892550" data-name="Trazado 892550" d="M48.564,163.409c-1.674,1.587-3.288,3.26-4.879,4.966h4.879Z" transform="translate(-23.358 -87.375)" fill="#4e8e69"/>
                  <path id="Trazado_892551" data-name="Trazado 892551" d="M4.355,132.77c.375.453.959.682,1.3,1.185.188.277.377.641.818.415.412-.211.658-.513.225-1.264,1.844.613,2.365-1.853,3.854-2.509a1.169,1.169,0,0,0,.189-1.919Q5.413,123.526,0,118.468v9.9a37.733,37.733,0,0,1,4.355,4.4" transform="translate(0 -63.345)" fill="#4e8e69"/>
                  <path id="Trazado_892552" data-name="Trazado 892552" d="M13.852,112.053c4.776-4.454,5.3-2.74.374-7.375C9.4,100.461,4.695,95.958,0,91.467v8.93q3.275,3.067,6.542,6.141c1.361.793,6.233,6.884,7.31,5.515" transform="translate(0 -48.908)" fill="#4e8e69"/>
                  <path id="Trazado_892553" data-name="Trazado 892553" d="M1.748,156c.346.57,1.6.91,2.078.3.507-.845-.919-1.457-1.618-1.378-.132.379-.632.673-.46,1.08" transform="translate(-0.915 -82.832)" fill="#4e8e69"/>
                  <path id="Trazado_892554" data-name="Trazado 892554" d="M12.386,18.552l-.174-.145c-1.079.772-1.488,2.242-2.831,2.757-.356,2.167,2.569-2.293,3.005-2.612" transform="translate(-5 -9.842)" fill="#4e8e69"/>
                  <path id="Trazado_892555" data-name="Trazado 892555" d="M8.207,155.909c-.074.505.809.842.949.308.014-.453-.874-.885-.949-.308" transform="translate(-4.386 -83.217)" fill="#4e8e69"/>
                  <path id="Trazado_892556" data-name="Trazado 892556" d="M3.657,163.41h0c0,.006,0,.01,0,.016l.023-.007-.018-.01" transform="translate(-1.953 -87.376)" fill="#4e8e69"/>
                  <path id="Trazado_892557" data-name="Trazado 892557" d="M3.785,161.759a1.863,1.863,0,0,0-1.408.43l.6.334c.286-.209.753-.216.81-.764" transform="translate(-1.271 -86.489)" fill="#4e8e69"/>
                </g>
              </g>
            </g>
          </g>
        </g>
      </g>
    </g>
  </g>
</svg>
